<svg width="101" height="30" viewBox="0 0 101 30" fill="none" xmlns="http://www.w3.org/2000/svg">
<g clip-path="url(#clip0_270:10)">
<path d="M100.156 26.2183C100.156 28.0697 98.543 29.5628 96.5125 29.5628H3.94169C1.91111 29.5628 0.298584 28.0697 0.298584 26.2183V3.64295C0.298584 1.79154 1.91111 0.298462 3.94169 0.298462H96.5125C98.543 0.298462 100.156 1.79154 100.156 3.64295V26.2183Z" fill="#100F0D" stroke="#A3A3A3" stroke-width="0.597231" stroke-miterlimit="8" stroke-linecap="round"/>
<path d="M42.8811 10.9897V6.80908H44.3145C44.6131 6.80908 44.9117 6.80908 45.0909 6.86881C45.3297 6.92853 45.5686 7.04797 45.6881 7.16742C45.927 7.34659 46.0464 7.58548 46.1659 7.8841C46.2853 8.18271 46.345 8.48133 46.345 8.89939C46.345 9.198 46.2853 9.49662 46.2256 9.73551C46.1659 9.9744 46.0464 10.2133 45.927 10.3327C45.8075 10.5119 45.6881 10.6314 45.5686 10.6911C45.4492 10.8105 45.27 10.8703 45.0909 10.93C44.9117 10.9897 44.6728 10.9897 44.4339 10.9897H42.8811ZM43.4186 10.5119H44.3145C44.6131 10.5119 44.7922 10.4522 44.9714 10.4522C45.1506 10.3925 45.27 10.3327 45.3297 10.2133C45.4492 10.0939 45.5686 9.91468 45.6284 9.67579C45.6881 9.4369 45.7478 9.198 45.7478 8.89939C45.7478 8.48133 45.6881 8.12299 45.5089 7.8841C45.3297 7.64521 45.2103 7.52576 44.9714 7.40631C44.7922 7.34659 44.6131 7.34659 44.2547 7.34659H43.3589L43.4186 10.5119Z" fill="white"/>
<path d="M46.8229 9.49607C46.8229 8.89884 47.002 8.48078 47.3007 8.24188C47.5396 8.00299 47.8979 7.88354 48.2562 7.88354C48.6743 7.88354 49.0326 8.00299 49.2715 8.30161C49.5104 8.60022 49.6896 8.95856 49.6896 9.43634C49.6896 9.79468 49.6299 10.153 49.5104 10.3322C49.391 10.5711 49.2118 10.7503 48.9729 10.8697C48.734 10.9891 48.4951 11.0489 48.2562 11.0489C47.8382 11.0489 47.4798 10.9294 47.2409 10.6308C46.9423 10.3919 46.8229 9.97385 46.8229 9.49607ZM47.3604 9.49607C47.3604 9.85441 47.4201 10.153 47.5993 10.3919C47.7784 10.5711 47.9576 10.6905 48.2562 10.6905C48.5548 10.6905 48.734 10.5711 48.9132 10.3919C49.0924 10.2127 49.1521 9.91413 49.1521 9.49607C49.1521 9.13773 49.0924 8.83911 48.9132 8.65994C48.734 8.48078 48.5548 8.36133 48.2562 8.36133C47.9576 8.36133 47.7784 8.48078 47.5993 8.65994C47.4201 8.83911 47.3604 9.07801 47.3604 9.49607Z" fill="white"/>
<path d="M50.8242 10.9891L49.8687 7.94324H50.4062L50.8839 9.67521L51.0631 10.3322C51.0631 10.2724 51.1228 10.0933 51.2423 9.73493L51.7201 7.94324H52.2576L52.7354 9.67521L52.9145 10.2724L53.0937 9.67521L53.6312 7.94324H54.109L53.1534 10.9891H52.5562L52.0784 9.1377L51.959 8.65991L51.3617 10.9891H50.8242Z" fill="white"/>
<path d="M54.5272 10.9891V7.94327H54.9453V8.36133C55.1842 8.00299 55.4828 7.88354 55.9008 7.88354C56.08 7.88354 56.2592 7.94327 56.3786 8.00299C56.5578 8.06271 56.6175 8.18216 56.737 8.24188C56.8564 8.30161 56.8564 8.48078 56.9161 8.60022C56.9161 8.71967 56.9759 8.83911 56.9759 9.07801V10.9294H56.4384V9.07801C56.4384 8.83911 56.4384 8.71967 56.3786 8.60022C56.3189 8.48078 56.2592 8.42105 56.1397 8.36133C56.08 8.36133 55.9606 8.36133 55.8411 8.36133C55.6022 8.36133 55.4231 8.42105 55.2439 8.5405C55.0647 8.65994 55.005 8.95856 55.005 9.3169V10.9891C55.0647 10.9891 54.5272 10.9891 54.5272 10.9891Z" fill="white"/>
<path d="M57.7522 10.989V6.80835H58.2897V10.989H57.7522Z" fill="white"/>
<path d="M58.8868 9.49607C58.8868 8.89884 59.066 8.48078 59.3646 8.24188C59.6035 8.00299 59.9619 7.88354 60.3202 7.88354C60.7383 7.88354 61.0966 8.00299 61.3355 8.30161C61.5744 8.5405 61.7536 8.95856 61.7536 9.43634C61.7536 9.79468 61.6938 10.153 61.5744 10.3322C61.4549 10.5711 61.2758 10.7503 61.0369 10.8697C60.798 10.9891 60.5591 11.0489 60.3202 11.0489C59.9021 11.0489 59.5438 10.9294 59.3049 10.6308C59.0063 10.3919 58.8868 9.97385 58.8868 9.49607ZM59.3646 9.49607C59.3646 9.85441 59.4244 10.153 59.6035 10.3919C59.7827 10.5711 59.9619 10.6905 60.2605 10.6905C60.5591 10.6905 60.7383 10.5711 60.9174 10.3919C61.0966 10.2127 61.1563 9.91413 61.1563 9.49607C61.1563 9.13773 61.0966 8.83911 60.9174 8.65994C60.7383 8.48078 60.5591 8.36133 60.2605 8.36133C59.9619 8.36133 59.7827 8.48078 59.6035 8.65994C59.4841 8.83911 59.3646 9.07801 59.3646 9.49607Z" fill="white"/>
<path d="M64.3218 10.6308C64.1426 10.8099 63.9634 10.9294 63.7843 10.9891C63.6051 11.0488 63.4259 11.1086 63.187 11.1086C62.8287 11.1086 62.5898 11.0488 62.4106 10.8697C62.2315 10.6905 62.1718 10.5113 62.1718 10.2724C62.1718 10.0933 62.2315 9.97382 62.2912 9.85438C62.3509 9.73493 62.4704 9.61548 62.5301 9.55576C62.6495 9.49604 62.769 9.43631 62.8884 9.37659C63.0079 9.31687 63.1273 9.31687 63.3662 9.31687C63.7843 9.25714 64.0829 9.19742 64.2621 9.1377V8.95853C64.2621 8.71964 64.2023 8.60019 64.0829 8.54047C63.9634 8.42102 63.7246 8.3613 63.4857 8.3613C63.2468 8.3613 63.0676 8.42102 62.9482 8.48074C62.8287 8.54047 62.769 8.71964 62.7093 8.95853L62.2315 8.89881C62.2912 8.65991 62.3509 8.54047 62.4704 8.3613C62.5898 8.24185 62.7093 8.12241 62.9482 8.06268C63.1273 8.00296 63.3662 7.94324 63.6051 7.94324C63.844 7.94324 64.0829 8.00296 64.2621 8.00296C64.4412 8.06268 64.5607 8.12241 64.6204 8.24185C64.6801 8.3613 64.7398 8.42102 64.7996 8.60019C64.7996 8.65991 64.8593 8.83908 64.8593 9.07798V9.73493C64.8593 10.2127 64.8593 10.5113 64.919 10.6308C64.919 10.7502 64.9787 10.8697 65.0385 10.9891H64.501C64.3218 10.9294 64.3218 10.7502 64.3218 10.6308ZM64.2621 9.49604C64.0829 9.55576 63.7843 9.61548 63.4259 9.67521C63.187 9.73493 63.0676 9.73493 62.9482 9.79465C62.8287 9.85438 62.769 9.9141 62.769 9.97382C62.769 10.0335 62.7093 10.153 62.7093 10.2127C62.7093 10.3322 62.769 10.4516 62.8884 10.5711C63.0079 10.6308 63.1273 10.6905 63.3662 10.6905C63.5454 10.6905 63.7246 10.6308 63.9037 10.5711C64.0829 10.5113 64.1426 10.3919 64.2621 10.2127C64.3218 10.0933 64.3218 9.9141 64.3218 9.67521V9.49604H64.2621Z" fill="white"/>
<path d="M67.5468 10.9889V10.6306C67.3676 10.9292 67.069 11.1084 66.7106 11.1084C66.4717 11.1084 66.2329 11.0487 66.0537 10.9292C65.8745 10.8098 65.6953 10.6306 65.5759 10.3917C65.4565 10.1528 65.3967 9.8542 65.3967 9.55558C65.3967 9.25696 65.4565 8.95835 65.5759 8.71946C65.6953 8.48057 65.8148 8.3014 66.0537 8.12223C66.2329 8.00278 66.4717 7.94306 66.7106 7.94306C66.8898 7.94306 67.069 8.00278 67.1884 8.0625C67.3676 8.12223 67.4273 8.24167 67.5468 8.36112V6.86804H68.0843V11.0487H67.5468V10.9889ZM65.9342 9.49586C65.9342 9.8542 65.994 10.1528 66.1731 10.3917C66.3523 10.5709 66.5315 10.6903 66.7704 10.6903C67.0093 10.6903 67.1884 10.6306 67.3676 10.4514C67.5468 10.2723 67.6065 9.97364 67.6065 9.6153C67.6065 9.19724 67.5468 8.89863 67.3676 8.71946C67.1884 8.54029 67.0093 8.42084 66.7704 8.42084C66.5315 8.42084 66.3523 8.54029 66.1731 8.71946C65.994 8.77918 65.9342 9.0778 65.9342 9.49586Z" fill="white"/>
<path d="M70.5927 10.9891V8.3613H70.1149V7.94324H70.5927V7.64463C70.5927 7.46546 70.5927 7.28629 70.6524 7.16684C70.7121 7.04739 70.7718 6.92795 70.8913 6.86823C71.0107 6.8085 71.1899 6.74878 71.4288 6.74878C71.6079 6.74878 71.7274 6.74878 71.9066 6.8085L71.8468 7.28629C71.7274 7.28629 71.6677 7.22656 71.5482 7.22656C71.3691 7.22656 71.3093 7.28629 71.1899 7.34601C71.1302 7.40573 71.0704 7.52518 71.0704 7.70435V8.00296H71.6677V8.3613H71.0704V10.9891H70.5927Z" fill="white"/>
<path d="M71.9065 9.49607C71.9065 8.89884 72.0857 8.48078 72.3843 8.24188C72.6232 8.00299 72.9815 7.88354 73.3398 7.88354C73.7579 7.88354 74.1162 8.00299 74.3551 8.30161C74.594 8.60022 74.7732 8.95856 74.7732 9.43634C74.7732 9.79468 74.7135 10.153 74.594 10.3322C74.4746 10.5711 74.2954 10.7503 74.0565 10.8697C73.8176 10.9891 73.5787 11.0489 73.3398 11.0489C72.9218 11.0489 72.5634 10.9294 72.3246 10.6308C72.0259 10.3919 71.9065 9.97385 71.9065 9.49607ZM72.444 9.49607C72.444 9.85441 72.5037 10.153 72.6829 10.3919C72.8621 10.5711 73.0412 10.6905 73.3398 10.6905C73.5787 10.6905 73.8176 10.5711 73.9968 10.3919C74.176 10.2127 74.2357 9.91413 74.2357 9.49607C74.2357 9.13773 74.176 8.83911 73.9968 8.65994C73.8176 8.48078 73.6385 8.36133 73.3398 8.36133C73.101 8.36133 72.8621 8.48078 72.6829 8.65994C72.5037 8.83911 72.444 9.07801 72.444 9.49607Z" fill="white"/>
<path d="M75.3108 10.9891V7.94327H75.7886V8.42105C75.908 8.18216 76.0275 8.06271 76.1469 8.00299C76.2664 7.94327 76.3858 7.88354 76.5053 7.88354C76.6844 7.88354 76.8636 7.94327 77.0428 8.06271L76.8636 8.5405C76.7441 8.48078 76.6247 8.42105 76.5053 8.42105C76.3858 8.42105 76.2664 8.48078 76.2066 8.5405C76.1469 8.60022 76.0275 8.71967 76.0275 8.83911C75.9677 9.01828 75.9677 9.19745 75.9677 9.43634V10.9891H75.3108Z" fill="white"/>
<path d="M29.1448 11.5864L31.7129 7.10714C31.8323 6.86825 31.7726 6.56964 31.5337 6.39047C31.2948 6.2113 30.9962 6.33074 30.8171 6.56964L28.1892 11.1086C26.2184 10.2127 23.9489 9.67524 21.56 9.67524C19.1711 9.67524 16.9016 10.153 14.9307 11.1086L12.3029 6.56964C12.1835 6.33074 11.8251 6.2113 11.5862 6.39047C11.3473 6.56964 11.2279 6.86825 11.4071 7.16687L13.9752 11.6461C9.55564 14.035 6.50977 18.5142 6.03198 23.7699H37.088C36.5505 18.5142 33.5643 14.035 29.1448 11.5864ZM14.4529 19.4101C13.7363 19.4101 13.139 18.8129 13.139 18.0962C13.139 17.3795 13.7363 16.7823 14.4529 16.7823C15.1696 16.7823 15.7668 17.3795 15.7668 18.0962C15.7071 18.8129 15.1696 19.4101 14.4529 19.4101ZM28.667 19.4101C27.9503 19.4101 27.3531 18.8129 27.3531 18.0962C27.3531 17.3795 27.9503 16.7823 28.667 16.7823C29.3837 16.7823 29.9809 17.3795 29.9809 18.0962C29.9809 18.8129 29.3837 19.4101 28.667 19.4101Z" fill="white"/>
<path d="M44.9706 16.5752C43.3924 16.5752 41.8142 17.8377 41.8142 19.9683C41.8142 21.941 43.2346 23.3614 44.9706 23.3614C46.3909 23.3614 47.0222 22.4145 47.0222 22.4145V22.809C47.0222 23.0457 47.18 23.2036 47.4168 23.2036H48.4426V16.733H46.9433V17.601C47.1011 17.601 46.3909 16.5752 44.9706 16.5752ZM45.2862 17.9166C46.5488 17.9166 47.259 19.0214 47.259 19.9683C47.259 21.073 46.4699 22.0199 45.2862 22.0199C44.3393 22.0199 43.3924 21.2308 43.3924 19.8894C43.3135 18.8636 44.1815 17.9166 45.2862 17.9166Z" fill="white"/>
<path d="M50.5731 23.2825C50.3364 23.2825 50.1786 23.1247 50.1786 22.8879V16.733H51.6779V17.5221C51.9935 17.0486 52.6248 16.5752 53.6506 16.5752C55.3077 16.5752 56.1757 17.8377 56.1757 19.1003V23.2825H55.1499C54.9131 23.2825 54.6764 23.0457 54.6764 22.809V19.4159C54.6764 18.7057 54.2819 17.9166 53.335 17.9166C52.3091 17.9166 51.6779 18.8636 51.6779 19.8105V23.2825H50.5731Z" fill="white"/>
<path d="M60.358 16.575C58.7798 16.575 57.2017 17.8376 57.2017 19.9681C57.2017 21.9408 58.622 23.3612 60.358 23.3612C61.7784 23.3612 62.4097 22.4143 62.4097 22.4143V22.8088C62.4097 23.0456 62.5675 23.2034 62.8042 23.2034H63.83V13.4976H62.3308V17.6008C62.4097 17.6008 61.7784 16.575 60.358 16.575ZM60.5948 17.9165C61.8573 17.9165 62.5675 19.0212 62.5675 19.9681C62.5675 21.0728 61.7784 22.0197 60.5948 22.0197C59.6479 22.0197 58.701 21.2306 58.701 19.8892C58.701 18.8634 59.49 17.9165 60.5948 17.9165Z" fill="white"/>
<path d="M65.9606 23.2823C65.7239 23.2823 65.566 23.1245 65.566 22.8878V16.7328H67.0653V17.8376C67.302 17.2063 67.8544 16.6539 68.8013 16.6539C69.038 16.6539 69.3537 16.7328 69.3537 16.7328V18.2321C69.3537 18.2321 69.038 18.0743 68.6435 18.0743C67.6177 18.0743 67.0653 19.0212 67.0653 19.9681V23.2823H65.9606Z" fill="white"/>
<path d="M78.1914 23.2824C77.9547 23.2824 77.7969 23.1245 77.7969 22.8878V16.7329H79.2961V23.2824H78.1914Z" fill="white"/>
<path d="M83.4783 16.575C81.9001 16.575 80.3219 17.8376 80.3219 19.9681C80.3219 21.9408 81.7423 23.3612 83.4783 23.3612C84.8986 23.3612 85.5299 22.4143 85.5299 22.4143V22.8088C85.5299 23.0456 85.6877 23.2034 85.9244 23.2034H86.9503V13.4976H85.451V17.6008C85.6088 17.6008 84.9775 16.575 83.4783 16.575ZM83.7939 17.9165C85.0564 17.9165 85.7666 19.0212 85.7666 19.9681C85.7666 21.0728 84.9775 22.0197 83.7939 22.0197C82.847 22.0197 81.9001 21.2306 81.9001 19.8892C81.8212 18.8634 82.6892 17.9165 83.7939 17.9165Z" fill="white"/>
<path d="M78.428 15.3125C78.951 15.3125 79.3749 14.8886 79.3749 14.3656C79.3749 13.8426 78.951 13.4187 78.428 13.4187C77.905 13.4187 77.4811 13.8426 77.4811 14.3656C77.4811 14.8886 77.905 15.3125 78.428 15.3125Z" fill="white"/>
<path d="M73.1413 16.5752C71.4842 16.5752 69.7482 17.7588 69.7482 19.9683C69.7482 21.941 71.2474 23.3614 73.1413 23.3614C75.5085 23.3614 76.6132 21.4676 76.6132 19.9683C76.6132 18.1534 75.114 16.5752 73.1413 16.5752ZM73.1413 17.9956C74.246 17.9956 75.114 18.9425 75.114 20.0472C75.114 21.2308 74.246 22.0988 73.1413 22.0988C72.1154 22.0988 71.1685 21.3097 71.1685 20.0472C71.1685 18.7846 72.1154 17.9956 73.1413 17.9956Z" fill="white"/>
</g>
<defs>
<clipPath id="clip0_270:10">
<rect width="100.454" height="29.8615" fill="white"/>
</clipPath>
</defs>
</svg>
