<svg width="103" height="30" viewBox="0 0 103 30" fill="none" xmlns="http://www.w3.org/2000/svg">
<g clip-path="url(#clip0_270:3)">
<path d="M98.727 29.9998H3.79848C1.79848 29.9998 0.227051 28.4283 0.227051 26.4283V3.5712C0.227051 1.57121 1.79848 -0.000221658 3.79848 -0.000221658H98.727C100.727 -0.0716502 102.298 1.49978 102.37 3.49978V3.5712V26.4283C102.37 28.4283 100.798 29.9998 98.7984 29.9998H98.727Z" fill="#A6A6A6"/>
<path d="M98.7269 29.2858H3.86985C2.29843 29.3572 1.01271 28.0715 0.941284 26.5V26.4286V3.5715C0.941284 2.00007 2.227 0.714355 3.79842 0.714355H3.86985H98.7983C100.37 0.714355 101.727 2.00007 101.727 3.5715V26.4286C101.655 28 100.37 29.2858 98.7269 29.2858Z" fill="black"/>
<path d="M23.0128 14.8572C23.0128 12.4287 25.0128 11.2858 25.0842 11.2144C24.2985 10.0001 22.9414 9.2858 21.5128 9.2858C20.0842 9.14294 18.5842 10.1429 17.87 10.1429C17.0842 10.1429 15.9414 9.2858 14.6557 9.2858C13.0128 9.2858 11.5128 10.2144 10.7271 11.7144C9.01282 14.6429 10.2985 19.0001 11.9414 21.3572C12.7271 22.5001 13.7271 23.7858 14.9414 23.7858C16.1557 23.7144 16.6557 23.0001 18.0842 23.0001C19.5842 23.0001 20.0128 23.7858 21.2271 23.7144C22.5128 23.7144 23.37 22.5715 24.1557 21.3572C25.0842 20.0001 25.5128 18.7144 25.5128 18.6429C25.5128 18.6429 23.0128 17.7144 23.0128 14.8572ZM20.5842 7.71437C21.2985 6.85723 21.6557 5.7858 21.5842 4.64294C20.6557 4.71437 19.4414 5.2858 18.7271 6.07151C18.0842 6.7858 17.5842 7.92866 17.7271 9.00008C18.7985 9.14294 19.87 8.50008 20.5842 7.71437Z" fill="white"/>
<path d="M40.727 23.6429H39.0128L38.0842 20.7143H34.7985L33.8699 23.6429H32.2271L35.5128 13.6429H37.5128L40.727 23.6429ZM37.7985 19.4286L36.9413 16.8572L36.4413 15L35.9413 16.8572L35.0842 19.4286H37.7985ZM49.0842 19.9286C49.1556 21 48.7985 22.0714 48.0842 22.8572C47.5128 23.5 46.727 23.7857 45.8699 23.7857C44.9413 23.7857 44.227 23.4286 43.7985 22.7857V26.5714H42.1556V18.7857L42.0842 16.4286H43.5128L43.5842 17.5714C44.0842 16.7143 45.0128 16.2143 46.0128 16.2857C46.8699 16.2857 47.5842 16.6429 48.1556 17.2857C48.7985 18 49.1556 18.9286 49.0842 19.9286ZM47.4413 20C47.4413 19.2857 47.2985 18.7143 46.9413 18.2857C46.5842 17.7857 46.1556 17.5714 45.5128 17.5714C45.0842 17.5714 44.727 17.7143 44.4413 17.9286C44.0842 18.2143 43.9413 18.5 43.7985 18.9286L43.727 19.4286V20.6429C43.727 21.1429 43.8699 21.5714 44.227 22C44.5842 22.3572 44.9413 22.5714 45.5128 22.5714C46.0842 22.5714 46.5842 22.3572 46.9413 21.8572C47.2985 21.2857 47.4413 20.6429 47.4413 20ZM57.3699 19.9286C57.4413 21 57.0842 22.0714 56.3699 22.8572C55.7985 23.5 55.0127 23.7857 54.1556 23.7857C53.227 23.7857 52.5127 23.4286 52.0842 22.7857V26.5714H50.4413V18.7857L50.3699 16.4286H51.7985L51.9413 17.5714C52.4413 16.7143 53.3699 16.2143 54.3699 16.2857C55.227 16.2857 55.9413 16.6429 56.5127 17.2857C57.0842 17.9286 57.3699 18.8572 57.3699 19.9286ZM55.727 20C55.727 19.2857 55.5842 18.7143 55.227 18.2857C54.8699 17.7857 54.4413 17.5714 53.7985 17.5714C53.3699 17.5714 53.0127 17.7143 52.727 17.9286C52.3699 18.2143 52.227 18.5 52.0842 18.9286L52.0127 19.4286V20.6429C52.0127 21.1429 52.1556 21.5714 52.5127 22C52.8699 22.3572 53.227 22.5714 53.7985 22.5714C54.3699 22.5714 54.8699 22.3572 55.227 21.8572C55.5842 21.3572 55.727 20.7857 55.727 20ZM66.727 20.7857C66.727 21.6429 66.4413 22.3572 65.8699 22.8572C65.227 23.4286 64.2985 23.7143 63.1556 23.7143C62.0842 23.7143 61.227 23.5 60.5842 23.0714L60.9413 21.7143C61.6556 22.1429 62.4413 22.3572 63.2985 22.3572C63.8699 22.3572 64.3699 22.2143 64.727 21.9286C65.0842 21.6429 65.227 21.2857 65.227 20.8572C65.227 20.4286 65.0842 20.1429 64.7985 19.8572C64.5127 19.5714 64.0842 19.3572 63.4413 19.0714C61.6556 18.4286 60.7985 17.5 60.7985 16.2143C60.7985 15.4286 61.0842 14.7143 61.727 14.2143C62.3699 13.7143 63.1556 13.4286 64.1556 13.4286C65.0842 13.4286 65.7985 13.5714 66.4413 13.9286L66.0127 15.2143C65.4413 14.9286 64.727 14.7857 64.0842 14.7857C63.5127 14.7857 63.0842 14.9286 62.727 15.2143C62.4413 15.4286 62.2985 15.7857 62.2985 16.1429C62.2985 16.5714 62.4413 16.8572 62.727 17.1429L64.1556 17.9286C64.8699 18.2143 65.5127 18.5714 66.0842 19.1429C66.5127 19.5714 66.727 20.1429 66.727 20.7857ZM72.0127 17.6429H70.227V21.1429C70.227 22 70.5127 22.5 71.1556 22.5L71.8699 22.4286L71.9413 23.6429C71.6556 23.7857 71.227 23.7857 70.6556 23.7857C70.0127 23.7857 69.5127 23.5714 69.1556 23.2143C68.7985 22.8572 68.5842 22.2143 68.5842 21.2857V17.6429H67.6556V16.4286H68.727V15.1429L70.2984 14.6429V16.4286H72.0842V17.6429H72.0127ZM80.0127 19.9286C80.0127 21 79.727 21.9286 79.0842 22.6429C78.4413 23.3572 77.5127 23.7143 76.4413 23.7143C75.3699 23.7143 74.5127 23.3572 73.8699 22.6429C73.227 21.9286 72.9413 21.0714 72.9413 20C72.9413 18.8572 73.2984 18 73.9413 17.2857C74.5842 16.5714 75.4413 16.2143 76.5842 16.2143C77.6556 16.2143 78.5127 16.5714 79.1556 17.2857C79.727 18 80.0127 18.8572 80.0127 19.9286ZM78.3699 20C78.3699 19.3572 78.227 18.7857 77.9413 18.2857C77.5842 17.7143 77.1556 17.4286 76.5127 17.4286C75.8699 17.4286 75.3699 17.7143 75.0127 18.2857C74.727 18.7857 74.5842 19.3572 74.5842 20C74.5842 20.6429 74.727 21.2143 75.0127 21.7143C75.3699 22.2857 75.8699 22.5714 76.4413 22.5714C77.0842 22.5714 77.5127 22.2857 77.8699 21.7143C78.227 21.2857 78.3699 20.6429 78.3699 20ZM85.2984 17.8572L84.7984 17.7857C84.2984 17.7857 83.7984 18 83.5127 18.4286C83.227 18.7857 83.0841 19.2857 83.0841 19.8572V23.6429H81.4413V18.7143L81.3699 16.4286H82.7984L82.8699 17.7857H82.9413C83.0842 17.3572 83.3699 16.9286 83.727 16.6429C84.0842 16.3572 84.4413 16.2857 84.8699 16.2857H85.2984V17.8572ZM92.5127 19.7143L92.4413 20.4286H87.5841C87.5841 21.0714 87.7984 21.6429 88.2984 22.0714C88.727 22.4286 89.227 22.5714 89.8699 22.5714C90.5841 22.5714 91.227 22.4286 91.7984 22.2143L92.0841 23.3572C91.2984 23.6429 90.5127 23.7857 89.6556 23.7857C88.6556 23.8572 87.727 23.5 87.0127 22.7857C86.3699 22.0714 86.0127 21.1429 86.0841 20.1429C86.0841 19.0714 86.3699 18.1429 87.0127 17.4286C87.5841 16.6429 88.5127 16.2857 89.5127 16.2857C90.5841 16.2857 91.3699 16.6429 91.8699 17.4286C92.2984 18 92.5127 18.7857 92.5127 19.7143ZM90.9413 19.2857C90.9413 18.8572 90.8699 18.4286 90.6556 18.0714C90.3699 17.6429 89.8699 17.4286 89.3699 17.4286C88.8699 17.4286 88.4413 17.6429 88.0841 18.0714C87.7984 18.4286 87.6556 18.8572 87.5841 19.2857H90.9413Z" fill="white"/>
<path d="M37.2984 7.50002C37.2984 8.35716 37.0126 9.07144 36.5126 9.50001C36.0126 9.92859 35.2984 10.1429 34.3698 10.1429L33.2269 10.0714V5.2143L34.5841 5.14287C35.4412 5.14287 36.0841 5.35716 36.5126 5.7143C37.0841 6.14287 37.2984 6.7143 37.2984 7.50002ZM36.4412 7.50002C36.4412 6.92859 36.2984 6.50002 36.0126 6.2143C35.7269 5.92859 35.2269 5.78573 34.6555 5.78573L34.0126 5.85716V9.50001H34.5841C35.1555 9.50001 35.6555 9.35716 36.0126 9.00001C36.2984 8.64287 36.4412 8.14287 36.4412 7.50002ZM41.7269 8.28573C41.7269 8.85716 41.5841 9.28573 41.2269 9.64287C40.8698 10 40.4412 10.2143 39.9412 10.2143C39.4412 10.2143 39.0126 10.0714 38.7269 9.7143C38.3698 9.28573 38.2269 8.85716 38.2269 8.35716C38.2269 7.78573 38.3698 7.35716 38.7269 7.00002C39.0126 6.64287 39.4412 6.50002 40.0126 6.50002C40.5126 6.50002 40.9412 6.64287 41.2983 7.00002C41.5841 7.28573 41.7269 7.7143 41.7269 8.28573ZM40.8698 8.28573C40.8698 7.92859 40.7983 7.7143 40.6555 7.42859C40.5126 7.14287 40.2269 7.00002 39.9412 7.00002C39.6555 7.00002 39.3698 7.14287 39.2269 7.42859L39.0126 8.28573C39.0126 8.64287 39.0841 8.85716 39.2269 9.14287C39.3698 9.42859 39.6555 9.57144 39.9412 9.57144C40.2269 9.57144 40.5126 9.42859 40.6555 9.14287C40.7983 8.92859 40.8698 8.64287 40.8698 8.28573ZM47.6555 6.57144L46.5126 10.0714H45.7983L45.3698 8.57144L45.0841 7.42859L44.7983 8.57144L44.2983 10.0714H43.5841L42.5126 6.57144H43.2983L43.7269 8.28573L43.9412 9.42859L44.2269 8.28573L44.7269 6.57144H45.3698L45.8698 8.2143L46.1555 9.35716L46.3698 8.2143L46.7983 6.57144H47.6555ZM51.7269 10.0714H50.9412V8.07144C50.9412 7.42859 50.7269 7.14287 50.2269 7.14287C50.0126 7.14287 49.7983 7.2143 49.6555 7.42859C49.5126 7.57144 49.4412 7.78573 49.4412 8.00001V10.0714H48.6555V7.57144V6.57144H49.3698L49.4412 7.14287L49.8698 6.7143C50.0841 6.57144 50.2983 6.50002 50.5841 6.50002C50.9412 6.50002 51.2269 6.57144 51.4412 6.78573C51.7269 7.07144 51.8698 7.42859 51.8698 7.92859V10.0714H51.7269ZM53.9412 10.0714H53.1555V4.92859H53.9412V10.0714ZM58.584 8.28573C58.584 8.85716 58.4412 9.28573 58.084 9.64287C57.7269 10 57.2983 10.2143 56.7983 10.2143C56.2983 10.2143 55.8698 10.0714 55.5841 9.7143C55.2983 9.35716 55.0841 8.92859 55.0841 8.42859C55.0841 7.85716 55.2269 7.42859 55.5841 7.07144C55.8698 6.7143 56.3698 6.57144 56.8698 6.57144C57.3698 6.57144 57.7983 6.7143 58.1555 7.07144C58.4412 7.28573 58.584 7.7143 58.584 8.28573ZM57.7983 8.28573C57.7983 7.92859 57.7269 7.7143 57.5841 7.42859C57.4412 7.14287 57.1555 7.00002 56.8698 7.00002C56.5841 7.00002 56.2983 7.14287 56.1555 7.42859C56.0126 7.64287 55.9412 7.92859 55.9412 8.28573C55.9412 8.64287 56.0126 8.85716 56.1555 9.14287C56.2983 9.42859 56.5841 9.57144 56.8698 9.57144C57.1555 9.57144 57.4412 9.42859 57.5841 9.14287C57.7269 8.92859 57.7983 8.64287 57.7983 8.28573ZM62.4412 10.0714H61.7269L61.6555 9.64287C61.4412 10 61.084 10.1429 60.584 10.1429C60.2269 10.1429 59.9412 10.0714 59.7983 9.85716C59.584 9.64287 59.5126 9.42859 59.5126 9.14287C59.5126 8.7143 59.7269 8.35716 60.084 8.14287C60.5126 7.85716 61.084 7.78573 61.584 7.78573V7.7143C61.584 7.2143 61.3698 7.00002 60.8698 7.00002C60.5126 7.00002 60.2269 7.07144 59.9412 7.28573L59.7983 6.78573C60.1555 6.57144 60.584 6.50002 61.0126 6.50002C61.9412 6.50002 62.4412 7.00002 62.4412 7.92859V9.2143V10.0714ZM61.584 8.85716V8.28573C60.7269 8.28573 60.2983 8.50001 60.2983 9.00001L60.4412 9.42859L60.8698 9.57144L61.3698 9.42859L61.6555 9.00001L61.584 8.85716ZM66.9412 10.0714H66.2269L66.1555 9.50001C65.9412 9.92859 65.584 10.1429 65.0126 10.1429C64.584 10.1429 64.2269 10 63.9412 9.64287C63.6555 9.28573 63.5126 8.85716 63.5126 8.35716C63.5126 7.78573 63.6555 7.35716 63.9412 7.00002C64.2269 6.64287 64.584 6.50002 65.0126 6.50002C65.5126 6.50002 65.7983 6.64287 66.0126 7.00002V4.92859H66.7983V9.14287L66.9412 10.0714ZM66.084 8.57144V8.00001V7.78573L65.7983 7.28573C65.6555 7.14287 65.5126 7.07144 65.2983 7.07144C65.0126 7.07144 64.7983 7.2143 64.584 7.42859C64.4412 7.64287 64.2983 7.92859 64.2983 8.35716C64.2983 8.7143 64.3698 9.00001 64.5126 9.2143C64.6555 9.42859 64.9412 9.57144 65.2269 9.57144C65.5126 9.57144 65.7269 9.50001 65.8698 9.28573C66.0126 9.07144 66.084 8.85716 66.084 8.57144ZM73.7269 8.28573C73.7269 8.85716 73.584 9.28573 73.2269 9.64287C72.8697 10 72.4412 10.2143 71.9412 10.2143C71.4412 10.2143 71.0126 10.0714 70.7269 9.7143C70.4412 9.35716 70.2269 8.92859 70.2269 8.42859C70.2269 7.85716 70.3698 7.42859 70.7269 7.07144C71.0126 6.64287 71.4412 6.50002 72.0126 6.50002C72.5126 6.50002 72.9412 6.64287 73.2983 7.00002C73.5126 7.28573 73.7269 7.7143 73.7269 8.28573ZM72.8697 8.28573C72.8697 7.92859 72.7983 7.7143 72.6555 7.42859C72.5126 7.14287 72.2269 7.00002 71.9412 7.00002C71.6555 7.00002 71.3698 7.14287 71.2269 7.42859C71.084 7.64287 71.0126 7.92859 71.0126 8.28573C71.0126 8.64287 71.084 8.85716 71.2269 9.14287C71.3698 9.42859 71.6555 9.57144 71.9412 9.57144C72.2269 9.57144 72.5126 9.42859 72.6555 9.14287C72.7983 8.92859 72.8697 8.64287 72.8697 8.28573ZM77.9412 10.0714H77.1555V8.07144C77.1555 7.42859 76.9412 7.14287 76.4412 7.14287C76.2269 7.14287 76.0126 7.2143 75.8697 7.42859C75.7269 7.57144 75.6555 7.78573 75.6555 8.00001V10.0714H74.8697V7.57144V6.57144H75.584V7.07144L76.0126 6.64287C76.2269 6.50002 76.4412 6.42859 76.7269 6.42859C77.084 6.42859 77.3697 6.50002 77.584 6.7143C77.8697 7.00002 78.0126 7.35716 78.0126 7.85716L77.9412 10.0714ZM83.2983 7.14287H82.4412V8.85716C82.4412 9.28573 82.584 9.50001 82.8697 9.50001L83.2269 9.42859V10L82.584 10.0714C82.2983 10.0714 82.0126 10 81.8697 9.78573C81.7269 9.57144 81.584 9.28573 81.584 8.85716V7.14287H81.084V6.57144H81.584V5.85716L82.3697 5.64287V6.50002H83.2269L83.2983 7.14287ZM87.4412 10.0714H86.6555V8.07144C86.6555 7.42859 86.4412 7.14287 85.9412 7.14287C85.584 7.14287 85.2983 7.35716 85.1555 7.7143L85.084 8.00001V10.1429H84.2983V4.92859H85.084V7.07144C85.2983 6.7143 85.6555 6.50002 86.1555 6.50002C86.5126 6.50002 86.7269 6.57144 86.9412 6.78573C87.2269 7.07144 87.3697 7.42859 87.3697 8.00001L87.4412 10.0714ZM91.7983 8.14287V8.50001H89.4412C89.4412 8.85716 89.584 9.14287 89.7983 9.28573C90.0126 9.42859 90.2269 9.50001 90.584 9.50001L91.5126 9.35716L91.6554 9.92858C91.2983 10.0714 90.9412 10.1429 90.4412 10.1429C89.8697 10.1429 89.4412 10 89.1555 9.64287C88.8697 9.28573 88.6555 8.85716 88.6555 8.35716C88.6555 7.85716 88.7983 7.35716 89.084 7.00002C89.3697 6.64287 89.7983 6.42859 90.2983 6.42859C90.7983 6.42859 91.2269 6.64287 91.4412 7.00002C91.6554 7.35716 91.7983 7.7143 91.7983 8.14287ZM91.0126 7.92859L90.8697 7.35716C90.7269 7.14287 90.5126 7.00002 90.2269 7.00002C89.9412 7.00002 89.7269 7.07144 89.584 7.28573C89.4412 7.42859 89.3697 7.64287 89.3697 7.92859H91.0126Z" fill="white"/>
</g>
<defs>
<clipPath id="clip0_270:3">
<rect width="102.143" height="30" fill="white" transform="translate(0.227051)"/>
</clipPath>
</defs>
</svg>
