<svg width="29" height="34" viewBox="0 0 29 34" fill="none" xmlns="http://www.w3.org/2000/svg">
<g clip-path="url(#clip0_347:6)">
<path d="M24.4908 13.4816C24.9391 10.2618 22.5216 8.57892 19.2252 7.48712L20.2591 3.11725L17.6498 2.50472L16.6431 6.75915C15.9572 6.59802 15.2527 6.44738 14.553 6.29786L15.5667 2.01541L12.9591 1.40224L11.9246 5.77044C11.3573 5.64935 10.7995 5.53001 10.2586 5.40334L10.2613 5.38964L6.66347 4.54307L5.99177 7.384C5.99177 7.384 7.92711 7.79931 7.88676 7.82774C8.9437 8.07626 9.1396 8.78238 9.11157 9.34598L7.93371 14.324C8.00639 14.3415 8.10086 14.3667 8.2052 14.4075C8.11813 14.3871 8.02547 14.3649 7.92973 14.343L6.27864 21.3163C6.15204 21.6444 5.82844 22.1393 5.08993 21.9669C5.11614 22.0047 3.19349 21.5207 3.19349 21.5207L1.92365 24.5753L5.31913 25.3729C5.95061 25.5223 6.56982 25.6791 7.1792 25.8264L6.13458 30.246L8.74076 30.8588L9.77534 26.486C10.4872 26.6691 11.1785 26.8376 11.8545 26.9959L10.8233 31.348L13.4326 31.9605L14.4773 27.5492C18.9242 28.3228 22.261 27.9178 23.6356 23.8083C24.7436 20.4994 23.5402 18.6243 21.1948 17.4297C22.8932 16.9998 24.1663 15.8382 24.4908 13.4816ZM18.6047 22.0734C17.8245 25.3762 12.3666 23.6974 10.5981 23.2838L11.9843 17.4287C13.7523 17.8448 19.4198 18.6289 18.6047 22.0734ZM19.3461 13.5272C18.6343 16.5318 14.0909 15.0942 12.6182 14.7484L13.875 9.43776C15.3477 9.78365 20.0874 10.3934 19.3461 13.5272Z" fill="white"/>
</g>
<defs>
<clipPath id="clip0_347:6">
<rect width="20.9959" height="29.6455" fill="white" transform="matrix(0.973662 0.227996 -0.229606 0.973284 7.68188 0.166504)"/>
</clipPath>
</defs>
</svg>
