<svg width="442" height="361" viewBox="0 0 442 361" fill="none" xmlns="http://www.w3.org/2000/svg">
<g opacity="0.85" clip-path="url(#clip0_268:6)" filter="url(#filter0_f_268:6)">
<path d="M265.396 349.852C257.432 357.166 244.773 356.63 237.424 348.617L7.95253 98.4133C3.61891 93.6864 6.74437 87.0614 14.7602 83.6385L193.799 7.26191C199.147 4.97997 206.973 5.87908 211.344 9.26518L429.8 178.439C436.392 183.544 438.016 191.231 433.278 195.585L265.396 349.852Z" fill="url(#paint0_linear_268:6)"/>
<path d="M432.029 194.602L264.011 348.38C256.856 354.926 245.547 354.442 238.949 347.265L9.47741 97.7454C5.57978 93.5075 8.35855 87.5713 15.5602 84.4902L194.604 7.89273C199.411 5.83688 206.434 6.64134 210.368 9.69094L428.924 179.206C434.855 183.807 436.294 190.695 432.029 194.602Z" fill="url(#paint1_linear_268:6)"/>
<path d="M63.0041 98.0031C64.8374 98.7918 66.1243 98.5868 66.9017 98.2608L67.3377 98.7024C66.3082 99.1178 64.7691 99.8013 63.3876 100.448C61.507 101.326 59.7789 102.162 58.7808 102.688L58.3448 102.241C60.073 101.373 60.7349 100.827 60.1255 100.206C59.8681 99.9433 59.3954 99.6751 58.681 99.3597L52.8818 96.7517L43.9624 100.827L44.7136 103.918C44.95 104.944 45.2967 105.664 45.7379 106.127C46.6834 107.115 48.128 106.942 50.2974 105.985L50.7334 106.442C49.2679 107.063 47.6762 107.772 46.3525 108.388C45.0813 108.976 44.3144 109.371 43.6 109.77L43.164 109.308C44.015 108.719 44.6821 107.715 44.2409 105.943L40.0648 88.4915L40.6584 88.2286L63.0041 98.0031ZM41.709 91.7094L43.8101 100.254L52.1884 96.431L41.709 91.7094Z" fill="#212121"/>
<path d="M68.1467 109.018C62.5261 109.323 59.012 107.683 59.012 107.683C59.012 107.683 59.8787 110.58 57.3521 114.166C52.4196 121.159 64.3331 125.634 68.5722 117.815C69.6648 119.908 68.3726 120.907 67.8158 121.217L70.7206 119.797L73.6044 118.383C73.0056 118.635 71.2459 119.135 68.8926 117.663C80.5067 117.673 78.8311 108.435 68.1467 109.018Z" fill="#212121"/>
<path d="M67.821 121.217L67.5951 121.327C67.5951 121.327 67.6844 121.291 67.821 121.217Z" fill="#212121"/>
<path d="M73.8304 118.272L73.6097 118.383C73.7516 118.32 73.8304 118.272 73.8304 118.272Z" fill="#212121"/>
<path d="M408.916 191.599L408.533 191.936L384.033 181.636C381.633 180.616 380.262 180.7 379.442 181.078L378.833 180.584C379.385 180.226 379.936 179.827 380.761 179.149C381.622 178.444 382.62 177.576 383.492 176.772L384.102 177.261C382.752 178.439 382.484 179.411 383.813 180.479C384.438 180.984 385.42 181.52 386.817 182.103L391.077 183.896L396.877 179.033L393.326 173.822C392.9 173.186 392.538 172.744 392.181 172.46C391.335 171.793 390.578 172.056 389.365 172.955L388.761 172.471C389.496 171.966 390.668 171.051 391.902 170.047C392.806 169.311 393.767 168.475 394.35 167.902L394.954 168.38C394.492 168.811 394.192 169.647 395.253 171.251L408.916 191.599ZM397.307 179.664L391.865 184.238L403.9 189.328L397.307 179.664Z" fill="#212121"/>
<path d="M380.419 163.538C379.878 167.339 381.995 170.415 381.995 170.415C381.995 170.415 378.14 168.722 373.328 169.164C364.051 170.01 358.762 160.262 368.905 160.115C366.242 158.643 364.923 159.174 364.508 159.437L366.426 157.964L368.333 156.497C367.986 156.813 367.287 157.833 369.115 159.947C369.457 152.102 381.438 156.392 380.419 163.538Z" fill="#212121"/>
<path d="M364.508 159.442L364.361 159.558C364.361 159.558 364.409 159.505 364.508 159.442Z" fill="#212121"/>
<path d="M368.48 156.392L368.333 156.508C368.417 156.424 368.48 156.392 368.48 156.392Z" fill="#212121"/>
<path d="M228.496 121.885C210.132 123.068 197.21 117.268 197.21 117.268C197.21 117.268 202.237 127.632 196.306 140.86C184.198 167.886 229.825 185.011 237.505 154.142C243.13 162.092 239.611 166.014 237.988 167.245L246.624 161.592L255.07 156.066C253.295 157.06 247.8 159.042 238.45 153.537C277.463 153.09 262.823 119.676 228.496 121.885Z" fill="#212121"/>
</g>
<defs>
<filter id="filter0_f_268:6" x="0" y="0" width="442" height="361" filterUnits="userSpaceOnUse" color-interpolation-filters="sRGB">
<feFlood flood-opacity="0" result="BackgroundImageFix"/>
<feBlend mode="normal" in="SourceGraphic" in2="BackgroundImageFix" result="shape"/>
<feGaussianBlur stdDeviation="3" result="effect1_foregroundBlur_268:6"/>
</filter>
<linearGradient id="paint0_linear_268:6" x1="191.678" y1="-94.526" x2="244.325" y2="328.29" gradientUnits="userSpaceOnUse">
<stop stop-color="white"/>
<stop offset="1" stop-color="#D1D1D1"/>
</linearGradient>
<linearGradient id="paint1_linear_268:6" x1="66.5875" y1="173.035" x2="792.65" y2="204.041" gradientUnits="userSpaceOnUse">
<stop stop-color="white"/>
<stop offset="0.998" stop-color="#BABABA"/>
</linearGradient>
<clipPath id="clip0_268:6">
<rect width="430" height="349" fill="white" transform="translate(6 6)"/>
</clipPath>
</defs>
</svg>
