<svg width="193" height="157" viewBox="0 0 193 157" fill="none" xmlns="http://www.w3.org/2000/svg">
<g clip-path="url(#clip0_375:7283)" filter="url(#filter0_f_375:7283)">
<path d="M116.205 153.714C112.668 156.962 107.045 156.724 103.782 153.165L1.86725 42.0432C-0.0574248 39.9438 1.33067 37.0015 4.89074 35.4813L84.4066 1.56045C86.7815 0.546986 90.2576 0.946302 92.1986 2.45016L189.221 77.5846C192.149 79.8521 192.869 83.2661 190.765 85.1996L116.205 153.714Z" fill="url(#paint0_linear_375:7283)"/>
<path d="M190.21 84.763L115.589 153.06C112.412 155.967 107.389 155.752 104.459 152.565L2.54438 41.7466C0.813343 39.8645 2.04747 37.228 5.24592 35.8596L84.7641 1.84069C86.8987 0.927639 90.0179 1.28492 91.7652 2.63933L188.832 77.9256C191.466 79.9689 192.105 83.028 190.21 84.763Z" fill="url(#paint1_linear_375:7283)"/>
<path d="M26.317 41.861C27.1312 42.2113 27.7027 42.1202 28.048 41.9754L28.2416 42.1716C27.7844 42.3561 27.1008 42.6596 26.4873 42.9469C25.6521 43.3368 24.8845 43.7081 24.4413 43.9416L24.2477 43.7432C25.0152 43.3579 25.3091 43.115 25.0385 42.8394C24.9242 42.7227 24.7142 42.6036 24.397 42.4635L21.8214 41.3052L17.8601 43.115L18.1937 44.4881C18.2987 44.9434 18.4526 45.2634 18.6486 45.4689C19.0685 45.9079 19.7101 45.8308 20.6736 45.4058L20.8672 45.609C20.2163 45.8845 19.5095 46.1998 18.9216 46.473C18.357 46.7345 18.0164 46.9097 17.6991 47.0871L17.5055 46.8816C17.8834 46.6201 18.1797 46.1741 17.9837 45.3871L16.129 37.6367L16.3927 37.5199L26.317 41.861ZM16.8592 39.0658L17.7924 42.8605L21.5134 41.1628L16.8592 39.0658Z" fill="#212121"/>
<path d="M28.601 46.7532C26.1047 46.8886 24.544 46.16 24.544 46.16C24.544 46.16 24.9289 47.4467 23.8068 49.0393C21.6162 52.1451 26.9073 54.1324 28.79 50.6599C29.2752 51.5893 28.7013 52.033 28.454 52.1708L29.7441 51.5403L31.0249 50.9121C30.759 51.0242 29.9774 51.2461 28.9323 50.5922C34.0904 50.5969 33.3462 46.494 28.601 46.7532Z" fill="#212121"/>
<path d="M28.4563 52.1708L28.356 52.2199C28.356 52.2199 28.3956 52.2035 28.4563 52.1708Z" fill="#212121"/>
<path d="M31.1252 50.8631L31.0272 50.9121C31.0902 50.8841 31.1252 50.8631 31.1252 50.8631Z" fill="#212121"/>
<path d="M179.946 83.4295L179.775 83.579L168.894 79.0043C167.828 78.5513 167.219 78.5887 166.855 78.7568L166.585 78.5373C166.83 78.3785 167.075 78.201 167.441 77.8998C167.824 77.5869 168.267 77.2016 168.654 76.8443L168.925 77.0615C168.325 77.5845 168.206 78.0166 168.796 78.4906C169.074 78.7148 169.51 78.953 170.131 79.2122L172.023 80.0085L174.598 77.8484L173.021 75.5343C172.832 75.2517 172.671 75.0555 172.513 74.9294C172.137 74.6329 171.801 74.7496 171.262 75.149L170.994 74.9341C171.321 74.7099 171.841 74.3036 172.389 73.8576C172.79 73.5307 173.217 73.1594 173.476 72.9048L173.745 73.1173C173.539 73.3088 173.406 73.6801 173.878 74.3924L179.946 83.4295ZM174.79 78.1286L172.373 80.1602L177.718 82.4207L174.79 78.1286Z" fill="#212121"/>
<path d="M167.289 70.9666C167.049 72.655 167.989 74.0211 167.989 74.0211C167.989 74.0211 166.277 73.2691 164.14 73.4653C160.02 73.8413 157.671 69.5118 162.176 69.4464C160.993 68.7926 160.407 69.0285 160.223 69.1452L161.075 68.4914L161.921 67.8398C161.767 67.98 161.457 68.433 162.269 69.3717C162.421 65.8876 167.742 67.7931 167.289 70.9666Z" fill="#212121"/>
<path d="M160.223 69.1475L160.158 69.1989C160.158 69.1989 160.179 69.1755 160.223 69.1475Z" fill="#212121"/>
<path d="M161.987 67.7932L161.921 67.8445C161.959 67.8072 161.987 67.7932 161.987 67.7932Z" fill="#212121"/>
<path d="M99.8162 52.4674C91.6603 52.9928 85.9213 50.4171 85.9213 50.4171C85.9213 50.4171 88.1539 55.0198 85.52 60.8951C80.1426 72.8979 100.406 80.5036 103.817 66.7937C106.316 70.3245 104.753 72.0666 104.032 72.613L107.867 70.1027L111.619 67.6484C110.83 68.0898 108.39 68.9701 104.237 66.5252C121.564 66.3267 115.062 51.4866 99.8162 52.4674Z" fill="#212121"/>
</g>
<defs>
<filter id="filter0_f_375:7283" x="0" y="0" width="192.974" height="157" filterUnits="userSpaceOnUse" color-interpolation-filters="sRGB">
<feFlood flood-opacity="0" result="BackgroundImageFix"/>
<feBlend mode="normal" in="SourceGraphic" in2="BackgroundImageFix" result="shape"/>
<feGaussianBlur stdDeviation="0.5" result="effect1_foregroundBlur_375:7283"/>
</filter>
<linearGradient id="paint0_linear_375:7283" x1="83.4646" y1="-43.6462" x2="106.846" y2="144.138" gradientUnits="userSpaceOnUse">
<stop stop-color="white"/>
<stop offset="1" stop-color="#D1D1D1"/>
</linearGradient>
<linearGradient id="paint1_linear_375:7283" x1="27.9085" y1="75.1845" x2="350.372" y2="88.9553" gradientUnits="userSpaceOnUse">
<stop stop-color="white"/>
<stop offset="0.998" stop-color="#BABABA"/>
</linearGradient>
<clipPath id="clip0_375:7283">
<rect width="190.974" height="155" fill="white" transform="translate(1 1)"/>
</clipPath>
</defs>
</svg>
