<svg width="87" height="89" viewBox="0 0 87 89" fill="none" xmlns="http://www.w3.org/2000/svg">
<path d="M21.8601 56.6051C22.7852 57.7876 23.7618 58.9494 24.7681 60.062L24.9122 60.3548L24.8665 60.4691C24.7853 60.5469 24.5909 60.4691 24.4548 60.3228C23.4153 59.1792 22.4159 57.99 21.4816 56.7778C21.4191 56.7074 21.3792 56.6197 21.3673 56.5262C21.3625 56.499 21.3667 56.471 21.379 56.4464C21.3913 56.4217 21.4113 56.4016 21.4359 56.389C21.5376 56.3364 21.7332 56.4325 21.8601 56.6051Z" fill="#CBC7C7"/>
<path d="M31.5 66.6566L31.4943 66.7378C31.4474 66.8441 31.277 66.8281 31.1215 66.6977C29.9539 65.7326 28.7944 64.7068 27.684 63.6422C27.588 63.558 27.5249 63.4426 27.5056 63.3163C27.5013 63.2798 27.5111 63.2429 27.5331 63.2134C27.6017 63.1196 27.7732 63.1551 27.9299 63.3049C29.0174 64.3478 30.1449 65.3564 31.2896 66.2998C31.4031 66.3872 31.4785 66.515 31.5 66.6566V66.6566Z" fill="#CBC7C7"/>
<path d="M38.6402 71.6813C38.6402 71.8209 38.5019 71.8609 38.3269 71.758C37.1216 71.0535 35.89 70.2611 34.687 69.4183C34.6201 69.375 34.5623 69.3188 34.5172 69.2531C34.4721 69.1873 34.4404 69.1133 34.424 69.0352C34.4224 69.0167 34.4243 68.9981 34.4297 68.9803C34.4537 68.8522 34.6116 68.8442 34.7728 68.9609C35.9529 69.7819 37.141 70.5515 38.3246 71.2479C38.4043 71.2929 38.4733 71.3547 38.5268 71.4289C38.5803 71.5031 38.617 71.5881 38.6345 71.6779L38.6402 71.6813Z" fill="#CBC7C7"/>
<path d="M41.8891 73.1165C43.0312 73.6596 44.2015 74.141 45.3952 74.5585C45.4821 74.5939 45.5604 74.6477 45.6245 74.7162C45.6887 74.7847 45.7372 74.8662 45.7668 74.9553L45.7817 75.0194C45.7886 75.1451 45.6971 75.208 45.553 75.152C44.3352 74.7278 43.1404 74.24 41.9738 73.6906C41.8887 73.6489 41.8138 73.5889 41.7545 73.515C41.6952 73.4411 41.6529 73.355 41.6307 73.2629C41.6266 73.2456 41.6239 73.228 41.6227 73.2103C41.6215 73.0639 41.7416 73.0456 41.8891 73.1165Z" fill="#CBC7C7"/>
<path d="M48.7628 75.5213C49.8113 75.752 50.8754 75.9049 51.9464 75.9787C52.0382 75.9999 52.124 76.0419 52.1971 76.1014C52.2702 76.1608 52.3288 76.2362 52.3684 76.3217L52.4084 76.4647L52.2563 76.6099C51.1599 76.5347 50.0708 76.3764 48.9984 76.1365C48.9096 76.1077 48.8283 76.0595 48.7605 75.9954C48.6927 75.9314 48.6399 75.853 48.6061 75.766C48.5913 75.7322 48.5821 75.6963 48.5787 75.6596C48.5741 75.5533 48.6473 75.4961 48.7628 75.5213Z" fill="#CBC7C7"/>
<path d="M54.8785 75.9433C55.7729 75.855 56.6565 75.6792 57.5166 75.4184C57.631 75.3761 57.8162 75.4859 57.9431 75.6562L58.0403 75.8849L57.9534 76.0256C57.0766 76.2969 56.1754 76.4822 55.2627 76.5791C55.1727 76.5674 55.0867 76.5344 55.0119 76.4829C54.9372 76.4314 54.8757 76.3629 54.8327 76.2829C54.7959 76.227 54.7731 76.1631 54.7664 76.0965C54.7633 76.079 54.7638 76.0611 54.7678 76.0439C54.7718 76.0266 54.7793 76.0103 54.7898 75.996C54.8002 75.9817 54.8135 75.9696 54.8287 75.9606C54.844 75.9515 54.8609 75.9456 54.8785 75.9433V75.9433Z" fill="#CBC7C7"/>
<path d="M15.0709 24.8709L15.0355 24.9853C14.4895 25.5917 14.0191 26.2621 13.6346 26.9819C13.5877 27.0871 13.4059 27.0551 13.2493 26.9156C13.1433 26.829 13.0719 26.7073 13.048 26.5725C13.045 26.5417 13.0509 26.5108 13.0652 26.4833C13.4548 25.744 13.9353 25.0564 14.4957 24.4364C14.5758 24.3575 14.7587 24.409 14.9051 24.5633L15.0709 24.8709Z" fill="#CBC7C7"/>
<path d="M61.7065 72.9106C61.7865 72.8317 61.9706 72.8934 62.117 73.0467L62.2725 73.3554L62.2359 73.4698C61.6572 74.0562 61.0067 74.5672 60.2999 74.9907C60.197 75.049 60.0015 74.9621 59.8654 74.7951C59.7992 74.7213 59.757 74.6292 59.7442 74.531C59.7405 74.5052 59.7437 74.4789 59.7535 74.4547C59.7634 74.4306 59.7795 74.4096 59.8002 74.3937C60.5 73.9881 61.1413 73.4892 61.7065 72.9106Z" fill="#CBC7C7"/>
<path d="M19.1762 22.1846L19.0996 22.3207C18.3178 22.6021 17.5711 22.9727 16.8743 23.4254C16.7713 23.4825 16.5872 23.4025 16.4512 23.2447C16.3812 23.1672 16.3365 23.0703 16.3231 22.9668C16.3196 22.9426 16.3225 22.918 16.3316 22.8953C16.3406 22.8726 16.3554 22.8527 16.3745 22.8376C17.0841 22.3705 17.8489 21.9933 18.6513 21.7146C18.7657 21.6735 18.9623 21.7787 19.0778 21.9433L19.1762 22.1846Z" fill="#CBC7C7"/>
<path d="M64.1856 68.6407C64.2211 68.5195 64.3914 68.5355 64.547 68.6567C64.6106 68.6995 64.6649 68.7547 64.7067 68.8189C64.7486 68.8831 64.7771 68.9551 64.7905 69.0306L64.7837 69.1027C64.5286 69.9397 64.1799 70.7452 63.7442 71.5041C63.687 71.6047 63.5155 71.5693 63.3485 71.4229C63.2451 71.3384 63.1767 71.2187 63.1564 71.0867C63.1533 71.0543 63.1596 71.0217 63.1747 70.9929C63.6002 70.2499 63.9394 69.4607 64.1856 68.6407V68.6407Z" fill="#CBC7C7"/>
<path d="M24.7166 21.4552L24.5657 21.5993C23.6026 21.5602 22.638 21.6008 21.6817 21.7205C21.5547 21.7376 21.3569 21.6061 21.2517 21.4335C21.2133 21.3756 21.1894 21.3093 21.1819 21.2402C21.1785 21.2228 21.1788 21.2048 21.1828 21.1875C21.1869 21.1702 21.1946 21.154 21.2054 21.1399C21.2162 21.1259 21.23 21.1143 21.2456 21.1059C21.2613 21.0976 21.2786 21.0927 21.2963 21.0915C22.2723 20.9687 23.2568 20.927 24.2398 20.9669C24.3297 20.9877 24.414 21.0279 24.4867 21.0848C24.5594 21.1417 24.6188 21.2139 24.6606 21.2962L24.7166 21.4552Z" fill="#CBC7C7"/>
<path d="M64.7002 61.8813C64.6922 61.7361 64.8043 61.6743 64.9678 61.7532C65.0522 61.7927 65.1262 61.8514 65.1838 61.9247C65.2414 61.998 65.281 62.0838 65.2994 62.1752C65.3406 62.5354 65.3726 62.8887 65.3921 63.2375V63.3153C65.4459 64.3189 65.4218 65.3252 65.32 66.325C65.3063 66.4588 65.1588 66.4829 64.9941 66.3754C64.9194 66.3283 64.8557 66.2656 64.8075 66.1916C64.7594 66.1175 64.7278 66.0339 64.7151 65.9465C64.7145 65.9393 64.7145 65.932 64.7151 65.9248C64.8155 64.9485 64.8377 63.9658 64.7814 62.9859V62.9093C64.7608 62.5697 64.73 62.2255 64.7002 61.8813Z" fill="#CBC7C7"/>
<path d="M63.0685 54.9159C63.0685 54.8015 63.1382 54.7398 63.2675 54.7798C63.3555 54.8096 63.4361 54.8581 63.5038 54.9218C63.5714 54.9855 63.6246 55.0631 63.6597 55.1491C64.0768 56.3336 64.4318 57.539 64.7232 58.7604V58.8084C64.73 58.9342 64.6386 58.9971 64.4865 58.9354C64.4005 58.899 64.3237 58.8442 64.2612 58.7748C64.1988 58.7055 64.1523 58.6233 64.1251 58.534C63.8421 57.3423 63.4955 56.1666 63.0868 55.0119C63.0764 54.9809 63.0703 54.9486 63.0685 54.9159V54.9159Z" fill="#CBC7C7"/>
<path d="M34.4492 23.6508C35.3297 24.0476 36.2354 24.4959 37.1422 24.983L37.2291 25.0299C37.5127 25.1831 37.8009 25.3455 38.0822 25.5067C38.1624 25.5485 38.2319 25.6081 38.2856 25.6808C38.3393 25.7535 38.3758 25.8375 38.3921 25.9264V25.9367C38.3921 26.0854 38.2652 26.1311 38.0902 26.0282C37.8158 25.8715 37.5322 25.7183 37.2474 25.5708L37.156 25.2586L37.172 25.5296C36.2869 25.0551 35.4041 24.6148 34.5338 24.226C34.4498 24.1855 34.3756 24.1272 34.3163 24.0551C34.2571 23.983 34.2142 23.8989 34.1908 23.8086C34.187 23.7928 34.1847 23.7768 34.1839 23.7606C34.1782 23.6291 34.2937 23.5833 34.4492 23.6508Z" fill="#CBC7C7"/>
<path d="M59.6069 47.5003C59.6069 47.4145 59.6435 47.355 59.7304 47.355C59.8665 47.3436 60.0552 47.482 60.149 47.6455C60.8774 48.9091 61.5429 50.1761 62.1227 51.426L62.1627 51.5598C62.1657 51.5811 62.1634 51.6028 62.1561 51.623C62.1488 51.6433 62.1367 51.6614 62.1209 51.6759C62.105 51.6905 62.0859 51.7009 62.0651 51.7064C62.0443 51.7118 62.0224 51.7122 62.0015 51.7073C61.911 51.6859 61.8267 51.6438 61.7553 51.5843C61.6838 51.5247 61.6272 51.4494 61.5898 51.3643C61.018 50.1498 60.3697 48.9079 59.663 47.6752C59.6317 47.6217 59.6126 47.562 59.6069 47.5003V47.5003Z" fill="#CBC7C7"/>
<path d="M41.3927 27.8085C41.4179 27.6816 41.5654 27.6667 41.7301 27.7742C42.9308 28.5976 44.1372 29.4895 45.3139 30.4387C45.4358 30.5269 45.518 30.6596 45.5426 30.808L45.5243 30.8743C45.4889 30.9956 45.3185 30.9796 45.1641 30.8583C44.0091 29.9287 42.8256 29.0493 41.6569 28.2534C41.5877 28.2092 41.5285 28.1512 41.483 28.0828C41.4375 28.0145 41.4068 27.9374 41.3927 27.8566C41.3911 27.8406 41.3911 27.8245 41.3927 27.8085Z" fill="#CBC7C7"/>
<path d="M54.5755 40.1725C54.5709 40.1455 54.5748 40.1179 54.5867 40.0933C54.5986 40.0687 54.6178 40.0484 54.6418 40.0352C54.7436 39.9781 54.9288 40.0673 55.066 40.2354C55.5909 40.8917 56.1169 41.5779 56.6109 42.2457C57.0123 42.8003 57.4046 43.348 57.7853 43.8992L57.8711 44.1142L57.7739 44.2594C57.6596 44.2915 57.4617 44.176 57.3462 44.0113C56.9769 43.475 56.5961 42.9329 56.2027 42.4046C55.7098 41.7357 55.2055 41.0713 54.6807 40.424C54.622 40.3521 54.5855 40.2647 54.5755 40.1725V40.1725Z" fill="#CBC7C7"/>
<path d="M48.381 33.3536C48.4393 33.253 48.6211 33.2941 48.7789 33.4439C49.8973 34.4857 50.9985 35.5926 52.0483 36.7293L52.1923 37.0221L52.1569 37.1433C52.0769 37.2222 51.8825 37.1558 51.7349 36.9923C50.7058 35.8877 49.64 34.8082 48.5433 33.7904C48.4438 33.7044 48.3774 33.5863 48.3558 33.4565C48.3515 33.4203 48.3604 33.3837 48.381 33.3536V33.3536Z" fill="#CBC7C7"/>
<path d="M12.6981 29.3192L12.6912 29.381C12.4535 30.2823 12.2999 31.2037 12.2327 32.1335C12.2189 32.2661 12.0726 32.2901 11.9079 32.1929C11.8327 32.149 11.7679 32.0894 11.7177 32.0181C11.6676 31.9469 11.6334 31.8657 11.6174 31.7801C11.6163 31.7691 11.6163 31.758 11.6174 31.7469C11.6919 30.7962 11.8511 29.854 12.0931 28.9316C12.1286 28.8104 12.2875 28.8115 12.4534 28.9384C12.5182 28.9816 12.5734 29.0377 12.6155 29.1032C12.6576 29.1688 12.6857 29.2423 12.6981 29.3192Z" fill="#CBC7C7"/>
<path d="M31.2712 22.7232C31.2792 22.849 31.1866 22.9027 31.0574 22.8604C29.9607 22.5027 28.8438 22.2102 27.7126 21.9845C27.6227 21.9571 27.54 21.9101 27.4706 21.8468C27.4012 21.7835 27.3467 21.7055 27.3112 21.6186C27.2946 21.5825 27.2845 21.5438 27.2815 21.5042C27.2757 21.399 27.3444 21.3395 27.4656 21.3624C28.6229 21.5901 29.7648 21.8899 30.8847 22.2601C30.9728 22.2938 31.0521 22.347 31.1167 22.4157C31.1812 22.4844 31.2294 22.5669 31.2575 22.6569L31.2712 22.7232Z" fill="#CBC7C7"/>
<path d="M17.0069 49.3253C17.693 50.5558 18.45 51.7885 19.2608 53.0029L19.3363 53.2122L19.2379 53.3563C19.1121 53.3837 18.9257 53.2739 18.8102 53.099C17.988 51.8605 17.2093 50.5832 16.5094 49.3402C16.478 49.2866 16.4585 49.227 16.4523 49.1652C16.4523 49.0783 16.4889 49.02 16.5758 49.0188C16.713 49.0086 16.9005 49.1469 17.0069 49.3253Z" fill="#CBC7C7"/>
<path d="M13.3269 41.6362C13.4156 41.6679 13.4964 41.7182 13.5641 41.7837C13.6317 41.8491 13.6846 41.9283 13.7192 42.0159C14.1325 43.2479 14.6081 44.4582 15.144 45.642L15.1829 45.7758C15.1829 45.873 15.1291 45.9347 15.0114 45.9187C14.9211 45.8934 14.8375 45.8487 14.7664 45.7876C14.6953 45.7266 14.6384 45.6507 14.5997 45.5654C14.0416 44.3281 13.5568 43.0828 13.1371 41.8546C13.1288 41.8283 13.1238 41.801 13.1222 41.7734C13.1154 41.6557 13.1931 41.5962 13.3269 41.6362Z" fill="#CBC7C7"/>
<path d="M11.9183 34.7728C12.002 34.8157 12.0751 34.8767 12.1325 34.9512C12.1898 35.0257 12.2299 35.112 12.2499 35.2039C12.3409 36.3192 12.5067 37.4271 12.7462 38.5202V38.559C12.7531 38.6848 12.6502 38.742 12.5095 38.6848C12.4216 38.6488 12.3432 38.5931 12.2804 38.5219C12.2175 38.4507 12.1719 38.366 12.147 38.2743C11.9075 37.1564 11.7368 36.0248 11.6359 34.886C11.6404 34.7271 11.7548 34.6848 11.9183 34.7728Z" fill="#CBC7C7"/>
<path d="M13.6416 35.4497C12.9886 23.2688 23.6166 19.4402 37.3218 26.8297C43.9555 30.4181 50.3124 36.0614 55.241 42.7488C60.133 49.3996 63.017 56.2859 63.3486 62.1408C63.6665 68.0803 61.3806 72.2039 56.9071 73.814C52.4336 75.4241 46.31 74.3469 39.6775 70.7665C25.9963 63.393 14.3323 47.5608 13.6416 35.4497Z" fill="#EBEBEB"/>
<path d="M47.5873 22.035L44.948 29.062C49.5195 32.6507 53.6032 36.8205 57.0957 41.4659L63.6848 38.5018C69.1669 45.729 73.3042 53.4821 75.4208 60.8545L65.4298 57.4136C66.0803 59.522 66.4821 61.6991 66.6271 63.9008C66.7414 65.9912 66.5653 67.8449 66.1411 69.4938L76.3311 76.8673C74.8982 82.4603 71.3579 86.1299 66.332 87.7023L59.0203 77.247C55.8996 78.2647 51.9761 78.1847 47.5175 76.8879L51.0968 87.2723C47.6948 86.3186 44.0823 84.8297 40.3121 82.7954C36.4697 80.7011 32.8158 78.2781 29.3914 75.5534L32.0318 68.5367C27.47 64.9499 23.3939 60.7854 19.9058 56.1477L13.3053 59.0957C7.80724 51.8446 3.65622 44.0262 1.54755 36.6173L11.5214 40.0765C10.899 38.0159 10.5153 35.8906 10.3779 33.7425C10.2533 31.5423 10.4442 29.6841 10.8913 28.0568L0.69104 20.6387C2.1033 15.1212 5.63453 11.4722 10.6718 9.90784L17.9835 20.3631C21.1031 19.334 25.0265 19.4163 29.4646 20.7062L25.8853 10.3218C29.2873 11.2949 32.8986 12.7644 36.6688 14.7987C40.5123 16.888 44.1656 19.3093 47.5873 22.035V22.035ZM55.2409 42.7489C50.3123 36.0615 43.9554 30.4182 37.3218 26.8344C23.6166 19.4403 12.9886 23.2734 13.637 35.3869C14.3322 47.5609 25.9963 63.3931 39.6775 70.7666C46.3099 74.347 52.4324 75.4276 56.9059 73.8141C61.3794 72.2006 63.6665 68.0804 63.3486 62.2084C63.0112 56.286 60.1295 49.4008 55.2375 42.7489H55.2409ZM55.0625 40.2332C54.9253 40.0651 54.7401 39.9759 54.6383 40.033C54.6144 40.0462 54.5951 40.0665 54.5832 40.0911C54.5713 40.1156 54.5674 40.1433 54.572 40.1703C54.5846 40.2635 54.6244 40.351 54.6863 40.4218C55.2112 41.0691 55.7155 41.7335 56.2084 42.4024C56.5983 42.9307 56.9791 43.4728 57.3519 44.0091C57.4662 44.1738 57.6652 44.2893 57.7796 44.2572L57.8768 44.112L57.791 43.897C57.4102 43.3458 57.018 42.7981 56.6166 42.2435C56.1226 41.5757 55.5966 40.8895 55.0717 40.2332H55.0625ZM16.4512 23.2471C16.5873 23.4049 16.7714 23.485 16.8743 23.4278C17.5711 22.9752 18.3178 22.6045 19.0996 22.3232L19.1762 22.1871L19.0779 21.9458C18.9635 21.7811 18.7657 21.6759 18.6513 21.7171C17.8489 21.9958 17.0841 22.373 16.3746 22.84C16.3554 22.8552 16.3406 22.8751 16.3316 22.8978C16.3226 22.9205 16.3196 22.9451 16.3231 22.9693C16.3366 23.0727 16.3813 23.1697 16.4512 23.2471ZM57.9442 75.6563C57.8173 75.4859 57.6309 75.3762 57.5177 75.4185C56.6572 75.6793 55.7732 75.8551 54.8784 75.9434C54.8604 75.9454 54.843 75.9511 54.8273 75.9602C54.8116 75.9693 54.798 75.9815 54.7873 75.9961C54.7765 76.0107 54.7689 76.0274 54.7649 76.0451C54.7609 76.0628 54.7607 76.0811 54.7641 76.0989C54.7708 76.1655 54.7936 76.2294 54.8304 76.2853C54.8734 76.3652 54.9348 76.4338 55.0096 76.4853C55.0844 76.5368 55.1703 76.5698 55.2604 76.5814C56.1731 76.4846 57.0742 76.2992 57.9511 76.028L58.038 75.8873L57.9408 75.6586L57.9442 75.6563ZM24.4548 60.3227C24.5909 60.4714 24.7853 60.5514 24.8664 60.4691L24.9122 60.3547L24.7681 60.062C23.7618 58.9493 22.7852 57.7875 21.8601 56.6051C21.7332 56.4347 21.5376 56.3387 21.4347 56.3958C21.4101 56.4084 21.3902 56.4285 21.3778 56.4532C21.3655 56.4779 21.3614 56.5058 21.3661 56.5331C21.3781 56.6265 21.4179 56.7142 21.4804 56.7846C22.4181 57.9922 23.4176 59.1758 24.4536 60.3296L24.4548 60.3227ZM18.8092 53.1059C18.9235 53.2808 19.111 53.3906 19.2368 53.3632L19.3352 53.2191L19.2597 53.0098C18.4489 51.7954 17.6896 50.5627 17.0058 49.3322C16.8995 49.1538 16.7119 49.0155 16.5747 49.0258C16.4878 49.0258 16.4466 49.0852 16.4512 49.1721C16.4575 49.2339 16.477 49.2936 16.5084 49.3471C17.2048 50.5936 17.987 51.8629 18.8092 53.1059ZM62.117 73.0468C61.9706 72.8936 61.7865 72.8318 61.7065 72.9107C61.1422 73.4883 60.5021 73.9864 59.8036 74.3916C59.7829 74.4074 59.7668 74.4285 59.7569 74.4526C59.7471 74.4767 59.7439 74.503 59.7476 74.5288C59.7604 74.6271 59.8026 74.7192 59.8688 74.793C60.0049 74.9599 60.2004 75.0468 60.3033 74.9885C61.0101 74.5651 61.6606 74.054 62.2393 73.4676L62.2759 73.3533L62.1204 73.0445L62.117 73.0468ZM21.2517 21.4335C21.3569 21.6027 21.5548 21.7377 21.6817 21.7205C22.6381 21.6008 23.6027 21.5603 24.5657 21.5993L24.7166 21.4552L24.6652 21.2963C24.6234 21.2139 24.5641 21.1418 24.4913 21.0849C24.4186 21.028 24.3343 20.9877 24.2444 20.9669C23.2599 20.9268 22.2739 20.9685 21.2963 21.0916C21.2786 21.0927 21.2613 21.0976 21.2457 21.106C21.23 21.1143 21.2163 21.1259 21.2054 21.14C21.1946 21.154 21.1869 21.1703 21.1829 21.1876C21.1788 21.2049 21.1785 21.2228 21.182 21.2402C21.1894 21.3093 21.2133 21.3756 21.2517 21.4335V21.4335ZM48.7788 33.4406C48.621 33.2908 48.4358 33.2496 48.3809 33.3502C48.3609 33.3798 48.352 33.4154 48.3557 33.4509C48.3774 33.5806 48.4437 33.6988 48.5433 33.7848C49.6399 34.8048 50.708 35.8843 51.7349 36.9867C51.8824 37.1502 52.0779 37.2154 52.1568 37.1376L52.1923 37.0164L52.0482 36.7237C50.9984 35.587 49.8972 34.48 48.7788 33.4383V33.4406ZM60.1467 47.6455C60.0529 47.482 59.8642 47.3436 59.7282 47.3551C59.6412 47.3551 59.6001 47.4145 59.6046 47.5003C59.6103 47.562 59.6294 47.6217 59.6607 47.6753C60.3674 48.908 61.0203 50.1499 61.5875 51.3643C61.6249 51.4495 61.6815 51.5248 61.753 51.5843C61.8244 51.6438 61.9087 51.686 61.9992 51.7074C62.0202 51.7122 62.042 51.7119 62.0628 51.7064C62.0836 51.7009 62.1027 51.6905 62.1186 51.676C62.1345 51.6615 62.1466 51.6433 62.1538 51.6231C62.1611 51.6028 62.1634 51.5811 62.1604 51.5598L62.1204 51.426C61.5406 50.1762 60.8751 48.9103 60.1467 47.6455V47.6455ZM13.2493 26.9133C13.406 27.0528 13.5924 27.0848 13.6347 26.9796C14.0191 26.2599 14.4895 25.5894 15.0355 24.983L15.071 24.8687L14.9051 24.5542C14.7588 24.3998 14.5758 24.3484 14.4958 24.4273C13.9354 25.0472 13.4548 25.7349 13.0652 26.4742C13.051 26.5016 13.045 26.5326 13.048 26.5634C13.0719 26.6981 13.1433 26.8199 13.2493 26.9064V26.9133ZM52.3707 76.3219C52.3311 76.2363 52.2725 76.1609 52.1994 76.1015C52.1263 76.042 52.0405 76.0001 51.9487 75.9788C50.8777 75.905 49.8136 75.7521 48.7651 75.5214C48.6508 75.4962 48.5764 75.5534 48.5821 75.6598C48.5855 75.6965 48.5948 75.7324 48.6096 75.7661C48.6434 75.8531 48.6961 75.9315 48.764 75.9956C48.8318 76.0596 48.9131 76.1078 49.0018 76.1366C50.0731 76.3764 51.1611 76.5346 52.2563 76.61L52.4073 76.4648L52.3672 76.3219H52.3707ZM31.1204 66.6979C31.2759 66.8283 31.4463 66.8443 31.4932 66.7379L31.4989 66.6567C31.4774 66.5151 31.402 66.3873 31.2885 66.3C30.145 65.3565 29.0163 64.3479 27.9288 63.305C27.7722 63.1552 27.6006 63.1198 27.532 63.2136C27.5101 63.2431 27.5002 63.2799 27.5046 63.3165C27.5238 63.4427 27.587 63.5582 27.683 63.6424C28.7933 64.707 29.9529 65.7328 31.1204 66.6979ZM14.5998 45.5654C14.6385 45.6508 14.6954 45.7266 14.7665 45.7877C14.8377 45.8487 14.9213 45.8935 15.0115 45.9188C15.1258 45.9348 15.1887 45.873 15.183 45.7758L15.1441 45.6421C14.6082 44.4582 14.1326 43.2479 13.7193 42.0159C13.6847 41.9284 13.6318 41.8492 13.5642 41.7837C13.4966 41.7182 13.4157 41.668 13.3271 41.6363C13.1933 41.5962 13.1155 41.6557 13.1224 41.7735C13.1239 41.8011 13.1289 41.8283 13.1372 41.8547C13.5569 43.0828 14.0418 44.3281 14.5998 45.5654ZM64.547 68.6568C64.3915 68.5356 64.2211 68.5195 64.1856 68.6408C63.9391 69.4592 63.5999 70.2469 63.1747 70.9884C63.1596 71.0172 63.1533 71.0498 63.1565 71.0822C63.1767 71.2142 63.2452 71.334 63.3486 71.4184C63.5155 71.5648 63.6916 71.6002 63.7442 71.4996C64.1799 70.7407 64.5286 69.9352 64.7837 69.0982L64.7906 69.0261C64.7771 68.9507 64.7486 68.8787 64.7068 68.8144C64.6649 68.7502 64.6106 68.695 64.547 68.6522V68.6568ZM27.3113 21.6187C27.3468 21.7057 27.4013 21.7837 27.4707 21.847C27.5401 21.9103 27.6228 21.9573 27.7127 21.9847C28.8439 22.2104 29.9608 22.5029 31.0575 22.8606C31.1867 22.9029 31.2794 22.8492 31.2714 22.7234L31.2576 22.6594C31.2295 22.5694 31.1813 22.4869 31.1168 22.4182C31.0522 22.3495 30.9729 22.2962 30.8848 22.2626C29.765 21.8923 28.623 21.5925 27.4657 21.3649C27.3445 21.342 27.2759 21.4015 27.2816 21.5067C27.2846 21.5463 27.2947 21.585 27.3113 21.621V21.6187ZM41.729 27.7767C41.5643 27.6692 41.4168 27.684 41.3916 27.811C41.3899 27.8269 41.3899 27.843 41.3916 27.859C41.4064 27.9404 41.4382 28.0179 41.4849 28.0862C41.5316 28.1546 41.5922 28.2124 41.6626 28.2558C42.8313 29.0563 44.0149 29.9311 45.1698 30.8608C45.3242 30.982 45.4946 30.998 45.5301 30.8768L45.5484 30.8105C45.5237 30.662 45.4415 30.5293 45.3196 30.4411C44.143 29.4908 42.9365 28.6 41.7358 27.7767H41.729ZM63.6596 55.1494C63.6245 55.0633 63.5714 54.9858 63.5037 54.922C63.436 54.8583 63.3554 54.8099 63.2674 54.78C63.1382 54.74 63.0627 54.8006 63.0684 54.9161C63.0713 54.9489 63.0786 54.9813 63.0901 55.0122C63.4989 56.1668 63.8455 57.3425 64.1285 58.5342C64.1557 58.6235 64.2021 58.7057 64.2646 58.775C64.327 58.8444 64.4039 58.8992 64.4898 58.9356C64.6419 58.9974 64.7334 58.9356 64.7265 58.8087V58.7606C64.4351 57.5392 64.0802 56.3338 63.663 55.1494H63.6596ZM11.9091 32.1976C12.0738 32.2948 12.2201 32.2707 12.2338 32.1381C12.3005 31.2069 12.4536 30.2839 12.6913 29.381L12.6981 29.3193C12.6862 29.2418 12.6583 29.1676 12.6162 29.1014C12.5741 29.0353 12.5186 28.9786 12.4534 28.9351C12.2876 28.8081 12.1286 28.807 12.0932 28.9282C11.8511 29.8533 11.6922 30.7982 11.6186 31.7516C11.6175 31.7626 11.6175 31.7737 11.6186 31.7847C11.6346 31.8704 11.6688 31.9515 11.7189 32.0228C11.769 32.094 11.8339 32.1536 11.9091 32.1976V32.1976ZM45.7645 74.9531C45.7348 74.8646 45.6865 74.7836 45.6228 74.7156C45.559 74.6475 45.4814 74.5939 45.3951 74.5585C44.2023 74.1417 43.0327 73.6611 41.8913 73.1188C41.7438 73.0479 41.6192 73.0662 41.6272 73.2103C41.6284 73.228 41.6311 73.2456 41.6352 73.2629C41.6574 73.355 41.6997 73.4411 41.759 73.515C41.8183 73.5889 41.8932 73.6489 41.9782 73.6906C43.1449 74.24 44.3397 74.7278 45.5575 75.152C45.6982 75.2081 45.7862 75.1452 45.7862 75.0194L45.7713 74.9553L45.7645 74.9531ZM65.2994 62.1752C65.281 62.0839 65.2414 61.9981 65.1838 61.9248C65.1262 61.8515 65.0522 61.7928 64.9678 61.7533C64.8043 61.6744 64.6922 61.7361 64.7002 61.8814C64.73 62.2244 64.7608 62.5675 64.7803 62.9105V62.9871C64.8365 63.967 64.8144 64.9497 64.7139 65.926C64.7134 65.9333 64.7134 65.9405 64.7139 65.9477C64.7267 66.0352 64.7582 66.1188 64.8064 66.1928C64.8546 66.2668 64.9182 66.3295 64.993 66.3766C65.1576 66.4841 65.3051 66.4601 65.3189 66.3263C65.4207 65.3264 65.4448 64.3201 65.3909 63.3165V63.2387C65.3715 62.8957 65.3395 62.5366 65.2983 62.1764L65.2994 62.1752ZM38.3258 71.7592C38.5008 71.8621 38.6369 71.8221 38.6391 71.6826V71.6734C38.6217 71.5836 38.5849 71.4986 38.5314 71.4244C38.4779 71.3502 38.4089 71.2884 38.3292 71.2434C37.1457 70.5573 35.9576 69.7832 34.7774 68.9564C34.6116 68.842 34.4538 68.8477 34.4344 68.9758C34.429 68.9936 34.427 69.0122 34.4287 69.0307C34.445 69.1088 34.4767 69.1828 34.5218 69.2486C34.567 69.3143 34.6247 69.3705 34.6917 69.4138C35.8947 70.2566 37.1262 71.049 38.3315 71.7535L38.3258 71.7592ZM12.1492 38.2743C12.1741 38.3659 12.2197 38.4507 12.2826 38.5218C12.3454 38.593 12.4238 38.6488 12.5117 38.6848C12.6524 38.742 12.7553 38.6848 12.7484 38.559V38.5201C12.5089 37.4271 12.3431 36.3192 12.2521 35.2039C12.2321 35.112 12.192 35.0257 12.1347 34.9512C12.0773 34.8766 12.0042 34.8157 11.9205 34.7728C11.757 34.6847 11.6426 34.727 11.6404 34.8871C11.7413 36.026 11.912 37.1575 12.1515 38.2754L12.1492 38.2743ZM37.2292 25.0299L37.1423 24.983C36.2354 24.4959 35.3298 24.0476 34.4492 23.6508C34.2937 23.5833 34.1782 23.6291 34.1862 23.756C34.187 23.7722 34.1893 23.7883 34.1931 23.804C34.2165 23.8943 34.2594 23.9785 34.3186 24.0505C34.3779 24.1226 34.4521 24.1809 34.5361 24.2214C35.4064 24.6137 36.2892 25.0505 37.1743 25.525L37.1583 25.254L37.2497 25.5662C37.5345 25.7183 37.8215 25.8715 38.0925 26.0236C38.2675 26.1265 38.3921 26.0808 38.3944 25.9321V25.9219C38.3781 25.8329 38.3417 25.7489 38.288 25.6762C38.2343 25.6035 38.1647 25.544 38.0845 25.5022C37.7998 25.3409 37.5128 25.1786 37.2314 25.0253" fill="#0559FF"/>
<path d="M13.3053 59.0934L19.9058 56.1477C23.3923 60.7859 27.4669 64.9512 32.0272 68.539L29.3914 75.5534C23.3491 70.7755 17.9431 65.2439 13.3053 59.0934Z" fill="#EBEBEB"/>
<path d="M0.048345 28.1769C0.048345 28.1381 0.0483449 28.0992 0.0426272 28.0626C-0.104888 25.2918 0.135253 22.8218 0.688723 20.6422L10.889 28.0603C10.4419 29.6875 10.2509 31.5458 10.3699 33.6259C10.3699 33.6659 10.3699 33.7059 10.3756 33.7459C10.513 35.8941 10.8967 38.0194 11.5191 40.08L1.54752 36.6162C0.724172 33.7242 0.203865 30.8848 0.048345 28.1769Z" fill="#EBEBEB"/>
<path d="M47.5176 76.8879C51.9774 78.1847 55.9008 78.2602 59.0204 77.247L66.3321 87.7023C62.1719 89.0437 56.9551 88.9339 51.0968 87.2724L47.5176 76.8879Z" fill="#EBEBEB"/>
<path d="M10.6694 9.90766C14.8296 8.55715 20.0258 8.6635 25.8784 10.3262L29.4577 20.7106C25.0196 19.4161 21.0962 19.3384 17.9766 20.3675L10.6694 9.90766Z" fill="#EBEBEB"/>
<path d="M65.4309 57.4136L75.4208 60.8545C75.5885 61.4331 75.741 62.0079 75.8782 62.5789C75.8862 62.6121 75.8931 62.6452 75.9011 62.6784C75.9331 62.8088 75.964 62.938 75.9949 63.0683C76.4904 65.1607 76.8064 67.2916 76.9394 69.4378C76.9463 69.5522 76.9508 69.6597 76.9554 69.7694C76.9554 69.8495 76.9634 69.9295 76.9669 70.0084C76.9703 70.0873 76.9669 70.1457 76.9669 70.2154C76.9669 70.3218 76.9737 70.4293 76.976 70.5356C76.976 70.5756 76.976 70.6145 76.976 70.65C76.976 70.7849 76.976 70.9187 76.976 71.0513C76.9969 73.0098 76.7776 74.9634 76.323 76.8685L66.1262 69.4893C66.5504 67.8403 66.7311 65.9866 66.6122 63.8963C66.4715 61.6968 66.0751 59.5213 65.4309 57.4136V57.4136Z" fill="#EBEBEB"/>
<path d="M44.948 29.0619L47.5873 22.0349C53.6317 26.8168 59.0412 32.3504 63.6848 38.5018L57.0957 41.4658C53.6032 36.8204 49.5195 32.6506 44.948 29.0619Z" fill="#EBEBEB"/>
<path d="M9.08567 10.4922C9.60306 10.2699 10.1317 10.0749 10.6695 9.90782L20.2122 0.923096C19.6812 1.08648 19.1591 1.27732 18.6479 1.49486L18.6273 1.5063C17.9406 1.80571 17.2777 2.15703 16.6444 2.5572C16.4912 2.65212 16.3402 2.7516 16.187 2.85223C15.5721 3.25897 14.9908 3.71442 14.4488 4.21418V4.21418L4.91406 13.2012C5.45656 12.7007 6.0386 12.2449 6.65452 11.8381C6.80318 11.7375 6.95412 11.638 7.11193 11.5431C7.74216 11.1431 8.40198 10.7918 9.08567 10.4922V10.4922Z" fill="#021C69"/>
<path d="M41.092 3.35416C41.0246 3.32557 40.9605 3.30498 40.8931 3.27754C40.2641 3.01453 39.6455 2.78239 39.028 2.5514C38.7261 2.43704 38.4185 2.31011 38.12 2.20834C37.2052 1.88815 36.3086 1.59769 35.4247 1.34497L25.8831 10.3263C26.767 10.579 27.6658 10.8694 28.5772 11.1896C28.8768 11.2948 29.1844 11.4241 29.4863 11.5327C30.1038 11.7614 30.7213 11.9901 31.3503 12.2577C31.922 12.4967 32.5064 12.7631 33.0885 13.0296C33.3835 13.1645 33.6739 13.2869 33.9701 13.4287C34.8598 13.8541 35.7586 14.308 36.6666 14.8009C40.5106 16.8886 44.1648 19.3084 47.5873 22.0326L57.1301 13.0479C53.7075 10.3237 50.0534 7.90387 46.2093 5.81618C45.3002 5.3256 44.4014 4.87162 43.5117 4.44394C43.2156 4.30214 42.9263 4.18093 42.6324 4.04599C42.1178 3.815 41.5998 3.56914 41.092 3.35416Z" fill="#021F74"/>
<path d="M76.331 76.8673C75.5306 79.9971 74.068 82.5254 72.0565 84.4146L81.5981 75.4298C83.6108 73.5407 85.0756 71.0135 85.8761 67.8837L76.331 76.8673Z" fill="#021B64"/>
<path d="M31.6098 0.471339C31.341 0.424454 31.0735 0.379856 30.8093 0.339833C30.4159 0.280369 30.0271 0.232341 29.6418 0.187743C29.3913 0.160298 29.1397 0.129423 28.8927 0.107696C28.4891 0.0722461 28.0923 0.0516626 27.7023 0.0345096C27.4828 0.0253614 27.2609 0.00820835 27.0459 0.00363422C26.5679 -0.00551403 26.1014 0.00363426 25.6405 0.0196437C25.5193 0.0196437 25.3947 0.0196436 25.2758 0.0265048H25.238C25.198 0.0265048 25.1625 0.0367967 25.1237 0.0390838C24.3895 0.0846188 23.6582 0.167825 22.9327 0.288374C22.7394 0.319249 22.5484 0.352411 22.3609 0.389004C21.6356 0.522883 20.9192 0.700842 20.2156 0.92189L10.6729 9.90662C11.3754 9.68686 12.0907 9.51005 12.8147 9.37716C13.0034 9.34057 13.1955 9.30741 13.3865 9.27653C14.112 9.15605 14.8433 9.07284 15.5775 9.02724C15.6301 9.02724 15.6792 9.01695 15.7307 9.01352C15.8508 9.01352 15.9754 9.01352 16.0955 9.00666C16.5529 8.99065 17.024 8.9815 17.5009 8.99065C17.7159 8.99065 17.9389 9.01123 18.1573 9.02152C18.5506 9.03868 18.9452 9.05926 19.3477 9.09471C19.5947 9.11644 19.8463 9.14731 20.0967 9.17476C20.4832 9.21821 20.8709 9.26738 21.2642 9.32685C21.5295 9.36687 21.7971 9.41147 22.0647 9.45835C22.3735 9.51324 22.6879 9.57271 23.0024 9.64018C23.9447 9.83115 24.8995 10.0507 25.8807 10.3263L35.4223 1.34157C34.4412 1.06369 33.4863 0.84413 32.544 0.655447C32.4297 0.631433 32.3028 0.592553 32.1861 0.569682C31.9929 0.529659 31.8042 0.505645 31.6098 0.471339Z" fill="#797676"/>
<path d="M75.4208 60.8544C75.5885 61.433 75.741 62.0078 75.8782 62.5788C75.8862 62.612 75.8931 62.6451 75.9011 62.6783C75.9331 62.8087 75.964 62.9379 75.9948 63.0683C76.4905 65.161 76.8065 67.2923 76.9394 69.4389C76.9462 69.5532 76.9508 69.6596 76.9554 69.7693C76.9554 69.8494 76.9634 69.9294 76.9668 70.0083C76.9703 70.0873 76.9668 70.1456 76.9668 70.2153C76.9668 70.3217 76.9737 70.4292 76.976 70.5355C76.976 70.5755 76.976 70.6144 76.976 70.6499C76.976 70.7837 76.976 70.9186 76.976 71.0512C76.9969 73.0097 76.7776 74.9633 76.323 76.8684L85.8761 67.8882C86.3307 65.9832 86.55 64.0295 86.529 62.0711C86.529 61.9384 86.529 61.8046 86.529 61.6697C86.529 61.6297 86.529 61.5908 86.529 61.5554C86.529 61.449 86.5233 61.3415 86.5199 61.2352C86.5199 61.1666 86.5199 61.0968 86.513 61.0282C86.5062 60.9596 86.5062 60.8692 86.5027 60.7892C86.497 60.6748 86.4925 60.5696 86.4867 60.4587C86.3526 58.3124 86.0355 56.1815 85.5387 54.0892C85.509 53.9589 85.477 53.8297 85.4461 53.6993L85.4221 53.601C85.3958 53.4935 85.3695 53.386 85.3421 53.2785C85.2254 52.8127 85.0989 52.345 84.9624 51.8754L75.4208 60.8544Z" fill="#6D6A6A"/>
<path d="M80.5439 41.0142C80.4615 40.8541 80.3838 40.694 80.298 40.5339C79.8528 39.6953 79.3866 38.8567 78.8995 38.0181C78.7725 37.7997 78.6399 37.5813 78.5095 37.3629C78.2808 36.9809 78.0613 36.5967 77.8234 36.2193C77.7194 36.0512 77.6016 35.8854 77.4964 35.7185C77.0458 34.9981 76.5815 34.2833 76.0967 33.5698C75.8771 33.2427 75.6644 32.9134 75.438 32.5875C74.7256 31.5583 73.9914 30.5291 73.2241 29.5228L63.6825 38.5076C64.4498 39.5184 65.1828 40.543 65.8964 41.5722C66.1251 41.8981 66.3344 42.2275 66.5539 42.5545C67.033 43.2681 67.503 43.9828 67.9547 44.7021C68.2978 45.2521 68.6409 45.801 68.9656 46.3522C69.0948 46.5706 69.2286 46.789 69.3556 47.0074C69.8419 47.846 70.3081 48.6846 70.7541 49.5232C70.8387 49.6833 70.9165 49.8434 71 50.0035C71.359 50.6965 71.7044 51.3891 72.036 52.0813C72.158 52.3397 72.2788 52.5982 72.3985 52.8566C72.6032 53.2991 72.7919 53.7417 72.9828 54.1842C73.329 54.9824 73.6541 55.7787 73.9583 56.5731C74.0864 56.9081 74.219 57.242 74.3402 57.5759C74.737 58.676 75.1064 59.7727 75.4186 60.859L84.9613 51.8697C84.6503 50.7834 84.2752 49.6867 83.883 48.5866C83.7629 48.2527 83.6303 47.9188 83.5022 47.5849C83.1972 46.789 82.8717 45.9916 82.5256 45.1926C82.4376 44.9891 82.3678 44.7867 82.2775 44.5831C82.1711 44.3453 82.0488 44.1074 81.9436 43.8696C81.8239 43.6104 81.7023 43.3508 81.5788 43.0908C81.2494 42.3994 80.9045 41.7072 80.5439 41.0142Z" fill="#021C69"/>
<path d="M61.0785 16.3664C60.8807 16.1903 60.6794 16.0234 60.4805 15.845C59.3815 14.8867 58.2689 13.9467 57.1299 13.0502L47.5872 22.0349C48.7307 22.9314 49.8399 23.8714 50.9388 24.8308C51.1378 25.0047 51.3379 25.1739 51.5358 25.3511C52.5832 26.282 53.6098 27.2383 54.6153 28.2203C54.8097 28.4101 55.0007 28.6033 55.1939 28.792C56.2231 29.8132 57.234 30.8504 58.2094 31.9173C58.2369 31.9482 58.2632 31.9802 58.2918 32.0099C59.25 33.0608 60.174 34.1358 61.0763 35.2221C61.2535 35.4348 61.433 35.6452 61.6069 35.8591C62.317 36.7304 63.0145 37.6087 63.6847 38.4983L73.2263 29.5136C72.5562 28.6239 71.854 27.7457 71.1496 26.8743C71.0741 26.7817 71.0044 26.6879 70.9301 26.5953C70.8294 26.4741 70.7197 26.3586 70.619 26.2374C69.7168 25.151 68.7894 24.0772 67.8334 23.0252C67.8059 22.9955 67.7796 22.9634 67.751 22.9326C66.7756 21.8668 65.7647 20.8285 64.7367 19.8073C64.5434 19.6152 64.3525 19.4219 64.1569 19.2355C63.1529 18.2544 62.1268 17.298 61.0785 16.3664Z" fill="#797676"/>
<path style="mix-blend-mode:screen" d="M25.9592 9.95122C29.3703 10.9312 32.9793 12.3984 36.753 14.4293C40.5953 16.5224 44.2498 18.9431 47.676 21.6644C53.7187 26.4474 59.128 31.98 63.7735 38.129C69.2521 45.3584 73.3952 53.1093 75.5118 60.4908C75.6754 61.0694 75.824 61.6469 75.9692 62.206C75.9692 62.2369 75.9818 62.2678 75.9807 62.2987C76.0218 62.4393 76.0482 62.564 76.0745 62.6886C76.5678 64.7843 76.8849 66.9175 77.0224 69.0661C77.0339 69.1747 77.0304 69.2822 77.0419 69.392C77.0419 69.4846 77.0499 69.5624 77.0419 69.639C77.052 69.7056 77.0546 69.7731 77.0499 69.8403C77.0613 69.9546 77.0567 70.0575 77.0682 70.1662V70.2897C77.0762 70.4237 77.0762 70.5581 77.0682 70.6922C77.0949 72.6472 76.8751 74.5978 76.4141 76.4979C75.7051 79.2847 74.4575 81.6038 72.7639 83.4266C71.0704 85.2494 68.9331 86.5438 66.4139 87.3294C62.2492 88.6719 57.0369 88.5667 51.1809 86.9052C47.7835 85.9412 44.1596 84.458 40.4008 82.4283C36.5574 80.3322 32.9034 77.906 29.4801 75.1771C23.4352 70.4047 18.0265 64.8776 13.3861 58.7309C7.89367 51.4694 3.73808 43.658 1.63626 36.2456C0.825535 33.4965 0.321224 30.6662 0.132521 27.8063C0.132521 27.7755 0.119942 27.7286 0.121086 27.6977C-0.0207122 24.9235 0.212568 22.4374 0.775186 20.2647C2.17487 14.7506 5.71639 11.0959 10.7559 9.53955C14.9058 8.18561 20.1134 8.29081 25.9592 9.95122Z" fill="url(#paint0_linear_224:5)"/>
<path style="mix-blend-mode:multiply" d="M25.6394 0.0196772C25.5182 0.0196772 25.3936 0.0196771 25.2746 0.0265383H25.2369C25.1969 0.0265383 25.1614 0.0368302 25.1226 0.0391172C24.3884 0.0846523 23.6571 0.167859 22.9315 0.288407C22.7383 0.319283 22.5473 0.352445 22.3598 0.389038C21.6342 0.523051 20.9174 0.701007 20.2134 0.921924C19.6828 1.08549 19.161 1.27634 18.6502 1.49369L18.6296 1.50512C17.9429 1.80454 17.28 2.15586 16.6467 2.55603C16.4935 2.65094 16.3425 2.75043 16.1893 2.85106C15.5744 3.2578 14.9931 3.71325 14.4511 4.21301L4.91406 13.2012C5.45656 12.7007 6.0386 12.2448 6.65452 11.8381C6.80318 11.7374 6.95412 11.638 7.11193 11.543C7.74496 11.1424 8.40788 10.7911 9.09481 10.4921C9.61221 10.2699 10.1409 10.0749 10.6786 9.9078C11.3793 9.68788 12.0926 9.51069 12.8147 9.3772C13.0034 9.3406 13.1955 9.30744 13.3865 9.27657C14.1121 9.15608 14.8434 9.07288 15.5775 9.02728C15.6301 9.02728 15.6793 9.01698 15.7307 9.01355C15.8508 9.01355 15.9754 9.01355 16.0955 9.00669C16.5529 8.99068 17.0241 8.98154 17.5009 8.99068C17.7159 8.99068 17.9389 9.01127 18.1573 9.02156C18.5507 9.03871 18.9452 9.0593 19.3477 9.09474C19.5947 9.11647 19.8463 9.14735 20.0967 9.17479C20.4832 9.21825 20.8709 9.26742 21.2643 9.32688C21.5296 9.36576 21.7972 9.4115 22.0647 9.45839C22.3735 9.51328 22.688 9.57274 23.0024 9.64021C23.9447 9.83118 24.8996 10.0507 25.8807 10.3263C26.7647 10.579 27.6635 10.8695 28.5749 11.1897C28.8745 11.2949 29.1821 11.4241 29.484 11.5328C30.1015 11.7615 30.719 11.9902 31.3479 12.2578C31.9197 12.4968 32.504 12.7632 33.0861 13.0296C33.3811 13.1646 33.6716 13.2869 33.9678 13.4287C34.8574 13.8541 35.7563 14.3081 36.6642 14.801C40.5083 16.8887 44.1624 19.3084 47.5849 22.0327C48.7285 22.9292 49.8377 23.8692 50.9366 24.8286C51.1356 25.0024 51.3357 25.1717 51.5336 25.3489C52.581 26.2797 53.6072 27.2361 54.6119 28.218C54.8075 28.4079 54.9985 28.6011 55.1917 28.7898C56.2209 29.811 57.2318 30.8482 58.2072 31.9151C58.2346 31.9459 58.261 31.978 58.2884 32.0077C59.2478 33.0586 60.1718 34.1335 61.074 35.2199C61.2513 35.4326 61.4308 35.643 61.6046 35.8568C62.3148 36.7282 63.0123 37.6064 63.6824 38.4961C64.4486 39.507 65.1828 40.5316 65.8963 41.5608C66.125 41.8867 66.3343 42.216 66.5538 42.5431C67.033 43.2566 67.503 43.9713 67.9535 44.6906C68.2989 45.2395 68.6362 45.7895 68.9656 46.3407C69.0948 46.5591 69.2286 46.7775 69.3555 46.996C69.8419 47.8346 70.3081 48.6731 70.754 49.5117C70.8387 49.673 70.9164 49.8331 70.9999 49.9932C71.359 50.6861 71.7043 51.3787 72.0359 52.071C72.1579 52.3294 72.2787 52.5878 72.3984 52.8463C72.6031 53.2888 72.7918 53.7314 72.9828 54.1739C73.3289 54.9721 73.654 55.7684 73.9582 56.5628C74.0863 56.8967 74.2189 57.2317 74.3401 57.5656C74.737 58.6657 75.1063 59.7623 75.4185 60.8487C75.5862 61.4273 75.7387 62.0021 75.8759 62.5732C75.8839 62.6063 75.8908 62.6395 75.8988 62.6726C75.9308 62.8019 75.9617 62.9322 75.9926 63.0626C76.4881 65.155 76.8041 67.2859 76.9371 69.4321C76.944 69.5464 76.9485 69.6539 76.9531 69.7637C76.9531 69.8437 76.9611 69.9238 76.9646 70.0027C76.968 70.0816 76.9646 70.1399 76.9646 70.2097C76.9646 70.316 76.9714 70.4235 76.9737 70.5298C76.9737 70.5699 76.9737 70.6087 76.9737 70.6442C76.9737 70.778 76.9737 70.9129 76.9737 71.0456C76.9945 72.9989 76.7764 74.9475 76.3242 76.8479L76.3139 76.857C75.5134 79.9869 74.0508 82.5152 72.0394 84.4043L81.581 75.4207C83.5902 73.5293 85.0482 71.0056 85.8509 67.8849L85.8635 67.8734C86.3183 65.9684 86.5372 64.0147 86.5153 62.0563C86.5153 61.9236 86.5153 61.7887 86.5153 61.6549C86.5153 61.6149 86.5153 61.576 86.5153 61.5405C86.5153 61.4342 86.5096 61.3267 86.5062 61.2204C86.5062 61.1506 86.5062 61.082 86.4993 61.0134C86.4925 60.9448 86.4925 60.8544 86.489 60.7744C86.4833 60.66 86.4787 60.5548 86.473 60.4439C86.3426 58.303 86.03 56.1771 85.5388 54.0893C85.509 53.9589 85.477 53.8286 85.4461 53.6993L85.4221 53.601C85.3958 53.4924 85.3695 53.386 85.3421 53.2785C85.2254 52.8127 85.0989 52.345 84.9624 51.8754C84.6514 50.7891 84.2763 49.6924 83.8841 48.5923C83.764 48.2584 83.6313 47.9245 83.5033 47.5906C83.1983 46.7947 82.8728 45.9973 82.5267 45.1983C82.4386 44.9948 82.3689 44.7924 82.2785 44.5888C82.1722 44.351 82.0498 44.1131 81.9446 43.8753C81.8249 43.6161 81.7033 43.3565 81.5798 43.0965C81.2497 42.4051 80.9044 41.7128 80.5438 41.0199C80.4615 40.8598 80.3837 40.6997 80.298 40.5396C79.8527 39.701 79.3866 38.8624 78.8994 38.0238C78.7725 37.8054 78.6398 37.587 78.5095 37.3686C78.2808 36.9866 78.0612 36.6024 77.8233 36.225C77.7193 36.0569 77.6015 35.8911 77.4963 35.7242C77.0389 35.0037 76.5815 34.289 76.0966 33.5755C75.8771 33.2484 75.6644 32.9191 75.4379 32.5932C74.7255 31.564 73.9914 30.5348 73.2241 29.5285C72.554 28.6388 71.8518 27.7606 71.1463 26.8892C71.0719 26.7966 71.0022 26.7028 70.9267 26.6102C70.8272 26.489 70.7174 26.3735 70.6168 26.2523C69.7146 25.1659 68.7872 24.0922 67.8312 23.0401C67.8037 23.0104 67.7774 22.9784 67.7488 22.9475C66.7734 21.8817 65.7625 20.8434 64.7345 19.8222C64.5412 19.6301 64.3503 19.4368 64.1547 19.2505C63.1507 18.2693 62.1246 17.3129 61.0763 16.3813C60.8785 16.2052 60.6772 16.0383 60.4783 15.8599C59.3793 14.9016 58.2667 13.9616 57.1277 13.0651C53.7052 10.3409 50.051 7.92109 46.207 5.83339C45.2979 5.34282 44.3991 4.88884 43.5094 4.46115C43.2132 4.31936 42.9239 4.19814 42.63 4.06321C42.1154 3.82764 41.6008 3.58178 41.0885 3.36679C41.0222 3.33821 40.9582 3.31762 40.8907 3.29018C40.2618 3.02717 39.6431 2.79503 39.0256 2.56404C38.7237 2.44968 38.4161 2.32275 38.1176 2.22098C37.2028 1.90079 36.3063 1.61033 35.4223 1.35761C34.4412 1.07973 33.4863 0.860173 32.5441 0.67149C32.4297 0.647476 32.3028 0.608596 32.1861 0.585725C31.9906 0.547989 31.8019 0.523975 31.6075 0.489669C31.3388 0.442784 31.0712 0.398186 30.807 0.358162C30.4137 0.298699 30.0249 0.249527 29.6395 0.206073C29.3891 0.178628 29.1375 0.147753 28.8905 0.126026C28.4868 0.0905762 28.09 0.0699926 27.7001 0.0528396C27.4805 0.0436913 27.2587 0.0265383 27.0437 0.0219642C26.5668 0.000237089 26.1003 0.000237145 25.6394 0.0196772Z" fill="url(#paint1_linear_224:5)"/>
<g style="mix-blend-mode:soft-light">
<path d="M0.693237 20.6364C1.1941 18.4957 2.0346 16.3836 3.40226 14.6112C4.76242 12.8153 6.53278 11.3711 8.56531 10.3995C10.6018 9.43385 12.7937 8.83794 15.0388 8.63963C17.2779 8.4235 19.5318 8.55844 21.7457 8.87977C26.1768 9.56589 30.4365 11.0525 34.4674 12.9382C38.4915 14.8604 42.2961 17.2127 45.8879 19.8371C49.474 22.4723 52.8576 25.3724 56.0104 28.5131C59.1554 31.6609 62.0565 35.0433 64.6887 38.631C67.345 42.2049 69.7025 45.9913 71.7374 49.952C72.7578 51.9338 73.6642 53.9722 74.4522 56.0573C75.2407 58.1397 75.8943 60.2707 76.4088 62.4371L76.4282 62.6017L76.4385 62.6944L76.4179 62.5228C76.5677 63.1655 76.6775 63.7167 76.7918 64.3262C76.9062 64.9357 77 65.5212 77.0834 66.1215C77.1669 66.7219 77.2378 67.3234 77.2916 67.9283L77.3613 68.8351L77.4071 69.7191V69.7534V69.7843V70.0313L77.3968 69.9169L77.4116 70.228V70.1651L77.4265 70.491V70.5459V70.5561L77.4196 70.6785V70.6248L77.3922 72.0324C77.3739 72.4899 77.3434 72.9473 77.3007 73.4047C77.2167 74.3215 77.0723 75.2319 76.8685 76.1297C76.4685 77.9316 75.7882 79.6595 74.8524 81.2505C73.9146 82.8343 72.6767 84.2199 71.208 85.3294C69.741 86.4139 68.0858 87.2173 66.3262 87.6988C68.037 87.1219 69.631 86.244 71.033 85.1064C72.4163 83.9702 73.5645 82.5749 74.4133 80.9989C75.2526 79.4287 75.8407 77.7367 76.156 75.9845C76.3184 75.1097 76.4329 74.2267 76.4991 73.3395C76.5296 72.8958 76.5483 72.4514 76.5551 72.0061V70.6991V70.6442V70.5207V70.5836L76.5323 70.2588V70.1948C76.5282 70.1644 76.5282 70.1337 76.5323 70.1033L76.5231 69.9889L76.514 69.7419V69.806L76.4442 68.898L76.3539 68.0175C76.2864 67.4309 76.2029 66.8454 76.1069 66.2622C76.0108 65.679 75.901 65.0992 75.7787 64.5206C75.6563 63.942 75.5168 63.3382 75.383 62.8179L75.3613 62.6452L75.3487 62.5526L75.367 62.7161C74.81 60.6022 74.1167 58.5265 73.2915 56.5021C72.4647 54.4838 71.5613 52.4941 70.547 50.5558C68.5147 46.6808 66.1663 42.98 63.5257 39.491C60.8966 35.9922 58.0241 32.683 54.9298 29.588C51.8548 26.474 48.5511 23.5946 45.0463 20.9738C41.5379 18.3654 37.8237 16.028 33.9003 14.1126C29.9768 12.1972 25.8715 10.6191 21.5878 9.85749C19.4483 9.4927 17.2699 9.30745 15.1086 9.46297C12.9447 9.60177 10.8191 10.1003 8.81917 10.9381C6.81648 11.7979 5.04911 13.1253 3.66528 14.809C2.26902 16.498 1.30846 18.5255 0.693237 20.6364Z" fill="#CCC8C8"/>
</g>
<defs>
<linearGradient id="paint0_linear_224:5" x1="82.8391" y1="155.521" x2="49.5286" y2="30.1433" gradientUnits="userSpaceOnUse">
<stop stop-color="white"/>
<stop offset="1"/>
</linearGradient>
<linearGradient id="paint1_linear_224:5" x1="41.0495" y1="27.7471" x2="112.359" y2="91.0349" gradientUnits="userSpaceOnUse">
<stop stop-color="white"/>
<stop offset="0.14" stop-color="#FBFBFB"/>
<stop offset="0.3" stop-color="#EEEEED"/>
<stop offset="0.46" stop-color="#D9D9D7"/>
<stop offset="0.63" stop-color="#BBBBB9"/>
<stop offset="0.8" stop-color="#949491"/>
<stop offset="0.97" stop-color="#666661"/>
<stop offset="1" stop-color="#5C5C57"/>
</linearGradient>
</defs>
</svg>
