<svg width="75" height="72" viewBox="0 0 75 72" fill="none" xmlns="http://www.w3.org/2000/svg">
<g opacity="0.5" clip-path="url(#clip0_224:49)" filter="url(#filter0_f_224:49)">
<path d="M29.7594 21.4855C28.9582 22.093 28.1688 22.7344 27.413 23.4004L27.2153 23.494L27.141 23.4619C27.0893 23.4068 27.1425 23.2768 27.2429 23.1879C28.024 22.502 28.8271 21.8438 29.6455 21.2274C29.6938 21.1871 29.753 21.162 29.8156 21.1552C29.8338 21.1523 29.8525 21.1553 29.8689 21.1638C29.8853 21.1723 29.8985 21.1859 29.9065 21.2026C29.9415 21.272 29.8747 21.4021 29.7594 21.4855Z" fill="#F5F5F5"/>
<path d="M22.9246 27.8468L22.8701 27.8439C22.7959 27.8119 22.8118 27.6973 22.9008 27.5942C23.5589 26.8221 24.2585 26.0544 24.9829 25.3214C25.0403 25.2578 25.1183 25.2165 25.2032 25.2048C25.2278 25.2026 25.2523 25.2096 25.272 25.2244C25.334 25.2717 25.3082 25.3857 25.2063 25.4896C24.4964 26.2074 23.8093 26.953 23.1656 27.7107C23.1057 27.7853 23.0194 27.834 22.9246 27.8468Z" fill="#F5F5F5"/>
<path d="M19.4852 32.5812C19.392 32.5763 19.3664 32.4869 19.4379 32.37C19.9214 31.5696 20.4649 30.7541 21.0417 29.9541C21.0713 29.9097 21.1095 29.8716 21.1539 29.842C21.1984 29.8125 21.2482 29.792 21.3006 29.7819C21.3133 29.7802 21.3261 29.7809 21.3385 29.7839C21.4234 29.8013 21.4276 29.9078 21.3474 30.0174C20.7859 30.8 20.2582 31.5882 19.7801 32.3744C19.7493 32.4275 19.7073 32.4732 19.657 32.5085C19.6068 32.5437 19.5495 32.5676 19.4891 32.5784L19.4852 32.5812Z" fill="#F5F5F5"/>
<path d="M18.4889 34.7483C18.1139 35.5075 17.7799 36.2863 17.4885 37.0814C17.4642 37.1396 17.4275 37.1918 17.3809 37.2343C17.3343 37.2768 17.279 37.3086 17.2188 37.3276L17.1759 37.3359C17.0914 37.3398 17.0499 37.2776 17.0898 37.1841C17.3866 36.3706 17.7261 35.5733 18.1068 34.7956C18.1357 34.7392 18.1766 34.6898 18.2267 34.651C18.2768 34.6122 18.3348 34.5849 18.3966 34.5711C18.4082 34.5685 18.42 34.5669 18.4318 34.5661C18.5299 34.5622 18.5399 34.6462 18.4889 34.7483Z" fill="#F5F5F5"/>
<path d="M16.8107 39.3276C16.6454 40.0277 16.5316 40.739 16.4702 41.4558C16.4557 41.517 16.4273 41.574 16.3872 41.6224C16.3471 41.6709 16.2964 41.7094 16.239 41.7351L16.1435 41.7604L16.048 41.6582C16.1093 40.9241 16.2263 40.1959 16.398 39.4796C16.4179 39.4204 16.4508 39.3663 16.4943 39.3215C16.5378 39.2766 16.5908 39.2421 16.6493 39.2204C16.672 39.2106 16.6962 39.2049 16.7208 39.2036C16.7908 39.2005 16.8292 39.2496 16.8107 39.3276Z" fill="#F5F5F5"/>
<path d="M16.4672 43.4212C16.5174 44.0217 16.6263 44.6159 16.7923 45.1952C16.8193 45.2725 16.7444 45.3961 16.6254 45.4786L16.47 45.5463L16.3768 45.4859C16.2042 44.8956 16.0891 44.29 16.033 43.6776C16.0413 43.6172 16.0641 43.5598 16.0994 43.5101C16.1347 43.4604 16.1814 43.42 16.2356 43.3922C16.2733 43.3681 16.3163 43.3535 16.3609 43.3495C16.3726 43.347 16.3847 43.3468 16.3964 43.3491C16.4082 43.3513 16.4194 43.3559 16.4293 43.3626C16.4393 43.3693 16.4477 43.378 16.4542 43.388C16.4607 43.3981 16.4651 43.4094 16.4672 43.4212Z" fill="#F5F5F5"/>
<path d="M51.0946 17.2528L51.02 17.2276C50.6188 16.8557 50.1743 16.5337 49.6959 16.2684C49.6255 16.2358 49.6487 16.1141 49.7437 16.0113C49.8036 15.9406 49.8869 15.8938 49.9784 15.8795C49.999 15.8777 50.0197 15.8823 50.0377 15.8925C50.5303 16.1604 50.9873 16.4891 51.398 16.871C51.4505 16.9254 51.4137 17.048 51.3076 17.1441L51.0946 17.2528Z" fill="#F5F5F5"/>
<path d="M18.4306 48.0311C18.4831 48.0863 18.4402 48.2085 18.3357 48.3047L18.1276 48.4061L18.053 48.3808C17.6653 47.987 17.329 47.5458 17.0521 47.0676C17.0148 46.9988 17.0748 46.8683 17.1881 46.7787C17.238 46.7348 17.3001 46.7073 17.3662 46.7001C17.3834 46.698 17.4009 46.7004 17.4169 46.7071C17.4329 46.7138 17.4469 46.7245 17.4575 46.7383C17.7217 47.2114 18.049 47.6464 18.4306 48.0311Z" fill="#F5F5F5"/>
<path d="M52.8529 20.0311L52.7616 19.9777C52.5811 19.4509 52.3403 18.9467 52.0441 18.4752C52.0067 18.4064 52.0618 18.2833 52.1691 18.1934C52.2219 18.1478 52.2872 18.119 52.3564 18.1107C52.3727 18.1084 52.3892 18.1106 52.4044 18.1168C52.4195 18.1231 52.4327 18.1333 52.4426 18.1464C52.7484 18.6268 52.9936 19.1431 53.1728 19.6837C53.199 19.761 53.1268 19.8915 53.015 19.9669L52.8529 20.0311Z" fill="#F5F5F5"/>
<path d="M21.2679 49.7323C21.3494 49.7572 21.3365 49.8711 21.2552 49.9738C21.2258 50.0163 21.1882 50.0523 21.1446 50.0799C21.101 50.1075 21.0523 50.1259 21.0014 50.1343L20.953 50.1317C20.3957 49.9518 19.8603 49.7103 19.3566 49.4117C19.2904 49.3717 19.3162 49.2577 19.4154 49.1468C19.4727 49.0782 19.5536 49.0335 19.6422 49.0214C19.6641 49.0197 19.686 49.0243 19.7053 49.0346C20.1978 49.3261 20.7221 49.5602 21.2679 49.7323Z" fill="#F5F5F5"/>
<path d="M53.2876 23.7515L53.192 23.6492C53.2297 23.0041 53.2132 22.3569 53.1427 21.7145C53.1327 21.6297 53.2247 21.4979 53.3392 21.4296C53.3786 21.4045 53.4234 21.3891 53.4699 21.3849C53.5254 21.3825 53.565 21.4081 53.5681 21.466C53.6407 22.1223 53.6587 22.7835 53.622 23.4427C53.6075 23.503 53.5798 23.5593 53.5409 23.6075C53.502 23.6557 53.4528 23.6947 53.3969 23.7216L53.2876 23.7515Z" fill="#F5F5F5"/>
<path d="M25.7967 50.1454C25.8941 50.1407 25.9341 50.2172 25.8797 50.3259C25.8522 50.3819 25.8121 50.4307 25.7626 50.4685C25.713 50.5063 25.6553 50.5321 25.5941 50.5439C25.3524 50.5685 25.1146 50.5855 24.8808 50.5949L24.8283 50.5974C24.155 50.6238 23.4807 50.5975 22.8115 50.5187C22.7224 50.5087 22.7072 50.4099 22.7813 50.3007C22.8137 50.251 22.8564 50.2089 22.9065 50.1772C22.9567 50.1456 23.0131 50.1251 23.0719 50.1172L23.0855 50.1179C23.7392 50.1949 24.398 50.2194 25.0555 50.1912L25.1073 50.1893C25.331 50.1784 25.562 50.1618 25.7967 50.1454Z" fill="#F5F5F5"/>
<path d="M30.4818 49.1249C30.5579 49.1213 30.5984 49.1728 30.5711 49.2587C30.55 49.3174 30.5166 49.3709 30.4732 49.4156C30.4297 49.4603 30.3771 49.4952 30.319 49.5179C29.5212 49.7855 28.71 50.0114 27.8887 50.1947L27.8561 50.1929C27.7716 50.1968 27.7301 50.1346 27.774 50.0367C27.7989 49.9794 27.8362 49.9284 27.8831 49.8871C27.9301 49.8459 27.9855 49.8156 28.0456 49.7983C28.8473 49.6211 29.6388 49.4004 30.4166 49.1374C30.4376 49.1301 30.4596 49.1259 30.4818 49.1249Z" fill="#F5F5F5"/>
<path d="M51.7185 30.2528C51.4437 30.8388 51.1342 31.4366 50.7984 32.0436L50.7664 32.1019C50.6615 32.2907 50.5498 32.4799 50.438 32.6691C50.4092 32.7223 50.3687 32.7684 50.3195 32.8036C50.2702 32.8389 50.2136 32.8625 50.1539 32.8727L50.1471 32.8723C50.0472 32.867 50.0181 32.785 50.0888 32.6688C50.1964 32.487 50.3019 32.3005 50.4069 32.1094L50.6165 32.0507L50.4354 32.0585C50.7628 31.4685 51.0641 30.8824 51.3354 30.3031C51.3635 30.2474 51.4034 30.1984 51.4522 30.1596C51.5011 30.1208 51.5578 30.093 51.6184 30.0782C51.6289 30.0758 51.6397 30.0743 51.6505 30.0738C51.7357 30.0708 51.765 30.149 51.7185 30.2528Z" fill="#F5F5F5"/>
<path d="M35.4827 46.8747C35.4945 46.8723 35.5068 46.8727 35.5185 46.8757C35.5302 46.8787 35.5411 46.8843 35.5504 46.8921C35.5596 46.8999 35.567 46.9096 35.5721 46.9206C35.5771 46.9316 35.5796 46.9436 35.5794 46.9557C35.5851 47.0479 35.4919 47.1728 35.3802 47.2336C34.5259 47.71 33.6701 48.1429 32.8272 48.5189L32.7371 48.5445C32.7227 48.5463 32.7081 48.5447 32.6945 48.5396C32.6809 48.5345 32.6688 48.5262 32.6592 48.5153C32.6496 48.5045 32.6428 48.4914 32.6394 48.4774C32.6359 48.4633 32.636 48.4486 32.6396 48.4345C32.6549 48.3741 32.6839 48.3181 32.7245 48.2709C32.7651 48.2236 32.8161 48.1864 32.8735 48.1622C33.6931 47.7949 34.5318 47.3686 35.3648 46.9079C35.4014 46.8888 35.4415 46.8775 35.4827 46.8747Z" fill="#F5F5F5"/>
<path d="M48.8619 34.8638C48.9475 34.8813 48.9559 34.9804 48.8824 35.0927C48.3187 35.8896 47.7092 36.6886 47.0598 37.4681C47.0305 37.5089 46.9934 37.5434 46.9505 37.5695C46.9077 37.5957 46.86 37.613 46.8103 37.6203L46.7669 37.6082C46.6855 37.5834 46.6984 37.4694 46.7797 37.3667C47.4147 36.6016 48.0158 35.8173 48.5609 35.0422C48.5907 34.9955 48.63 34.9554 48.6762 34.9248C48.7224 34.8942 48.7745 34.8736 48.8292 34.8644C48.8401 34.863 48.851 34.8628 48.8619 34.8638Z" fill="#F5F5F5"/>
<path d="M40.4446 43.5791C40.4626 43.5764 40.4811 43.5793 40.4974 43.5875C40.5137 43.5957 40.527 43.6088 40.5356 43.6249C40.5729 43.6937 40.5109 43.8172 40.3976 43.9069C39.9519 44.2522 39.4864 44.5981 39.0342 44.9226C38.6589 45.1866 38.2877 45.4433 37.9138 45.693L37.7689 45.7491L37.673 45.6818C37.6528 45.6048 37.7319 45.4738 37.8437 45.3978C38.2065 45.1558 38.5736 44.905 38.9318 44.6499C39.3847 44.3254 39.835 43.9947 40.2754 43.6499C40.3236 43.6102 40.3825 43.5856 40.4446 43.5791Z" fill="#F5F5F5"/>
<path d="M45.0766 39.4925C45.1436 39.5325 45.1136 39.6547 45.0117 39.7579C44.3021 40.4977 43.5492 41.2246 42.7777 41.9171L42.5791 42.0106L42.4984 41.9858C42.4466 41.9314 42.493 41.8018 42.6037 41.7044C43.3547 41.0275 44.089 40.3224 44.7841 39.5978C44.8426 39.532 44.9222 39.4887 45.0092 39.4753C45.033 39.4733 45.0567 39.4794 45.0766 39.4925Z" fill="#F5F5F5"/>
<path d="M48.1367 15.6179L48.0951 15.6157C47.4923 15.4481 46.8753 15.3364 46.252 15.282C46.1629 15.272 46.1484 15.1732 46.2157 15.0637C46.246 15.0139 46.2866 14.9712 46.3347 14.9383C46.3827 14.9053 46.4372 14.883 46.4946 14.8727C46.5022 14.8724 46.5098 14.8728 46.5173 14.8739C47.1555 14.9324 47.7871 15.0482 48.4045 15.2199C48.486 15.2447 48.4834 15.3516 48.3971 15.4617C48.3666 15.5041 48.3278 15.5398 48.283 15.5666C48.2382 15.5935 48.1885 15.611 48.1367 15.6179Z" fill="#F5F5F5"/>
<path d="M52.3721 28.1321C52.2877 28.1352 52.253 28.0734 52.2819 27.9869C52.5322 27.2555 52.739 26.51 52.9012 25.7542C52.9207 25.6943 52.9532 25.6394 52.9963 25.5934C53.0394 25.5474 53.0921 25.5114 53.1506 25.4881C53.175 25.4777 53.201 25.4716 53.2275 25.4701C53.2975 25.467 53.3368 25.5131 53.3204 25.595C53.1558 26.3683 52.9435 27.1306 52.6847 27.8776C52.6611 27.9362 52.6246 27.9886 52.5779 28.0311C52.5312 28.0736 52.4756 28.105 52.4151 28.123L52.3721 28.1321Z" fill="#F5F5F5"/>
<path d="M34.685 18.305C33.8536 18.7514 33.0195 19.2478 32.1981 19.779L32.0573 19.8277L31.9607 19.7603C31.9446 19.676 32.0195 19.5524 32.1381 19.4767C32.9768 18.9373 33.8381 18.428 34.6807 17.9715C34.7167 17.9512 34.7567 17.9391 34.798 17.936C34.8566 17.933 34.8953 17.9616 34.8947 18.017C34.901 18.1115 34.8064 18.2363 34.685 18.305Z" fill="#F5F5F5"/>
<path d="M39.8755 15.9144C39.8534 15.9734 39.819 16.027 39.7744 16.0717C39.7299 16.1163 39.6764 16.1509 39.6174 16.1732C38.7876 16.4384 37.9717 16.7451 37.1727 17.0922L37.0825 17.117C37.0179 17.1196 36.9768 17.0788 36.9885 17.0004C37.0068 16.9402 37.0379 16.8846 37.0797 16.8375C37.1215 16.7904 37.173 16.753 37.2307 16.7278C38.066 16.3666 38.9046 16.0573 39.7328 15.7853C39.7505 15.78 39.7688 15.7769 39.7872 15.7761C39.8648 15.7741 39.9037 15.8263 39.8755 15.9144Z" fill="#F5F5F5"/>
<path d="M44.489 15.0406C44.4596 15.0963 44.4181 15.1448 44.3675 15.1825C44.3169 15.2201 44.2585 15.246 44.1966 15.2581C43.4486 15.3084 42.7047 15.4085 41.97 15.5577L41.9442 15.5564C41.8598 15.5603 41.8225 15.4907 41.8614 15.4002C41.8865 15.3416 41.9247 15.2896 41.9731 15.2482C42.0215 15.2068 42.0788 15.1771 42.1405 15.1614C42.8923 15.0117 43.6526 14.9084 44.417 14.8523C44.5202 14.8539 44.5502 14.9314 44.489 15.0406Z" fill="#F5F5F5"/>
<path d="M44.0161 16.1884C52.1858 15.8726 54.6496 23.034 49.5566 32.1425C47.0909 36.5526 43.2422 40.7589 38.7108 43.9937C34.2042 47.2054 29.5595 49.0677 25.6333 49.2332C21.6493 49.3866 18.9106 47.8142 17.8739 44.7985C16.8372 41.7827 17.6225 37.6928 20.0889 33.2827C25.1674 24.1901 35.8944 16.5303 44.0161 16.1884Z" fill="#F5F5F5"/>
<path d="M52.6702 39.0741L47.9849 37.2316C45.534 40.2595 42.6987 42.9547 39.5507 45.2491L41.4713 49.6949C36.5735 53.2967 31.3358 55.9907 26.3723 57.3373L28.775 50.6759C27.3554 51.0904 25.8923 51.3377 24.4154 51.4129C23.0131 51.4715 21.7723 51.3321 20.6723 51.0309L15.6279 57.7877C11.8933 56.7715 9.46783 54.3616 8.46581 50.9772L15.5466 46.1807C14.8986 44.0799 14.9886 41.451 15.9016 38.4755L8.91218 40.7738C9.58516 38.503 10.6191 36.0972 12.0197 33.5902C13.4622 31.0362 15.1229 28.6118 16.983 26.3439L21.6593 28.186C24.1089 25.1626 26.9416 22.4709 30.0861 20.1788L28.1757 15.7251C33.0885 12.1135 38.3723 9.40747 43.3574 8.06965L40.9394 14.7196C42.3264 14.3227 43.7545 14.0865 45.1955 14.0158C46.6716 13.9536 47.915 14.0999 49.0014 14.4164L54.0749 7.65424C57.7593 8.65719 60.1692 11.0601 61.1678 14.452L54.0871 19.2485C54.7441 21.3498 54.6511 23.9785 53.7389 26.9396L60.7342 24.6447C60.0483 26.9155 59.0273 29.3212 57.6267 31.8275C56.1885 34.3827 54.5301 36.8075 52.6702 39.0741ZM38.7105 43.9967C43.2419 40.7619 47.0907 36.5557 49.5565 32.1425C54.6497 23.031 52.1859 15.8696 44.0611 16.1832C35.8945 16.5273 25.1675 24.1871 20.0886 33.2858C17.6222 37.6958 16.8368 41.7873 17.8737 44.8015C18.9105 47.8158 21.649 49.3889 25.5876 49.2339C29.5611 49.0648 34.2041 47.204 38.7108 43.9922L38.7105 43.9967ZM40.3981 43.8993C40.5114 43.8097 40.5734 43.6862 40.536 43.6174C40.5275 43.6013 40.5141 43.5882 40.4978 43.58C40.4815 43.5718 40.4631 43.5688 40.445 43.5716C40.3824 43.5778 40.323 43.6024 40.2743 43.6422C39.8354 43.9872 39.3852 44.3179 38.9307 44.6423C38.5725 44.8981 38.2054 45.1482 37.8426 45.3902C37.7308 45.4662 37.6517 45.5972 37.6719 45.6742L37.7678 45.7415L37.9128 45.6854C38.2866 45.4357 38.6578 45.179 39.0332 44.915C39.4854 44.5904 39.9508 44.2446 40.3966 43.8993L40.3981 43.8993ZM52.1691 18.1934C52.0618 18.2833 52.0059 18.4064 52.0441 18.4752C52.3403 18.9467 52.5811 19.4509 52.7616 19.9777L52.8529 20.0311L53.0152 19.9638C53.127 19.8885 53.1992 19.758 53.1729 19.6806C52.9938 19.1401 52.7485 18.6237 52.4428 18.1433C52.4328 18.1303 52.4196 18.1201 52.4045 18.1138C52.3894 18.1075 52.3728 18.1054 52.3566 18.1076C52.2873 18.116 52.2221 18.1447 52.1692 18.1903L52.1691 18.1934ZM16.6299 45.4789C16.7459 45.3962 16.8207 45.2726 16.7967 45.1954C16.6308 44.6161 16.5219 44.022 16.4716 43.4214C16.47 43.4096 16.466 43.3981 16.4599 43.3878C16.4537 43.3776 16.4456 43.3686 16.4359 43.3616C16.4261 43.3545 16.4151 43.3495 16.4034 43.3469C16.3917 43.3442 16.3796 43.3439 16.3678 43.3461C16.3233 43.3501 16.2803 43.3647 16.2426 43.3888C16.1884 43.4166 16.1416 43.457 16.1064 43.5067C16.0711 43.5564 16.0483 43.6138 16.0399 43.6742C16.0961 44.2866 16.2112 44.8922 16.3837 45.4825L16.4769 45.5429L16.6324 45.4752L16.6299 45.4789ZM27.2438 23.1857C27.1434 23.2745 27.0902 23.4053 27.142 23.4597L27.2162 23.4917L27.414 23.3981C28.1696 22.7344 28.9591 22.0914 29.7603 21.4833C29.8756 21.3998 29.9425 21.2697 29.9044 21.2001C29.8964 21.1835 29.8832 21.1699 29.8668 21.1614C29.8505 21.1528 29.8318 21.1498 29.8135 21.1528C29.7509 21.1595 29.6918 21.1846 29.6434 21.225C28.8242 21.8436 28.0204 22.4987 27.2399 23.1877L27.2438 23.1857ZM32.1381 19.4766C32.0195 19.5523 31.9446 19.6759 31.9607 19.7603L32.0573 19.8277L32.1981 19.7789C33.0195 19.2477 33.8536 18.7514 34.685 18.305C34.8064 18.2355 34.901 18.1114 34.8945 18.0192C34.8976 17.9617 34.8566 17.933 34.7979 17.9382C34.7566 17.9413 34.7166 17.9534 34.6806 17.9737C33.8381 18.4279 32.9767 18.9395 32.138 19.4789L32.1381 19.4766ZM18.3358 48.3016C18.4404 48.2054 18.4834 48.0817 18.4308 48.028C18.0492 47.6433 17.7218 47.2083 17.4577 46.7352C17.4471 46.7214 17.4331 46.7107 17.4171 46.704C17.401 46.6972 17.3836 46.6948 17.3663 46.6969C17.3003 46.7042 17.2381 46.7317 17.1883 46.7756C17.075 46.8652 17.015 46.9941 17.0523 47.0644C17.3292 47.5427 17.6655 47.9839 18.0532 48.3777L18.1278 48.4029L18.3358 48.3016ZM53.3361 21.4294C53.2216 21.4992 53.1296 21.6295 53.1396 21.7143C53.2101 22.3567 53.2266 23.0039 53.1889 23.649L53.2845 23.7513L53.391 23.7182C53.4468 23.6913 53.496 23.6524 53.5349 23.6041C53.5739 23.5559 53.6016 23.4996 53.6161 23.4393C53.6528 22.7801 53.6347 22.1189 53.5621 21.4626C53.5589 21.4085 53.5192 21.3844 53.4639 21.3815C53.4174 21.3858 53.3726 21.4011 53.3332 21.4262L53.3361 21.4294ZM45.0117 39.7579C45.1135 39.6547 45.1435 39.5326 45.0766 39.4926C45.0568 39.4792 45.033 39.4728 45.0092 39.4746C44.9222 39.488 44.8426 39.5313 44.7841 39.597C44.0891 40.3194 43.3547 41.0268 42.6037 41.7037C42.493 41.8011 42.4466 41.9307 42.4984 41.9851L42.5791 42.0098L42.7777 41.9164C43.5492 41.2246 44.3021 40.4985 45.0117 39.7579ZM35.3799 47.2366C35.4902 47.1757 35.5849 47.0509 35.5791 46.9587C35.5793 46.9466 35.5768 46.9346 35.5718 46.9236C35.5668 46.9126 35.5594 46.9029 35.5501 46.8951C35.5409 46.8873 35.53 46.8817 35.5183 46.8787C35.5066 46.8757 35.4943 46.8753 35.4824 46.8777C35.441 46.8814 35.4008 46.8937 35.3644 46.9139C34.5314 47.3747 33.6927 47.8009 32.8731 48.1682C32.8157 48.1924 32.7647 48.2296 32.7241 48.2769C32.6835 48.3241 32.6545 48.3802 32.6392 48.4405C32.6356 48.4546 32.6356 48.4693 32.639 48.4834C32.6424 48.4975 32.6492 48.5105 32.6588 48.5213C32.6684 48.5322 32.6805 48.5405 32.6941 48.5456C32.7077 48.5507 32.7223 48.5523 32.7367 48.5505L32.8268 48.5249C33.6697 48.1489 34.5255 47.716 35.3798 47.2397L35.3799 47.2366ZM49.7437 16.0113C49.6486 16.1148 49.6256 16.2328 49.6959 16.2684C50.1742 16.5336 50.6188 16.8557 51.02 17.2275L51.0945 17.2527L51.3076 17.1441C51.4113 17.0478 51.4483 16.9238 51.3979 16.871C50.9882 16.4894 50.5323 16.1607 50.0407 15.8926C50.0227 15.8824 50.002 15.8778 49.9814 15.8796C49.8899 15.8939 49.8066 15.9407 49.7467 16.0114L49.7437 16.0113ZM16.2383 41.7351C16.2957 41.7094 16.3464 41.6708 16.3865 41.6224C16.4266 41.574 16.455 41.517 16.4695 41.4558C16.5309 40.739 16.6447 40.0277 16.81 39.3276C16.8284 39.2526 16.7901 39.2005 16.7186 39.2036C16.694 39.2048 16.6698 39.2105 16.6471 39.2203C16.5885 39.242 16.5355 39.2765 16.492 39.3214C16.4486 39.3662 16.4157 39.4203 16.3958 39.4795C16.224 40.1958 16.107 40.9241 16.0458 41.6581L16.1436 41.7604L16.2398 41.7351L16.2383 41.7351ZM22.9026 27.5875C22.8137 27.6906 22.8007 27.8053 22.8719 27.8372L22.9264 27.8401C23.0218 27.8266 23.1082 27.7768 23.1676 27.701C23.8113 26.9433 24.4984 26.1977 25.2083 25.4799C25.3103 25.376 25.3362 25.2589 25.274 25.2147C25.2543 25.1999 25.2298 25.1929 25.2052 25.1951C25.1203 25.2068 25.0423 25.2481 24.9849 25.3117C24.2628 26.0448 23.5609 26.8123 22.9028 27.5845L22.9026 27.5875ZM37.2291 16.7293C37.1714 16.7545 37.1198 16.7919 37.078 16.839C37.0362 16.8861 37.0051 16.9417 36.9869 17.0019C36.9753 17.0772 37.0162 17.1211 37.0809 17.1185L37.171 17.0937C37.97 16.7466 38.7859 16.4399 39.6157 16.1747C39.6747 16.1524 39.7283 16.1178 39.7728 16.0732C39.8173 16.0285 39.8518 15.9749 39.8739 15.9159C39.9022 15.8262 39.8632 15.7741 39.7841 15.7775C39.7656 15.7783 39.7473 15.7815 39.7297 15.7867C38.9016 16.0557 38.0628 16.368 37.2275 16.7292L37.2291 16.7293ZM21.2531 49.9707C21.3344 49.868 21.348 49.7541 21.2658 49.7292C20.7211 49.5569 20.1978 49.3228 19.7062 49.0316C19.6869 49.0213 19.665 49.0167 19.6431 49.0184C19.5546 49.0305 19.4737 49.0752 19.4163 49.1438C19.3171 49.254 19.2915 49.365 19.3575 49.4087C19.8612 49.7074 20.3966 49.9489 20.9539 50.1287L21.0024 50.1313C21.0533 50.123 21.102 50.1045 21.1456 50.0769C21.1892 50.0494 21.2267 50.0133 21.2561 49.9709L21.2531 49.9707ZM53.1515 25.4881C53.0929 25.5114 53.0402 25.5474 52.9971 25.5934C52.954 25.6394 52.9215 25.6943 52.902 25.7542C52.7396 26.51 52.5325 27.2555 52.2819 27.9868C52.2531 28.0734 52.2877 28.1352 52.3722 28.1321L52.4152 28.1229C52.4757 28.1049 52.5313 28.0735 52.578 28.031C52.6247 27.9886 52.6612 27.9361 52.6848 27.8776C52.9436 27.1306 53.1559 26.3682 53.3204 25.595C53.3369 25.5131 53.2976 25.467 53.2276 25.4701C53.2011 25.4716 53.1759 25.4777 53.1515 25.4881ZM48.8826 35.0897C48.9559 34.9804 48.9475 34.8813 48.8621 34.8608C48.8515 34.8591 48.8409 34.8586 48.8303 34.8592C48.7756 34.8683 48.7234 34.8889 48.6772 34.9196C48.631 34.9502 48.5917 34.9902 48.5619 35.037C48.0168 35.8121 47.4165 36.5965 46.7807 37.3614C46.6994 37.4642 46.6858 37.5781 46.7679 37.6029L46.8113 37.6151C46.861 37.6078 46.9087 37.5905 46.9515 37.5643C46.9944 37.5382 47.0316 37.5036 47.0608 37.4628C47.7095 36.6833 48.3197 35.8843 48.8835 35.0875L48.8826 35.0897ZM30.3161 49.5155C30.3742 49.4928 30.4268 49.4579 30.4703 49.4132C30.5137 49.3685 30.5471 49.315 30.5682 49.2563C30.5955 49.1704 30.5558 49.119 30.4789 49.1225C30.4567 49.1234 30.4347 49.1277 30.4137 49.135C29.6359 49.398 28.8444 49.6186 28.0427 49.7959C27.9826 49.8132 27.9272 49.8435 27.8802 49.8847C27.8333 49.9259 27.796 49.977 27.7711 50.0343C27.7271 50.1352 27.7686 50.1974 27.8532 50.1905L27.8858 50.1922C28.7071 50.009 29.5183 49.7831 30.3161 49.5155ZM46.2167 15.0607C46.1494 15.1702 46.1639 15.2689 46.253 15.279C46.8763 15.3333 47.4933 15.4451 48.0961 15.6127L48.1377 15.6149C48.1898 15.6075 48.2398 15.5895 48.2846 15.562C48.3294 15.5344 48.3681 15.498 48.3982 15.4549C48.4845 15.3448 48.4856 15.2378 48.4057 15.2131C47.7883 15.0414 47.1567 14.9256 46.5185 14.8671C46.511 14.866 46.5034 14.8656 46.4958 14.8659C46.4384 14.8762 46.3839 14.8985 46.3358 14.9315C46.2878 14.9644 46.2472 15.0071 46.2169 15.0569L46.2167 15.0607ZM17.2213 37.3238C17.2815 37.3049 17.3368 37.2731 17.3834 37.2306C17.4299 37.1881 17.4667 37.1359 17.491 37.0777C17.7817 36.2839 18.1148 35.5063 18.489 34.7483C18.5374 34.6498 18.5275 34.5658 18.4301 34.5698C18.4182 34.5705 18.4065 34.5722 18.3949 34.5747C18.3331 34.5886 18.2751 34.6159 18.225 34.6547C18.1749 34.6935 18.134 34.7429 18.1051 34.7993C17.7261 35.5744 17.388 36.369 17.0923 37.1796C17.0524 37.2731 17.0939 37.3353 17.1784 37.3314L17.2213 37.3238ZM25.5911 50.5437C25.6523 50.5319 25.71 50.5061 25.7596 50.4683C25.8091 50.4305 25.8492 50.3817 25.8767 50.3257C25.9311 50.217 25.8911 50.1405 25.7936 50.1452C25.565 50.1619 25.3311 50.1784 25.1037 50.1846L25.052 50.1864C24.3944 50.2146 23.7357 50.1901 23.082 50.1131L23.0684 50.1124C23.0096 50.1203 22.9532 50.1408 22.903 50.1725C22.8529 50.2041 22.8101 50.2462 22.7777 50.2959C22.7036 50.4051 22.7189 50.5039 22.808 50.5139C23.4771 50.5927 24.1515 50.6191 24.8248 50.5927L24.8773 50.5901C25.1106 50.5807 25.3484 50.5637 25.5906 50.5391L25.5911 50.5437ZM19.4379 32.3691C19.3665 32.486 19.392 32.577 19.4852 32.5804L19.492 32.5808C19.5524 32.5699 19.6097 32.546 19.66 32.5108C19.7102 32.4756 19.7522 32.4298 19.783 32.3768C20.2581 31.5904 20.7858 30.8022 21.3503 30.0197C21.432 29.9102 21.4263 29.8036 21.3414 29.7862C21.329 29.7832 21.3162 29.7826 21.3036 29.7842C21.2511 29.7943 21.2013 29.8148 21.1568 29.8444C21.1124 29.874 21.0743 29.9121 21.0447 29.9565C20.471 30.7544 19.9243 31.5719 19.4408 32.3723L19.4379 32.3691ZM42.1413 15.1629C42.0795 15.1786 42.0222 15.2083 41.9738 15.2497C41.9254 15.2911 41.8872 15.3431 41.8621 15.4017C41.823 15.4953 41.8603 15.5648 41.945 15.5579L41.9707 15.5593C42.7054 15.41 43.4493 15.31 44.1973 15.2597C44.2592 15.2475 44.3176 15.2216 44.3682 15.184C44.4188 15.1463 44.4603 15.0978 44.4898 15.0421C44.551 14.933 44.5239 14.8556 44.4178 14.853C43.6533 14.9092 42.893 15.0132 42.1413 15.1629ZM50.7665 32.1018L50.7984 32.0436C51.1341 31.4403 51.4438 30.8387 51.7185 30.2528C51.765 30.149 51.7358 30.0707 51.652 30.0746C51.6412 30.0751 51.6305 30.0766 51.6199 30.079C51.5593 30.0938 51.5026 30.1216 51.4538 30.1604C51.4049 30.1992 51.3651 30.2482 51.337 30.3039C51.0656 30.8832 50.7642 31.4708 50.437 32.0593L50.6181 32.0515L50.4085 32.1102C50.3036 32.299 50.1979 32.4878 50.0903 32.6696C50.0197 32.7858 50.0486 32.8701 50.1487 32.8731L50.1555 32.8735C50.2152 32.8633 50.2718 32.8397 50.321 32.8044C50.3702 32.7692 50.4108 32.7231 50.4396 32.6699C50.5513 32.4807 50.6631 32.2915 50.768 32.1027" fill="#F40F3E"/>
<path d="M28.1757 15.7266L30.086 20.1787C26.942 22.4701 24.1094 25.1608 21.6594 28.1829L16.9832 26.3409C20.2461 22.34 24.0075 18.7729 28.1757 15.7266Z" fill="#F5F5F5"/>
<path d="M49.0279 7.15145L49.104 7.14789C50.9633 7.07632 52.616 7.26257 54.0711 7.65547L48.9975 14.4176C47.9112 14.1012 46.6685 13.9549 45.2723 14.0137L45.1917 14.0171C43.7507 14.0878 42.3226 14.3239 40.9355 14.7209L43.3611 8.07129C45.3043 7.54713 47.2124 7.22762 49.0279 7.15145Z" fill="#F5F5F5"/>
<path d="M15.9067 38.4788C14.9899 41.4541 14.9007 44.083 15.5517 46.184L8.47094 50.9806C7.6142 48.1786 7.74166 44.6832 8.91217 40.7738L15.9067 38.4788Z" fill="#F5F5F5"/>
<path d="M61.1679 14.452C62.0315 17.2536 61.9078 20.7356 60.735 24.644L53.7397 26.939C54.652 23.9779 54.7449 21.3491 54.0879 19.2478L61.1679 14.452Z" fill="#F5F5F5"/>
<path d="M28.7801 50.6791L26.3774 57.3405C25.9884 57.4475 25.6014 57.5431 25.2164 57.6313L25.1503 57.646L24.8884 57.7042C23.48 58.0157 22.0475 58.2063 20.6067 58.2738C20.5306 58.2774 20.4546 58.2787 20.3846 58.2818L20.2249 58.2863L20.0859 58.2888L19.8716 58.2918L19.7912 58.2914L19.5224 58.2908C18.2098 58.2853 16.9027 58.119 15.6305 57.7954L20.6774 51.0349C21.7774 51.3361 23.0182 51.4755 24.4205 51.4169C25.8974 51.3415 27.3606 51.0939 28.7801 50.6791Z" fill="#F5F5F5"/>
<path d="M47.9869 37.2347L52.6722 39.0772C49.4061 43.0793 45.6428 46.6484 41.4734 49.698L39.5528 45.2522C42.7008 42.9578 45.5361 40.2626 47.9869 37.2347Z" fill="#F5F5F5"/>
<path d="M60.7917 13.3844C60.9355 13.7335 61.0611 14.0898 61.1679 14.452L67.0945 20.9374C66.9896 20.5802 66.8665 20.2286 66.7259 19.8839C66.7262 19.8786 66.7211 19.8745 66.719 19.8698C66.524 19.4064 66.2939 18.9584 66.0308 18.5298C65.9688 18.4256 65.9036 18.3242 65.8376 18.2228C65.5713 17.8066 65.272 17.4124 64.9427 17.0442L59.0206 10.5582C59.3494 10.9266 59.6479 11.321 59.9132 11.7375C59.98 11.8389 60.0444 11.941 60.1072 12.0453C60.3689 12.4737 60.5977 12.9214 60.7917 13.3844Z" fill="#800505"/>
<path d="M65.2551 34.9071C65.2749 34.8626 65.2893 34.8193 65.3084 34.7748C65.4915 34.3556 65.6523 33.9435 65.8138 33.5315C65.892 33.3306 65.9818 33.1258 66.0546 32.927C66.2786 32.3194 66.4807 31.7202 66.6608 31.1294L60.7342 24.644C60.5564 25.2344 60.353 25.834 60.1288 26.4416C60.0552 26.6412 59.9654 26.846 59.8872 27.0468C59.7264 27.4589 59.5649 27.8709 59.3825 28.2894C59.2165 28.6716 59.032 29.0589 58.8475 29.4462C58.7536 29.6424 58.6697 29.8361 58.5712 30.0336C58.2771 30.6254 57.9638 31.223 57.6266 31.8269C56.1886 34.3823 54.5301 36.8073 52.6701 39.0742L58.596 45.5589C60.4564 43.2925 62.1149 40.8677 63.5525 38.3122C63.8882 37.7083 64.2038 37.1108 64.4978 36.5182C64.5956 36.3215 64.6802 36.1286 64.7733 35.9323C64.9365 35.5902 65.1066 35.2439 65.2551 34.9071Z" fill="#8E0606"/>
<path d="M15.633 57.791C13.5433 57.2248 11.8642 56.2172 10.6141 54.8497L16.54 61.3351C17.7901 62.7026 19.4701 63.7072 21.5589 64.2756L15.633 57.791Z" fill="#7B0505"/>
<path d="M67.2817 28.581C67.3163 28.4014 67.3493 28.2225 67.3785 28.0449C67.422 27.7814 67.4585 27.5222 67.4957 27.2645C67.5168 27.0964 67.5401 26.9283 67.5572 26.7629C67.5844 26.4934 67.6022 26.2293 67.6176 25.966C67.6254 25.8191 67.6401 25.6703 67.6409 25.5261C67.6526 25.2063 67.6509 24.8935 67.6446 24.5834C67.6428 24.5028 67.6464 24.4195 67.6438 24.3396C67.6443 24.3313 67.6447 24.323 67.6451 24.3147C67.6465 24.2882 67.6387 24.2634 67.637 24.2383C67.6139 23.7459 67.5651 23.255 67.491 22.7676C67.472 22.6385 67.4512 22.5109 67.4285 22.3847C67.3463 21.8974 67.2344 21.4156 67.0935 20.9419L61.1678 14.452C61.3089 14.9257 61.4211 15.4075 61.5037 15.8948C61.5258 16.022 61.5463 16.1496 61.5654 16.2777C61.6391 16.7671 61.6873 17.26 61.7096 17.7544C61.7077 17.7892 61.7159 17.8223 61.717 17.8572C61.7196 17.9371 61.716 18.0212 61.7178 18.1017C61.7241 18.4111 61.7258 18.7239 61.7142 19.0437C61.7066 19.1876 61.6987 19.3367 61.6909 19.4836C61.6769 19.747 61.6575 20.0132 61.6297 20.2805C61.6126 20.4459 61.59 20.614 61.5682 20.7821C61.5355 21.04 61.499 21.3 61.4554 21.5634C61.4256 21.7403 61.3925 21.9192 61.3588 22.0981C61.3189 22.3055 61.2737 22.5149 61.2276 22.7251C61.0895 23.3547 60.9327 23.9925 60.7371 24.6472L66.6616 31.1294C66.858 30.4748 67.014 29.837 67.1522 29.2066C67.1691 29.1316 67.1964 29.0457 67.2126 28.9684C67.2386 28.8369 67.2574 28.7103 67.2817 28.581Z" fill="#949494"/>
<path d="M26.3745 57.3405C25.9854 57.4474 25.5985 57.5431 25.2134 57.6312L25.1474 57.646L24.8854 57.7042C23.477 58.0157 22.0446 58.2062 20.6038 58.2738C20.5276 58.2773 20.4517 58.2786 20.3816 58.2818L20.222 58.2862L20.0829 58.2887L19.8687 58.2918L19.7882 58.2913L19.5195 58.2908C18.2068 58.2853 16.8997 58.1189 15.6275 57.7953L21.5557 64.2808C22.8279 64.604 24.135 64.7704 25.4476 64.7762L25.7171 64.7769L25.7928 64.7809L26.0078 64.7778L26.1461 64.7753L26.3066 64.7701L26.5286 64.7629C27.9695 64.6954 29.4019 64.5048 30.8103 64.1933L31.0732 64.1313L31.1393 64.1159L31.3561 64.0658C31.6697 63.9919 31.9843 63.9116 32.2996 63.8251L26.3745 57.3405Z" fill="#858585"/>
<path d="M39.6204 60.9726C39.7288 60.9184 39.837 60.8679 39.9454 60.813C40.5125 60.5226 41.0793 60.2183 41.6458 59.9001C41.7937 59.8176 41.941 59.7305 42.0882 59.6457C42.3474 59.497 42.6063 59.3528 42.865 59.1987C42.9788 59.1288 43.0906 59.0535 43.2043 58.9844C43.6914 58.689 44.1754 58.3814 44.6582 58.0676C44.8797 57.9275 45.102 57.7874 45.3233 57.6359C46.0199 57.1687 46.7136 56.6869 47.3992 56.1835L41.4734 49.6981C40.7877 50.2023 40.0941 50.6833 39.3967 51.1513C39.1763 51.299 38.9533 51.4383 38.7316 51.5822C38.2488 51.896 37.7648 52.2036 37.2785 52.499C36.9067 52.7245 36.5351 52.9462 36.1624 53.1603C36.0144 53.2451 35.867 53.3322 35.7191 53.4155C35.1535 53.7325 34.5868 54.0388 34.0188 54.3275C33.9104 54.3825 33.8022 54.433 33.6938 54.4872C33.2259 54.7211 32.7585 54.9456 32.2916 55.1607C32.1165 55.241 31.9423 55.3191 31.7681 55.3964C31.4689 55.5286 31.1708 55.651 30.872 55.7749C30.3342 55.9995 29.7975 56.2094 29.2618 56.4047C29.0357 56.4869 28.8103 56.5729 28.5852 56.6506C27.8444 56.9059 27.1053 57.1423 26.3744 57.3405L32.3003 63.8251C33.032 63.627 33.7703 63.3913 34.5119 63.1352C34.7369 63.0583 34.9616 62.9723 35.1876 62.8901C35.7234 62.6938 36.2609 62.4836 36.8002 62.2596C36.9376 62.2024 37.0735 62.1579 37.211 62.0992C37.3718 62.0318 37.5323 61.9537 37.6932 61.8825C37.8682 61.8045 38.0431 61.7265 38.2182 61.6454C38.6861 61.4313 39.1535 61.207 39.6204 60.9726Z" fill="#800505"/>
<path d="M56.3342 48.1728C56.4543 48.0418 56.5714 47.909 56.69 47.7771C57.3433 47.0526 57.9822 46.3135 58.5961 45.5595L52.6702 39.0749C52.0578 39.829 51.4167 40.5664 50.7625 41.2932C50.6447 41.4244 50.5276 41.5571 50.4084 41.6874C49.7739 42.3806 49.1235 43.0588 48.4573 43.722C48.3274 43.851 48.1963 43.9769 48.0658 44.1044C47.3708 44.7835 46.6643 45.4513 45.9402 46.094L45.8773 46.1483C45.1605 46.7807 44.4344 47.3891 43.6969 47.9832C43.5526 48.0993 43.4096 48.2177 43.2647 48.3315C42.6736 48.799 42.0769 49.2556 41.4757 49.6982L47.4016 56.1836C48.0042 55.7433 48.6002 55.2844 49.1913 54.817C49.2539 54.7679 49.3177 54.7227 49.3802 54.6751C49.4596 54.6095 49.5394 54.5363 49.6234 54.4709C50.3601 53.8767 51.0893 53.2685 51.8038 52.636L51.8667 52.5817C52.5909 51.9367 53.2965 51.2711 53.9923 50.592C54.1228 50.4646 54.2539 50.3387 54.383 50.2096C55.0468 49.5448 55.6972 48.8659 56.3342 48.1728Z" fill="#949494"/>
<path style="mix-blend-mode:screen" d="M60.7387 24.6397C60.0479 26.9163 59.0285 29.3206 57.63 31.8293C56.1888 34.3835 54.5297 36.8086 52.6712 39.0773C49.4051 43.0784 45.6429 46.6474 41.4753 49.6982C36.5777 53.2978 31.3392 55.994 26.371 57.3418C25.9859 57.4459 25.5929 57.5398 25.2167 57.6337C25.1963 57.6326 25.1753 57.6422 25.1541 57.641C25.0593 57.6671 24.9757 57.6832 24.8919 57.7031C23.4832 58.0133 22.0509 58.2046 20.6101 58.2749C20.5339 58.2815 20.4642 58.2778 20.3917 58.2846C20.3193 58.2914 20.2769 58.2884 20.2254 58.2857C20.1806 58.2921 20.1352 58.2933 20.0901 58.2891C20.0176 58.2959 19.9449 58.2921 19.8717 58.2981L19.7892 58.2937C19.6995 58.298 19.6095 58.2968 19.5199 58.29C18.2094 58.2884 16.9044 58.1216 15.6356 57.7935C13.7705 57.287 12.2286 56.4272 11.0241 55.2739C9.81964 54.1207 8.973 52.6759 8.47148 50.9791C7.61414 48.174 7.73674 44.6844 8.90732 40.7736C9.58767 38.507 10.6182 36.0927 12.0162 33.5939C13.4588 31.0381 15.1216 28.6131 16.9856 26.3464C20.2449 22.3428 24.004 18.7735 28.1708 15.7257C33.0919 12.1145 38.3704 9.40895 43.3583 8.07508C45.2083 7.55932 47.1096 7.2496 49.0276 7.15158C49.048 7.15266 49.0796 7.1437 49.1038 7.14499C50.9644 7.07804 52.6252 7.2556 54.0767 7.65743C57.7548 8.65094 60.1719 11.0611 61.1674 14.4543C62.0328 17.2492 61.9103 20.7388 60.7387 24.6397Z" fill="url(#paint0_linear_224:49)"/>
<path style="mix-blend-mode:multiply" d="M67.6446 24.5833C67.6428 24.5028 67.6464 24.4195 67.6438 24.3396C67.6443 24.3313 67.6447 24.323 67.6452 24.3146C67.6466 24.2881 67.6388 24.2634 67.6371 24.2383C67.6139 23.7458 67.5651 23.2549 67.491 22.7676C67.472 22.6385 67.4512 22.5109 67.4285 22.3847C67.3463 21.8974 67.2344 21.4156 67.0935 20.9419C66.989 20.5832 66.8663 20.2301 66.7259 19.8839C66.7262 19.8786 66.7211 19.8745 66.7191 19.8698C66.5249 19.4067 66.2961 18.9588 66.0346 18.5301C65.9718 18.4258 65.9066 18.3244 65.8406 18.2229C65.5743 17.8067 65.2751 17.4126 64.9457 17.0443L59.0206 10.5582C59.3494 10.9267 59.6479 11.321 59.9132 11.7375C59.98 11.8389 60.0444 11.9411 60.1072 12.0454C60.3692 12.4736 60.598 12.9213 60.7917 13.3844C60.9355 13.7335 61.0611 14.0898 61.1679 14.452C61.3091 14.9256 61.4212 15.4075 61.5037 15.8948C61.5258 16.022 61.5466 16.1496 61.5661 16.2777C61.6393 16.7671 61.6872 17.26 61.7096 17.7543C61.7078 17.7892 61.7159 17.8222 61.7171 17.8572C61.7197 17.9371 61.716 18.0204 61.7178 18.1017C61.7242 18.411 61.7258 18.7239 61.7142 19.0437C61.7066 19.1875 61.6987 19.3367 61.6909 19.4835C61.6769 19.747 61.6575 20.0132 61.6297 20.2805C61.6126 20.4458 61.59 20.6139 61.5682 20.7821C61.5356 21.04 61.499 21.3 61.4554 21.5634C61.4256 21.7402 61.3926 21.9192 61.3588 22.0981C61.319 22.3055 61.2737 22.5149 61.2276 22.725C61.0895 23.3547 60.9328 23.9925 60.7371 24.6471C60.5593 25.2375 60.356 25.8371 60.1317 26.4447C60.0581 26.6443 59.9683 26.8491 59.8901 27.0499C59.7294 27.462 59.5678 27.874 59.3855 28.2925C59.2195 28.6747 59.035 29.062 58.8505 29.4493C58.7566 29.6455 58.6727 29.8392 58.5741 30.0367C58.2801 30.6285 57.9668 31.2261 57.6296 31.83C56.1915 34.3854 54.5331 36.8104 52.6731 39.0774C52.0607 39.8314 51.4196 40.5688 50.7662 41.2957C50.6476 41.4268 50.5305 41.5595 50.4112 41.6899C49.7749 42.3809 49.1235 43.0583 48.4572 43.722C48.3274 43.851 48.1962 43.9769 48.0657 44.1044C47.3708 44.7835 46.6643 45.4513 45.9401 46.094C45.9202 46.1126 45.898 46.1297 45.878 46.1484C45.1612 46.7808 44.4344 47.3891 43.6968 47.9832C43.5525 48.0993 43.4096 48.217 43.2646 48.3315C42.6735 48.799 42.0769 49.2556 41.4757 49.6982C40.7901 50.2017 40.0964 50.6835 39.399 51.1514C39.1786 51.2991 38.9556 51.4384 38.7339 51.5823C38.2511 51.8961 37.7672 52.2037 37.2808 52.4991C36.909 52.7246 36.5374 52.9464 36.1647 53.1604C36.0167 53.2452 35.8694 53.3323 35.7215 53.4156C35.1558 53.7326 34.5892 54.0389 34.0212 54.3277C33.9127 54.3826 33.8045 54.4331 33.6961 54.4873C33.2282 54.7212 32.7608 54.9457 32.2939 55.1609C32.1188 55.2412 31.9447 55.3192 31.7705 55.3966C31.4712 55.5288 31.1732 55.6511 30.8751 55.775C30.3363 55.9996 29.7993 56.2095 29.2641 56.4049C29.0381 56.487 28.8126 56.573 28.5876 56.6507C27.8467 56.906 27.1077 57.1424 26.3767 57.3406C25.9877 57.4475 25.6007 57.5432 25.2157 57.6313L25.1496 57.6461L24.8876 57.7043C23.4793 58.0158 22.0468 58.2063 20.606 58.2739L20.3839 58.2819L20.2242 58.2863L20.0852 58.2888L19.8709 58.2919L19.7905 58.2914L19.5217 58.2909C18.2122 58.2852 16.9082 58.1195 15.6388 57.7974L15.6331 57.7911C13.5434 57.2248 11.8643 56.2173 10.6142 54.8498L16.5401 61.3352C17.788 62.7003 19.4643 63.7031 21.547 64.272L21.5541 64.2807C22.8264 64.6039 24.1334 64.7703 25.4461 64.7762L25.7156 64.7768C25.7421 64.7782 25.7686 64.7796 25.7915 64.7762L26.0065 64.774L26.1448 64.7714L26.3052 64.7663L26.5273 64.759C27.9682 64.6915 29.4006 64.501 30.809 64.1895L31.0719 64.1275L31.138 64.112L31.3547 64.062C31.6684 63.9882 31.9824 63.9085 32.299 63.8212C33.03 63.6231 33.7645 63.3872 34.5099 63.1313C34.7349 63.0544 34.9596 62.9684 35.1857 62.8862C35.7214 62.6899 36.2589 62.4797 36.7982 62.2557C36.9356 62.1985 37.0716 62.154 37.209 62.0953C37.3698 62.0279 37.5303 61.9498 37.6912 61.8786C37.8662 61.8006 38.0411 61.7226 38.2162 61.6415C38.6831 61.4273 39.1505 61.2031 39.6184 60.9687C39.7268 60.9145 39.835 60.864 39.9435 60.809C40.5105 60.5187 41.0773 60.2144 41.6438 59.8962C41.7917 59.8137 41.939 59.7266 42.0862 59.6418C42.3454 59.4931 42.6051 59.3489 42.863 59.1948C42.9768 59.1249 43.0886 59.0496 43.2024 58.9805C43.6895 58.6851 44.1734 58.3775 44.6562 58.0637C44.8777 57.9236 45.1 57.7835 45.3213 57.632C46.018 57.1648 46.7116 56.683 47.3973 56.1788C47.9998 55.7393 48.5958 55.2804 49.1869 54.8129C49.2495 54.7639 49.3134 54.7187 49.3759 54.6711C49.4553 54.6055 49.5351 54.5322 49.619 54.4668C50.3558 53.8727 51.0849 53.2645 51.7994 52.632L51.8623 52.5776C52.5865 51.9327 53.2922 51.2671 53.9879 50.588C54.1184 50.4606 54.2496 50.3346 54.3786 50.2056C55.0464 49.5425 55.6975 48.8644 56.332 48.1712C56.4521 48.0401 56.5692 47.9074 56.6878 47.7755C57.3411 47.0509 57.98 46.3119 58.5939 45.5579C60.4542 43.2916 62.1127 40.8668 63.5504 38.3113C63.886 37.7073 64.2016 37.1098 64.4957 36.5173C64.5934 36.3205 64.678 36.1276 64.7712 35.9314C64.9343 35.5893 65.1044 35.2445 65.2529 34.9062C65.2727 34.8617 65.2872 34.8184 65.3062 34.7739C65.4894 34.3546 65.6539 33.9427 65.8117 33.5305C65.8899 33.3297 65.9797 33.1249 66.0532 32.9261C66.2767 32.3184 66.4801 31.718 66.6586 31.1285C66.855 30.4738 67.011 29.836 67.1492 29.2056C67.1661 29.1306 67.1934 29.0448 67.2097 28.9674C67.2371 28.836 67.2552 28.7094 67.2795 28.5801C67.3141 28.4005 67.3471 28.2216 67.3762 28.044C67.4206 27.7806 67.4563 27.5213 67.4935 27.2636C67.5146 27.0955 67.5379 26.9274 67.555 26.762C67.5822 26.4924 67.6 26.2277 67.6154 25.9651C67.6232 25.8182 67.6379 25.6694 67.6387 25.5252C67.6526 25.2056 67.6509 24.8934 67.6446 24.5833Z" fill="url(#paint1_linear_224:49)"/>
<g style="mix-blend-mode:soft-light">
<g style="mix-blend-mode:soft-light">
<path d="M54.0762 7.6581C55.5058 8.01549 56.9113 8.60012 58.0871 9.53471C59.2791 10.4634 60.2308 11.6646 60.8624 13.0374C61.4893 14.4118 61.8667 15.8868 61.9769 17.3934C62.1 18.8963 61.9867 20.4057 61.7488 21.8864C61.248 24.8488 60.2085 27.6885 58.9018 30.3721C57.5733 33.05 55.959 35.5761 54.1642 37.9568C52.3622 40.3339 50.3847 42.5728 48.2484 44.6545C46.1069 46.7309 43.8109 48.6416 41.3801 50.3703C38.9594 52.115 36.3989 53.6571 33.7246 54.9808C32.3869 55.6439 31.0124 56.2301 29.6079 56.7366C28.202 57.2453 26.7649 57.6629 25.3054 57.9868L25.1947 57.9984L25.1329 58.0043L25.2481 57.9921C24.8157 58.0862 24.4454 58.1546 24.0348 58.2247C23.6241 58.2948 23.2324 58.3523 22.8297 58.4023C22.4269 58.4523 22.0216 58.4931 21.6161 58.5233L21.0067 58.5616L20.4134 58.5833L20.3907 58.5821L20.3703 58.581L20.2048 58.5806L20.281 58.5755L20.0734 58.582L20.115 58.5842L19.8968 58.5908L19.8597 58.5889L19.8544 58.5886L19.7719 58.5842L19.8082 58.5862L18.8654 58.5544C18.5581 58.5382 18.2505 58.512 17.944 58.4783C17.3303 58.4134 16.7216 58.3076 16.122 58.1616C14.9181 57.8762 13.7663 57.4041 12.7084 56.7623C11.6573 56.1162 10.7423 55.2714 10.0145 54.2752C9.30304 53.2809 8.78131 52.1638 8.47553 50.98C8.84408 52.132 9.41538 53.2089 10.1625 54.16C10.9095 55.0993 11.8331 55.8832 12.8812 56.4678C13.9256 57.0461 15.0544 57.4569 16.2262 57.685C16.811 57.801 17.4016 57.8848 17.9955 57.9359C18.2928 57.9608 18.5906 57.9766 18.8889 57.9832L19.7652 57.9932L19.8015 57.9951L19.8841 57.9995L19.8432 57.9974L20.0602 57.9853L20.1026 57.9876C20.1231 57.9856 20.1437 57.9867 20.1639 57.9908L20.2401 57.9857L20.4058 57.9824L20.3634 57.9801L20.9728 57.9418L21.5646 57.8904C21.9584 57.8515 22.3513 57.8022 22.7431 57.7425C23.135 57.6828 23.5253 57.6154 23.9139 57.5403C24.2929 57.4663 24.7091 57.3767 25.059 57.292L25.1751 57.2792L25.237 57.2711L25.1271 57.282C26.5494 56.9299 27.9474 56.4861 29.3123 55.9534C30.6738 55.4182 32.0159 54.8333 33.3246 54.1761C35.9418 52.8523 38.4456 51.3154 40.8107 49.581C43.1899 47.8644 45.4206 45.9533 47.5342 43.919C49.6518 41.8891 51.6145 39.7035 53.4059 37.3806C55.1895 35.0548 56.7929 32.5896 58.1148 29.9789C59.4367 27.3683 60.5366 24.6335 61.0899 21.7695C61.3562 20.3411 61.5019 18.8806 61.4192 17.4314C61.3468 15.9791 61.0328 14.5489 60.4901 13.1998C59.9343 11.8489 59.0623 10.6512 57.9474 9.70724C56.834 8.75545 55.4889 8.09203 54.0762 7.6581Z" fill="#F6F6F6"/>
</g>
</g>
</g>
<defs>
<filter id="filter0_f_224:49" x="0" y="-2" width="75.5649" height="75.9113" filterUnits="userSpaceOnUse" color-interpolation-filters="sRGB">
<feFlood flood-opacity="0" result="BackgroundImageFix"/>
<feBlend mode="normal" in="SourceGraphic" in2="BackgroundImageFix" result="shape"/>
<feGaussianBlur stdDeviation="3.5" result="effect1_foregroundBlur_224:49"/>
</filter>
<linearGradient id="paint0_linear_224:49" x1="-27.2206" y1="48.2176" x2="57.1435" y2="27.1413" gradientUnits="userSpaceOnUse">
<stop stop-color="white"/>
<stop offset="1"/>
</linearGradient>
<linearGradient id="paint1_linear_224:49" x1="48.9083" y1="34.6333" x2="5.77953" y2="81.7963" gradientUnits="userSpaceOnUse">
<stop stop-color="white"/>
<stop offset="0.15" stop-color="#FBFBFB"/>
<stop offset="0.32" stop-color="#EDEDEE"/>
<stop offset="0.49" stop-color="#D7D8D8"/>
<stop offset="0.67" stop-color="#B9B9BB"/>
<stop offset="0.86" stop-color="#929295"/>
<stop offset="1" stop-color="#6D6E71"/>
</linearGradient>
<clipPath id="clip0_224:49">
<rect width="58.5313" height="58.8975" fill="white" transform="translate(10.1156 5) rotate(3.03229)"/>
</clipPath>
</defs>
</svg>
