<svg width="196" height="205" viewBox="0 0 196 205" fill="none" xmlns="http://www.w3.org/2000/svg">
<g clip-path="url(#clip0_224:139)">
<path d="M71.8616 68.0549C70.0114 69.9034 68.2037 71.8411 66.4914 73.819L66.0134 74.1303L65.8036 74.0738C65.6495 73.951 65.7422 73.5984 65.968 73.3325C67.7377 71.2897 69.5775 69.3082 71.4692 67.4319C71.5796 67.3109 71.7232 67.225 71.882 67.185C71.9281 67.1695 71.978 67.1701 72.0237 67.1864C72.0694 67.2028 72.1083 67.234 72.1342 67.2752C72.2545 67.4403 72.1303 67.8011 71.8616 68.0549Z" fill="#CBC7C7"/>
<path d="M56.4892 86.8634L56.3482 86.8701C56.1536 86.8119 56.1477 86.5136 56.3407 86.216C57.7633 83.9935 59.2949 81.7664 60.9038 79.623C61.0284 79.4383 61.2149 79.3041 61.4297 79.2447C61.4923 79.2298 61.5582 79.2388 61.6144 79.2701C61.7904 79.3688 61.769 79.6702 61.5385 79.9767C59.9634 82.0777 58.4541 84.2422 57.0638 86.4241C56.9364 86.6394 56.7304 86.7969 56.4892 86.8634Z" fill="#CBC7C7"/>
<path d="M49.2974 100.284C49.0566 100.308 48.9588 100.084 49.1006 99.7562C50.0643 97.5223 51.1764 95.2239 52.3846 92.9578C52.5085 92.7056 52.7271 92.5125 52.9928 92.4207C53.0252 92.4145 53.0585 92.4139 53.0912 92.4188C53.3165 92.435 53.3656 92.7068 53.1974 93.0186C52.0237 95.2346 50.9443 97.4538 49.996 99.6474C49.935 99.7948 49.8428 99.9273 49.7257 100.036C49.6087 100.144 49.4696 100.226 49.318 100.276L49.2974 100.284Z" fill="#CBC7C7"/>
<path d="M47.5007 106.21C46.8022 108.301 46.2166 110.427 45.7464 112.58C45.7041 112.739 45.6278 112.886 45.5227 113.012C45.4177 113.137 45.2865 113.239 45.1382 113.308L45.0314 113.345C44.814 113.385 44.6866 113.239 44.7616 112.989C45.2395 110.792 45.8319 108.621 46.5363 106.486C46.591 106.33 46.6793 106.188 46.7948 106.07C46.9104 105.952 47.0504 105.861 47.2051 105.803C47.2337 105.793 47.2633 105.785 47.2933 105.779C47.534 105.727 47.5919 105.94 47.5007 106.21Z" fill="#CBC7C7"/>
<path d="M44.7935 118.623C44.6139 120.486 44.5715 122.36 44.6667 124.229C44.6496 124.392 44.5959 124.549 44.5097 124.687C44.4234 124.826 44.3068 124.944 44.1686 125.031L43.9354 125.122L43.6509 124.896C43.5522 122.983 43.599 121.066 43.791 119.161C43.8209 119.001 43.8865 118.85 43.9827 118.72C44.0789 118.589 44.2033 118.481 44.3467 118.405C44.4024 118.372 44.4633 118.348 44.5268 118.335C44.6905 118.297 44.8067 118.411 44.7935 118.623Z" fill="#CBC7C7"/>
<path d="M45.3472 129.289C45.6889 130.82 46.1801 132.313 46.8138 133.748C46.9105 133.936 46.7599 134.281 46.4898 134.536L46.112 134.753L45.8504 134.633C45.1961 133.173 44.6849 131.652 44.3239 130.093C44.3251 129.935 44.364 129.779 44.4374 129.638C44.5108 129.498 44.6165 129.377 44.7459 129.286C44.835 129.21 44.9411 129.157 45.0551 129.131C45.0846 129.121 45.1158 129.118 45.1467 129.12C45.1777 129.123 45.2077 129.132 45.235 129.147C45.2623 129.162 45.2863 129.182 45.3056 129.206C45.3249 129.231 45.3391 129.259 45.3472 129.289Z" fill="#CBC7C7"/>
<path d="M125.359 49.6105L125.157 49.5716C123.992 48.7546 122.733 48.0818 121.407 47.5679C121.213 47.508 121.231 47.187 121.439 46.8877C121.569 46.6836 121.767 46.5332 121.999 46.4639C122.052 46.4531 122.107 46.4576 122.157 46.4768C123.519 46.9951 124.81 47.6813 126.001 48.5193C126.156 48.6422 126.105 48.97 125.874 49.2487L125.359 49.6105Z" fill="#CBC7C7"/>
<path d="M52.0288 140.467C52.1829 140.59 52.1155 140.921 51.881 141.205L51.3793 141.539L51.1777 141.5C50.0396 140.622 49.017 139.604 48.1342 138.47C48.0138 138.305 48.1214 137.947 48.3821 137.676C48.4955 137.545 48.6466 137.453 48.8145 137.412C48.8582 137.4 48.9042 137.4 48.9479 137.411C48.9917 137.423 49.0316 137.446 49.0639 137.477C49.9118 138.604 50.9093 139.61 52.0288 140.467Z" fill="#CBC7C7"/>
<path d="M130.871 56.151L130.617 56.0455C129.966 54.7522 129.168 53.5382 128.239 52.4275C128.119 52.2623 128.218 51.9259 128.462 51.658C128.582 51.5208 128.74 51.4229 128.916 51.3771C128.956 51.3668 128.998 51.3668 129.039 51.377C129.079 51.3873 129.116 51.4076 129.146 51.4359C130.105 52.5648 130.919 53.8091 131.569 55.1398C131.666 55.3277 131.525 55.6919 131.263 55.9264L130.871 56.151Z" fill="#CBC7C7"/>
<path d="M59.9511 143.863C60.1693 143.898 60.1753 144.196 60.0023 144.493C59.9414 144.613 59.8572 144.718 59.7547 144.805C59.6522 144.891 59.5335 144.956 59.4056 144.995L59.2811 144.999C57.7811 144.731 56.3154 144.297 54.9112 143.706C54.725 143.627 54.7522 143.322 54.9688 143.001C55.0926 142.805 55.2845 142.662 55.5075 142.6C55.5641 142.588 55.6229 142.593 55.677 142.613C57.0495 143.191 58.4835 143.61 59.9511 143.863Z" fill="#CBC7C7"/>
<path d="M133.315 65.593L133.03 65.3662C132.894 63.6861 132.617 62.0204 132.203 60.3864C132.148 60.1708 132.339 59.7994 132.609 59.5825C132.7 59.5028 132.811 59.4469 132.929 59.4199C132.959 59.4102 132.99 59.407 133.02 59.4103C133.051 59.4136 133.081 59.4234 133.107 59.439C133.134 59.4547 133.157 59.4759 133.174 59.5012C133.192 59.5264 133.204 59.5552 133.21 59.5855C133.631 61.2529 133.913 62.9525 134.053 64.6667C134.037 64.8273 133.986 64.9823 133.903 65.1205C133.819 65.2587 133.706 65.3765 133.572 65.4653L133.315 65.593Z" fill="#CBC7C7"/>
<path d="M71.7597 143.328C72.0089 143.283 72.1404 143.465 72.0385 143.763C71.9877 143.918 71.9016 144.058 71.787 144.174C71.6724 144.289 71.5325 144.376 71.3784 144.428C70.7631 144.575 70.1565 144.702 69.5585 144.811L69.4256 144.835C67.7001 145.142 65.9531 145.313 64.2008 145.348C63.9654 145.351 63.8926 145.102 64.0443 144.794C64.1112 144.657 64.2062 144.536 64.3232 144.438C64.4402 144.34 64.5764 144.268 64.7231 144.227L64.7609 144.221C66.474 144.189 68.1818 144.022 69.8684 143.72L70.0013 143.696C70.5757 143.583 71.1697 143.453 71.7597 143.328Z" fill="#CBC7C7"/>
<path d="M83.474 139.034C83.6704 139 83.7917 139.119 83.7515 139.35C83.7178 139.508 83.6506 139.657 83.5545 139.788C83.4584 139.918 83.3355 140.026 83.1941 140.105C81.232 141.077 79.2207 141.946 77.1684 142.71L77.0852 142.724C76.8678 142.764 76.7404 142.618 76.8156 142.343C76.8606 142.186 76.9392 142.041 77.0458 141.918C77.1525 141.795 77.2847 141.697 77.4333 141.63C79.4372 140.892 81.3994 140.045 83.3111 139.093C83.3622 139.066 83.4171 139.046 83.474 139.034Z" fill="#CBC7C7"/>
<path d="M131.559 82.8983C131.056 84.5053 130.472 86.1663 129.819 87.8396L129.757 88.0007C129.553 88.5246 129.334 89.0485 129.112 89.5775C129.056 89.725 128.967 89.8579 128.852 89.9663C128.737 90.0748 128.6 90.156 128.449 90.204L128.443 90.2125C128.184 90.2417 128.077 90.0349 128.221 89.709C128.433 89.2026 128.638 88.6787 128.842 88.1548L129.362 87.9297L128.897 88.013C129.533 86.3817 130.103 84.7624 130.598 83.1732C130.65 83.0195 130.736 82.879 130.848 82.7615C130.96 82.644 131.097 82.5523 131.248 82.4926C131.274 82.4828 131.301 82.4756 131.329 82.4712C131.534 82.4187 131.651 82.6198 131.559 82.8983Z" fill="#CBC7C7"/>
<path d="M95.5796 131.478C95.6099 131.468 95.642 131.465 95.6734 131.47C95.7049 131.474 95.7351 131.485 95.7617 131.503C95.7884 131.52 95.8109 131.543 95.8277 131.57C95.8445 131.597 95.8552 131.627 95.8589 131.659C95.9057 131.895 95.7068 132.249 95.4494 132.44C93.415 133.967 91.3608 135.387 89.3216 136.653L89.0968 136.751C89.0606 136.76 89.0225 136.761 88.986 136.753C88.9494 136.744 88.9154 136.727 88.8869 136.703C88.8584 136.679 88.8362 136.648 88.8223 136.613C88.8083 136.578 88.8031 136.54 88.8069 136.503C88.8259 136.342 88.8816 136.187 88.9696 136.051C89.0576 135.915 89.1756 135.8 89.3145 135.717C91.297 134.481 93.311 133.087 95.295 131.605C95.3799 131.543 95.4769 131.5 95.5796 131.478Z" fill="#CBC7C7"/>
<path d="M125.826 95.7921C126.051 95.8083 126.108 96.0592 125.957 96.3676C124.786 98.6218 123.497 100.895 122.097 103.134C122.037 103.249 121.953 103.351 121.852 103.434C121.751 103.517 121.634 103.578 121.509 103.615L121.392 103.599C121.174 103.563 121.166 103.264 121.341 102.968C122.707 100.775 123.978 98.5403 125.11 96.3491C125.171 96.2181 125.258 96.1013 125.367 96.006C125.475 95.9107 125.602 95.8391 125.74 95.7957C125.768 95.7905 125.797 95.7893 125.826 95.7921Z" fill="#CBC7C7"/>
<path d="M107.205 121.222C107.25 121.209 107.299 121.209 107.344 121.224C107.389 121.24 107.428 121.268 107.456 121.307C107.577 121.472 107.461 121.811 107.199 122.085C106.172 123.13 105.097 124.186 104.043 125.182C103.17 125.996 102.304 126.787 101.43 127.564L101.074 127.76L100.803 127.621C100.724 127.428 100.882 127.063 101.152 126.835C102.002 126.081 102.86 125.308 103.694 124.522C104.745 123.527 105.79 122.515 106.805 121.463C106.913 121.346 107.051 121.263 107.205 121.222Z" fill="#CBC7C7"/>
<path d="M117.703 109.061C117.887 109.138 117.857 109.461 117.627 109.767C116.061 111.923 114.376 114.064 112.631 116.121L112.155 116.43L111.936 116.395C111.784 116.274 111.858 115.923 112.109 115.633C113.806 113.623 115.45 111.546 116.984 109.435C117.111 109.242 117.303 109.1 117.524 109.035C117.585 109.023 117.648 109.032 117.703 109.061Z" fill="#CBC7C7"/>
<path d="M117.157 46.4401L117.049 46.44C115.438 46.2221 113.811 46.1541 112.187 46.2368C111.954 46.2416 111.881 45.9925 112.016 45.6875C112.076 45.5487 112.165 45.4243 112.277 45.3227C112.389 45.221 112.522 45.1444 112.666 45.0979L112.727 45.091C114.392 45.0184 116.06 45.0941 117.711 45.3173C117.93 45.3528 117.962 45.628 117.771 45.9378C117.708 46.0592 117.622 46.1664 117.516 46.2528C117.411 46.3393 117.288 46.403 117.157 46.4401Z" fill="#CBC7C7"/>
<path d="M132.494 77.2018C132.278 77.2401 132.166 77.0925 132.212 76.8607C132.6 74.8867 132.87 72.8914 133.023 70.8855C133.051 70.724 133.115 70.5708 133.21 70.4372C133.306 70.3036 133.429 70.1929 133.572 70.1131C133.63 70.0777 133.693 70.0523 133.76 70.038C133.939 70.0069 134.058 70.1122 134.045 70.3263C133.895 72.3784 133.617 74.4191 133.212 76.4366C133.172 76.5958 133.096 76.7439 132.991 76.8699C132.886 76.996 132.753 77.0967 132.604 77.1648L132.494 77.2018Z" fill="#CBC7C7"/>
<path d="M83.435 58.1187C81.4515 59.5647 79.4747 61.1378 77.5444 62.795L77.1974 62.9698L76.9276 62.8323C76.8545 62.6217 77.0047 62.2734 77.2834 62.0386C79.2552 60.3535 81.3023 58.734 83.306 57.2626C83.392 57.1966 83.4914 57.1501 83.5973 57.1265C83.6277 57.1173 83.6597 57.1149 83.6911 57.1194C83.7225 57.124 83.7526 57.1353 83.7791 57.1528C83.8056 57.1702 83.828 57.1933 83.8446 57.2204C83.8612 57.2474 83.8717 57.2778 83.8753 57.3093C83.9217 57.5429 83.7214 57.8984 83.435 58.1187Z" fill="#CBC7C7"/>
<path d="M95.9677 50.1267C95.932 50.2869 95.8623 50.4375 95.7633 50.5683C95.6642 50.6991 95.5382 50.8071 95.3937 50.8849C93.4205 51.8212 91.4006 52.9168 89.4171 54.1162L89.194 54.2154C89.1563 54.2258 89.1166 54.2263 89.0786 54.2169C89.0407 54.2074 89.0058 54.1884 88.9774 54.1615C88.9489 54.1347 88.9279 54.101 88.9163 54.0636C88.9047 54.0263 88.9029 53.9866 88.9111 53.9483C88.9358 53.7869 88.9954 53.6328 89.0857 53.4967C89.176 53.3606 89.2948 53.2458 89.434 53.1604C91.4591 51.9332 93.5074 50.8297 95.5508 49.847C95.5941 49.8261 95.6403 49.8115 95.6877 49.8038C95.8899 49.7656 96.0099 49.8861 95.9677 50.1267Z" fill="#CBC7C7"/>
<path d="M107.552 46.2394C107.496 46.3938 107.407 46.5338 107.29 46.6491C107.173 46.7645 107.032 46.8522 106.877 46.9058C104.966 47.2993 103.083 47.8202 101.242 48.465L101.175 48.4756C100.958 48.5156 100.837 48.3504 100.905 48.0946C100.949 47.9347 101.029 47.787 101.139 47.6629C101.249 47.5388 101.386 47.4416 101.54 47.3789C103.423 46.7273 105.344 46.1918 107.293 45.7755C107.574 45.7499 107.671 45.9378 107.552 46.2394Z" fill="#CBC7C7"/>
<path d="M106.737 49.367C127.684 45.6678 136.566 63.2518 126.654 88.5404C121.856 100.779 113.422 112.979 102.882 122.917C92.4019 132.788 81.0932 139.228 71.0255 141.042C60.8116 142.845 53.1954 139.757 49.4594 132.353C45.7234 124.95 46.303 114.126 51.1011 101.888C60.9794 76.6479 85.9296 53.1198 106.737 49.367Z" fill="#EBEBEB"/>
<path d="M137.127 105.299L124.407 102.214C119.158 110.883 112.801 118.831 105.497 125.857L112.018 136.638C100.663 147.652 88.1167 156.45 75.798 161.668L79.641 143.645C76.1284 145.213 72.445 146.366 68.6653 147.081C65.0722 147.729 61.8249 147.807 58.8807 147.419L48.2719 166.623C38.2923 165.315 31.1842 159.97 27.4052 151.599L43.9611 136.736C41.5402 131.549 40.8532 124.74 42.1589 116.744L24.9464 125.135C25.8787 119.046 27.6938 112.478 30.4191 105.522C33.2328 98.4293 36.654 91.593 40.6444 85.0892L53.3476 88.1782C58.5972 79.5256 64.9486 71.5916 72.2424 64.5754L65.7464 53.7725C77.1346 42.7275 89.7939 33.8922 102.175 28.6789L98.2902 46.6746C101.725 45.1598 105.324 44.0462 109.014 43.3558C112.796 42.6731 116.051 42.6123 118.958 43.0408L129.65 23.819C139.5 25.0988 146.56 30.4414 150.331 38.8336L133.775 53.6966C136.211 58.8785 136.901 65.6875 135.598 73.6445L152.811 65.2537C151.85 71.3537 150.075 77.9202 147.349 84.8637C144.543 91.9602 141.123 98.798 137.127 105.299ZM102.882 122.917C113.422 112.979 121.855 100.78 126.654 88.5405C136.566 63.2519 127.685 45.6679 106.853 49.3463C85.9297 53.1199 60.9794 76.648 51.1012 101.888C46.3031 114.126 45.7289 124.957 49.4595 132.353C53.1901 139.75 60.8117 142.846 70.9093 141.063C81.092 139.229 92.402 132.789 102.882 122.917ZM107.194 122.091C107.456 121.818 107.571 121.479 107.451 121.313C107.423 121.275 107.384 121.246 107.339 121.231C107.294 121.216 107.245 121.216 107.2 121.229C107.041 121.267 106.897 121.351 106.786 121.47C105.776 122.515 104.731 123.527 103.675 124.529C102.84 125.315 101.983 126.088 101.133 126.842C100.871 127.077 100.713 127.441 100.784 127.628L101.055 127.767L101.411 127.571C102.285 126.794 103.151 126.003 104.024 125.189C105.078 124.193 106.153 123.137 107.18 122.091L107.194 122.091ZM128.441 51.6635C128.197 51.9314 128.098 52.2678 128.219 52.433C129.147 53.5437 129.945 54.7577 130.596 56.051L130.85 56.1565L131.246 55.9346C131.508 55.7001 131.648 55.3359 131.552 55.148C130.901 53.8172 130.087 52.573 129.129 51.4441C129.098 51.4158 129.061 51.3955 129.021 51.3852C128.981 51.375 128.939 51.375 128.899 51.3853C128.722 51.4311 128.564 51.529 128.445 51.6662L128.441 51.6635ZM46.4884 134.538C46.7585 134.283 46.9091 133.937 46.8124 133.75C46.179 132.314 45.6883 130.82 45.3472 129.289C45.339 129.259 45.3249 129.231 45.3056 129.206C45.2863 129.182 45.2623 129.162 45.235 129.147C45.2077 129.132 45.1776 129.123 45.1467 129.12C45.1158 129.118 45.0846 129.121 45.055 129.131C44.941 129.157 44.835 129.21 44.7459 129.286C44.6165 129.377 44.5108 129.498 44.4374 129.638C44.364 129.779 44.3251 129.935 44.3238 130.093C44.6848 131.652 45.1961 133.173 45.8504 134.633L46.112 134.753L46.4897 134.536L46.4884 134.538ZM65.968 73.3326C65.7507 73.6052 65.6495 73.9511 65.8036 74.0739L66.0134 74.1304L66.4914 73.819C68.2037 71.8412 70.0101 69.9052 71.8616 68.0549C72.1304 67.8012 72.2545 67.4404 72.1342 67.2752C72.1083 67.2341 72.0694 67.2029 72.0237 67.1865C71.978 67.1701 71.9281 67.1696 71.882 67.185C71.7232 67.2251 71.5796 67.311 71.4692 67.432C69.5775 69.3083 67.7377 71.2897 65.968 73.3326ZM77.2817 62.0371C77.0048 62.2733 76.8546 62.6216 76.926 62.8308L77.1958 62.9684L77.5428 62.7936C79.4731 61.1363 81.4482 59.5619 83.4334 58.1173C83.7198 57.8969 83.92 57.5415 83.8719 57.3065C83.8684 57.2749 83.8579 57.2446 83.8413 57.2175C83.8246 57.1905 83.8023 57.1674 83.7758 57.15C83.7492 57.1325 83.7192 57.1211 83.6878 57.1166C83.6564 57.112 83.6243 57.1145 83.5939 57.1237C83.4881 57.1473 83.3887 57.1938 83.3027 57.2598C81.299 58.7311 79.2519 60.3507 77.28 62.0358L77.2817 62.0371ZM51.8821 141.214C52.1115 140.926 52.184 140.599 52.0299 140.476C50.9104 139.619 49.9129 138.613 49.065 137.487C49.0327 137.455 48.9928 137.432 48.949 137.42C48.9053 137.409 48.8593 137.409 48.8156 137.421C48.6477 137.462 48.4966 137.555 48.3832 137.685C48.1225 137.957 48.0149 138.314 48.1353 138.479C49.0181 139.613 50.0407 140.631 51.1788 141.509L51.3804 141.548L51.8821 141.214ZM132.606 59.5889C132.336 59.8059 132.141 60.1732 132.201 60.3929C132.611 62.0229 132.885 63.6843 133.019 65.3598L133.303 65.5866L133.567 65.4644C133.702 65.3755 133.815 65.2577 133.898 65.1195C133.981 64.9813 134.033 64.8263 134.048 64.6657C133.91 62.953 133.63 61.2548 133.21 59.5885C133.205 59.5582 133.192 59.5295 133.175 59.5042C133.157 59.479 133.134 59.4578 133.107 59.4421C133.081 59.4264 133.051 59.4166 133.021 59.4133C132.99 59.41 132.959 59.4133 132.93 59.423C132.811 59.45 132.701 59.5058 132.609 59.5856L132.606 59.5889ZM117.627 109.767C117.863 109.471 117.884 109.142 117.703 109.061C117.647 109.032 117.583 109.024 117.521 109.038C117.3 109.104 117.109 109.245 116.981 109.438C115.452 111.543 113.803 113.626 112.107 115.636C111.856 115.926 111.781 116.277 111.934 116.398L112.152 116.434L112.629 116.124C114.374 114.067 116.054 111.931 117.624 109.771L117.627 109.767ZM95.444 132.447C95.7068 132.249 95.9057 131.895 95.8535 131.665C95.8498 131.634 95.8391 131.604 95.8223 131.577C95.8055 131.55 95.783 131.527 95.7563 131.509C95.7297 131.492 95.6995 131.481 95.668 131.477C95.6366 131.472 95.6045 131.475 95.5742 131.484C95.469 131.508 95.3701 131.554 95.2842 131.619C93.2988 133.102 91.2862 134.494 89.3037 135.73C89.1648 135.814 89.0468 135.928 88.9588 136.065C88.8708 136.201 88.8151 136.356 88.7961 136.517C88.7923 136.554 88.7975 136.592 88.8114 136.626C88.8254 136.661 88.8476 136.692 88.8761 136.717C88.9046 136.741 88.9386 136.758 88.9752 136.766C89.0117 136.775 89.0498 136.774 89.086 136.764L89.3108 136.667C91.35 135.401 93.4042 133.981 95.4386 132.454L95.444 132.447ZM121.434 46.8944C121.226 47.1938 121.213 47.5188 121.401 47.5746C122.728 48.0886 123.987 48.7614 125.152 49.5784L125.353 49.6173L125.863 49.2623C126.094 48.9727 126.145 48.6557 125.991 48.5329C124.799 47.6948 123.508 47.0087 122.146 46.4904C122.096 46.4711 122.041 46.4667 121.988 46.4775C121.756 46.5467 121.558 46.6972 121.428 46.9012L121.434 46.8944ZM44.1644 125.023C44.3026 124.935 44.4193 124.818 44.5055 124.679C44.5918 124.54 44.6455 124.383 44.6626 124.22C44.5691 122.354 44.6129 120.483 44.7935 118.622C44.8134 118.417 44.6972 118.302 44.516 118.335C44.4524 118.348 44.3915 118.371 44.3358 118.404C44.1924 118.481 44.068 118.588 43.9718 118.719C43.8756 118.85 43.8101 119.001 43.7801 119.161C43.5881 121.066 43.5413 122.983 43.64 124.895L43.9245 125.122L44.1577 125.031L44.1644 125.023ZM56.3367 86.2211C56.1437 86.5188 56.1429 86.8117 56.3442 86.8752L56.4853 86.8686C56.7265 86.8021 56.9324 86.6446 57.0598 86.4292C58.4501 84.2474 59.9608 82.095 61.5345 79.9818C61.7708 79.6855 61.7865 79.374 61.6104 79.2752C61.5542 79.244 61.4883 79.2349 61.4257 79.2498C61.2109 79.3093 61.0244 79.4434 60.8998 79.6282C59.2909 81.7715 57.7594 83.9986 56.3367 86.2211ZM89.4313 53.1638C89.2922 53.2493 89.1733 53.364 89.083 53.5001C88.9927 53.6362 88.9331 53.7903 88.9085 53.9517C88.9002 53.99 88.902 54.0297 88.9136 54.067C88.9252 54.1044 88.9462 54.1381 88.9747 54.1649C89.0031 54.1918 89.038 54.2109 89.0759 54.2203C89.1139 54.2297 89.1537 54.2292 89.1914 54.2188L89.4144 54.1196C91.3925 52.927 93.4178 51.8246 95.391 50.8884C95.5355 50.8105 95.6615 50.7026 95.7606 50.5717C95.8596 50.4409 95.9293 50.2903 95.965 50.1301C96.0085 49.8879 95.8872 49.769 95.6864 49.8056C95.6389 49.8133 95.5928 49.8278 95.5495 49.8487C93.5095 50.8341 91.4578 51.9349 89.4327 53.1621L89.4313 53.1638ZM59.9988 144.491C60.1752 144.196 60.1692 143.898 59.9476 143.86C58.4792 143.606 57.0445 143.185 55.6715 142.606C55.6173 142.586 55.5586 142.581 55.502 142.593C55.279 142.655 55.0871 142.798 54.9632 142.994C54.7467 143.314 54.7141 143.626 54.9056 143.699C56.3099 144.29 57.7755 144.724 59.2756 144.992L59.4 144.988C59.528 144.949 59.6467 144.884 59.7492 144.798C59.8517 144.711 59.9359 144.606 59.9968 144.486L59.9988 144.491ZM133.569 70.1073C133.425 70.1871 133.302 70.2979 133.207 70.4315C133.112 70.5651 133.048 70.7183 133.019 70.8797C132.867 72.8857 132.596 74.8809 132.208 76.855C132.16 77.0932 132.276 77.2357 132.49 77.1961L132.598 77.1577C132.748 77.0897 132.88 76.9889 132.985 76.8628C133.091 76.7368 133.166 76.5887 133.207 76.4295C133.611 74.412 133.889 72.3713 134.039 70.3192C134.052 70.1051 133.934 69.9998 133.754 70.0309C133.688 70.0452 133.625 70.0706 133.567 70.106L133.569 70.1073ZM125.955 96.3663C126.107 96.0579 126.049 95.807 125.824 95.7909C125.796 95.7886 125.767 95.7903 125.74 95.7957C125.602 95.8391 125.475 95.9107 125.367 96.006C125.258 96.1013 125.171 96.2182 125.11 96.3491C123.978 98.5404 122.707 100.775 121.341 102.968C121.164 103.262 121.172 103.562 121.392 103.599L121.509 103.615C121.634 103.578 121.751 103.517 121.852 103.434C121.953 103.351 122.037 103.249 122.097 103.134C123.497 100.896 124.782 98.6269 125.957 96.3676L125.955 96.3663ZM83.1955 140.103C83.3369 140.024 83.4597 139.916 83.5559 139.786C83.652 139.656 83.7192 139.506 83.7529 139.348C83.7931 139.117 83.6677 139.003 83.4754 139.033C83.418 139.044 83.3625 139.063 83.3107 139.09C81.3996 140.042 79.438 140.89 77.4347 141.629C77.2861 141.695 77.1539 141.794 77.0472 141.917C76.9405 142.04 76.862 142.184 76.817 142.341C76.7417 142.616 76.8692 142.762 77.0866 142.722L77.1697 142.708C79.2221 141.945 81.2333 141.075 83.1955 140.103ZM112.009 45.6822C111.874 45.9872 111.947 46.2363 112.181 46.2315C113.806 46.1502 115.436 46.22 117.049 46.4401L117.157 46.4403C117.289 46.4031 117.411 46.3392 117.517 46.2525C117.623 46.1657 117.71 46.0581 117.772 45.9363C117.957 45.6211 117.924 45.3458 117.713 45.3157C116.061 45.0889 114.392 45.0096 112.725 45.0789L112.665 45.0858C112.521 45.1323 112.388 45.2089 112.276 45.3106C112.164 45.4123 112.075 45.5367 112.014 45.6755L112.009 45.6822ZM45.1366 113.307C45.2848 113.237 45.416 113.136 45.5211 113.01C45.6261 112.884 45.7025 112.737 45.7447 112.579C46.2149 110.426 46.8005 108.299 47.499 106.209C47.5902 105.938 47.5324 105.726 47.2954 105.77C47.2653 105.775 47.2358 105.783 47.2071 105.794C47.0525 105.851 46.9124 105.943 46.7969 106.061C46.6813 106.179 46.593 106.32 46.5383 106.476C45.8339 108.612 45.2416 110.782 44.7636 112.979C44.6954 113.235 44.8228 113.381 45.0335 113.336L45.1403 113.299L45.1366 113.307ZM71.3785 144.428C71.5326 144.376 71.6725 144.289 71.7871 144.174C71.9017 144.058 71.9878 143.918 72.0386 143.763C72.1405 143.465 72.009 143.283 71.7598 143.328C71.1698 143.453 70.5799 143.578 69.9983 143.682L69.8654 143.707C68.1789 144.008 66.471 144.176 64.758 144.208L64.7201 144.214C64.5734 144.255 64.4372 144.327 64.3202 144.424C64.2032 144.522 64.1082 144.643 64.0413 144.78C63.8896 145.089 63.9624 145.338 64.1978 145.334C65.9507 145.3 67.6982 145.129 69.4243 144.823L69.5572 144.799C70.1552 144.69 70.7619 144.562 71.3771 144.416L71.3785 144.428ZM49.1027 99.7467C48.9609 100.074 49.0587 100.299 49.2994 100.275L49.3075 100.265C49.4592 100.215 49.5983 100.133 49.7153 100.025C49.8323 99.9162 49.9245 99.7837 49.9856 99.6363C50.9338 97.4427 52.0132 95.2235 53.187 93.0075C53.3552 92.6957 53.306 92.4239 53.0807 92.4077C53.0481 92.4027 53.0148 92.4034 52.9823 92.4095C52.7167 92.5014 52.4981 92.6944 52.3741 92.9467C51.17 95.2077 50.0579 97.5061 49.0902 99.7451L49.1027 99.7467ZM101.54 47.3788C101.386 47.4416 101.249 47.5387 101.139 47.6628C101.029 47.7869 100.949 47.9346 100.905 48.0945C100.837 48.3503 100.958 48.5155 101.175 48.4756L101.242 48.465C103.083 47.8201 104.966 47.2992 106.877 46.9057C107.032 46.8521 107.173 46.7644 107.29 46.649C107.407 46.5337 107.496 46.3937 107.552 46.2393C107.671 45.9377 107.574 45.7499 107.298 45.7794C105.348 46.1942 103.425 46.7284 101.54 47.3788ZM129.752 88.0075L129.814 87.8464C130.466 86.1731 131.051 84.5121 131.554 82.9051C131.637 82.6198 131.534 82.4296 131.315 82.4712C131.288 82.4756 131.26 82.4828 131.234 82.4927C131.083 82.5523 130.947 82.6441 130.834 82.7616C130.722 82.8791 130.637 83.0196 130.584 83.1733C130.088 84.7611 129.519 86.3817 128.883 88.013L129.348 87.9297L128.828 88.1548C128.624 88.6788 128.414 89.2094 128.207 89.709C128.064 90.035 128.174 90.2367 128.429 90.2126L128.436 90.2041C128.586 90.156 128.724 90.0748 128.838 89.9664C128.953 89.8579 129.042 89.725 129.098 89.5776C129.318 89.0519 129.539 88.5246 129.743 88.0007" fill="#0456FF"/>
<path d="M65.7464 53.7725L72.2441 64.5768C64.9503 71.593 58.5988 79.5269 53.3493 88.1796L40.6443 85.0893C47.6424 73.6229 56.0781 63.0986 65.7464 53.7725Z" fill="#EBEBEB"/>
<path d="M116.467 24.3024L116.67 24.2672C121.435 23.4272 125.761 23.3225 129.654 23.8169L118.96 43.0421C116.05 42.6109 112.794 42.6717 109.222 43.3108L109.018 43.3476C105.328 44.038 101.729 45.1516 98.2939 46.6664L102.179 28.6707C107.006 26.6418 111.812 25.1422 116.467 24.3024Z" fill="#EBEBEB"/>
<path d="M42.1579 116.749C40.8549 124.741 41.5419 131.551 43.9601 136.741L27.4043 151.604C24.2068 144.685 23.294 135.629 24.9376 125.139L42.1579 116.749Z" fill="#EBEBEB"/>
<path d="M150.332 38.8349C153.546 45.7504 154.459 54.7673 152.812 65.2551L135.6 73.6458C136.906 65.6915 136.216 58.8825 133.777 53.6979L150.332 38.8349Z" fill="#EBEBEB"/>
<path d="M79.6478 143.65L75.8048 161.674C74.8396 162.088 73.877 162.474 72.9168 162.833L72.7512 162.895L72.0959 163.137C68.5781 164.438 64.9554 165.435 61.2675 166.118L60.6961 166.216L60.2849 166.287L59.9302 166.34C59.7456 166.37 59.5607 166.397 59.3788 166.423L59.1708 166.452L58.477 166.544C55.0918 166.994 51.6641 167.027 48.2709 166.642L58.8946 147.432C61.8371 147.82 65.0845 147.741 68.6775 147.094C72.4556 146.376 76.1372 145.22 79.6478 143.65Z" fill="#EBEBEB"/>
<path d="M124.407 102.214L137.127 105.299C130.125 116.772 121.687 127.303 112.018 136.638L105.495 125.855C112.8 118.83 119.157 110.883 124.407 102.214Z" fill="#EBEBEB"/>
<path d="M148.982 36.2104C149.475 37.0604 149.924 37.9351 150.327 38.8309L167.892 53.4528C167.497 52.569 167.056 51.7063 166.571 50.8681C166.561 50.86 166.551 50.8519 166.549 50.8336C165.886 49.7082 165.137 48.635 164.311 47.6235C164.112 47.3763 163.909 47.1372 163.704 46.8985C162.87 45.9191 161.96 45.0082 160.981 44.1745L143.416 29.5526C144.396 30.3872 145.308 31.299 146.142 32.2792C146.346 32.5166 146.55 32.7571 146.748 33.003C147.573 34.0135 148.32 35.0858 148.982 36.2104Z" fill="#021C69"/>
<path d="M168.093 90.1146C168.127 89.9921 168.147 89.8805 168.185 89.756C168.507 88.6085 168.777 87.4916 169.047 86.3717C169.18 85.8266 169.337 85.2679 169.455 84.7276C169.82 83.0817 170.129 81.4662 170.382 79.8811L152.816 65.2578C152.565 66.8411 152.253 68.4589 151.891 70.104C151.77 70.6446 151.613 71.2033 151.481 71.7514C151.211 72.8684 150.942 73.9866 150.62 75.131C150.326 76.1736 149.987 77.2382 149.648 78.3028C149.476 78.8415 149.328 79.3684 149.144 79.9146C148.595 81.5423 147.994 83.1943 147.343 84.8705C144.539 91.9644 141.12 98.8 137.127 105.299L154.693 119.922C158.687 113.423 162.105 106.587 164.908 99.4924C165.565 97.8176 166.166 96.165 166.711 94.5348C166.893 93.9933 167.042 93.4665 167.214 92.9277C167.513 91.9863 167.828 91.0384 168.093 90.1146Z" fill="#021F74"/>
<path d="M48.2717 166.623C42.6849 165.895 37.9999 163.899 34.2968 160.815L51.8634 175.438C55.5665 178.523 60.2502 180.52 65.8354 181.247L48.2717 166.623Z" fill="#021B64"/>
<path d="M171.09 73.0976C171.115 72.6217 171.137 72.1492 171.15 71.6807C171.171 70.988 171.168 70.3103 171.165 69.6294C171.162 69.1891 171.162 68.7484 171.147 68.3155C171.124 67.6107 171.076 66.9242 171.023 66.2398C170.992 65.858 170.975 65.4701 170.937 65.0968C170.853 64.268 170.739 63.4626 170.612 62.6663C170.58 62.4604 170.56 62.2423 170.521 62.0401C170.518 62.0205 170.517 61.9975 170.511 61.9765C170.5 61.9069 170.478 61.8477 170.466 61.7797C170.233 60.5176 169.934 59.2685 169.572 58.0373C169.476 57.7091 169.38 57.3856 169.274 57.0662C168.888 55.841 168.427 54.6409 167.893 53.4727L150.328 38.8508C150.862 40.0186 151.322 41.2182 151.708 42.4429C151.817 42.7685 151.916 43.0928 152.004 43.4157C152.367 44.6467 152.665 45.8959 152.898 47.1582C152.916 47.2471 152.939 47.3292 152.962 47.4252C152.997 47.6308 153.017 47.8459 153.053 48.0515C153.178 48.8464 153.292 49.6518 153.376 50.4806C153.414 50.8539 153.433 51.2432 153.462 51.6236C153.515 52.3081 153.563 52.9946 153.587 53.6977C153.602 54.1305 153.601 54.5729 153.604 55.0133C153.616 55.6931 153.61 56.3718 153.591 57.0659C153.578 57.5343 153.555 58.0069 153.53 58.4797C153.501 59.027 153.458 59.5851 153.414 60.1433C153.281 61.8119 153.104 63.5131 152.828 65.2702L170.388 79.8851C170.662 78.1266 170.839 76.4284 170.972 74.7567C170.989 74.5484 171.036 74.3288 171.045 74.1198C171.066 73.7677 171.065 73.4348 171.09 73.0976Z" fill="#797676"/>
<path d="M75.7979 161.668C74.8327 162.082 73.87 162.469 72.9099 162.828L72.7443 162.89L72.0889 163.132C68.5711 164.432 64.9484 165.429 61.2606 166.112L60.6892 166.211L60.278 166.282L59.9301 166.34C59.7455 166.37 59.5605 166.397 59.3786 166.423L59.1707 166.451L58.4768 166.544C55.0916 166.993 51.664 167.026 48.2708 166.642L65.8306 181.26C69.2223 181.645 72.6485 181.614 76.0326 181.167L76.7265 181.074L76.9327 181.045C77.1164 181.02 77.2996 180.991 77.4859 180.962L77.8403 180.907L78.2518 180.839C78.4421 180.805 78.6315 180.776 78.8232 180.741C82.5102 180.057 86.1323 179.06 89.6502 177.762L90.3052 177.517L90.4725 177.456L91.0133 177.25C91.8029 176.955 92.5771 176.633 93.3605 176.296L75.7979 161.668Z" fill="#6D6A6A"/>
<path d="M111.224 166.353C111.484 166.176 111.746 166.007 112.004 165.826C113.366 164.88 114.719 163.896 116.066 162.874C116.422 162.604 116.775 162.331 117.123 162.055C117.737 161.58 118.356 161.116 118.967 160.628C119.235 160.412 119.497 160.175 119.765 159.957C120.916 159.024 122.055 158.06 123.188 157.08C123.711 156.629 124.233 156.193 124.75 155.732C126.383 154.281 128.005 152.788 129.588 151.253L112.023 136.631C110.434 138.173 108.816 139.658 107.185 141.11C106.668 141.568 106.144 142.006 105.623 142.455C104.488 143.437 103.349 144.401 102.2 145.332C101.322 146.044 100.442 146.747 99.5565 147.431C99.2036 147.704 98.8557 147.981 98.5011 148.252C97.1538 149.268 95.7976 150.25 94.4325 151.198C94.1724 151.379 93.9109 151.547 93.6504 151.724C92.535 152.501 91.4138 153.248 90.2868 153.967C89.8655 154.235 89.4435 154.497 89.0216 154.759C88.2969 155.206 87.5721 155.625 86.8468 156.052C85.5381 156.818 84.2279 157.548 82.9162 158.242C82.3651 158.534 81.8136 158.836 81.2625 159.114C79.4401 160.035 77.613 160.913 75.7981 161.682L93.3647 176.305C95.1796 175.536 97 174.667 98.8193 173.746C99.3718 173.467 99.9236 173.167 100.475 172.875C101.789 172.178 103.098 171.449 104.409 170.68C104.743 170.484 105.078 170.321 105.411 170.119C105.804 169.879 106.188 169.631 106.578 169.388C107.003 169.126 107.426 168.862 107.849 168.592C108.978 167.869 110.103 167.123 111.224 166.353Z" fill="#021C69"/>
<path d="M149.783 127.458C150.047 127.078 150.303 126.695 150.56 126.313C151.989 124.208 153.379 122.082 154.697 119.917L137.131 105.294C135.818 107.455 134.428 109.581 132.995 111.691C132.738 112.07 132.482 112.453 132.221 112.832C130.83 114.842 129.39 116.82 127.903 118.767C127.607 119.138 127.322 119.517 127.031 119.892C125.48 121.887 123.893 123.857 122.251 125.775L122.116 125.944C120.498 127.828 118.831 129.654 117.141 131.444C116.812 131.794 116.484 132.15 116.152 132.498C114.795 133.908 113.419 135.304 112.015 136.645L129.583 151.26C130.981 149.913 132.354 148.52 133.719 147.113C133.87 146.956 134.013 146.824 134.155 146.674C134.346 146.477 134.523 146.261 134.71 146.061C136.4 144.271 138.067 142.445 139.683 140.562L139.818 140.393C141.456 138.481 143.04 136.511 144.597 134.509C144.893 134.138 145.188 133.768 145.47 133.386C146.954 131.444 148.391 129.468 149.783 127.458Z" fill="#797676"/>
<path style="mix-blend-mode:screen" d="M152.828 65.2456C151.85 71.3585 150.077 77.9185 147.357 84.8705C144.545 91.9633 141.126 98.8 137.137 105.304C130.131 116.77 121.694 127.298 112.03 136.634C100.67 147.643 88.1262 156.452 75.7967 161.67C74.8302 162.076 73.8605 162.456 72.9182 162.832C72.8648 162.836 72.8128 162.867 72.7593 162.871C72.5295 162.965 72.3149 163.043 72.1043 163.116C68.58 164.414 64.953 165.414 61.2614 166.105C61.0768 166.149 60.8874 166.164 60.7001 166.211C60.5368 166.225 60.411 166.258 60.2711 166.273C60.1581 166.306 60.0418 166.324 59.9245 166.33C59.7382 166.372 59.5505 166.389 59.3615 166.435L59.1478 166.453C58.9175 166.494 58.6851 166.522 58.4516 166.537C55.0745 166.994 51.6532 167.023 48.2689 166.624C43.2943 165.982 39.0161 164.313 35.5047 161.766C31.9933 159.219 29.2995 155.792 27.408 151.595C24.2069 144.671 23.2914 135.633 24.9299 125.138C25.8828 119.054 27.6851 112.468 30.4067 105.534C33.2223 98.4371 36.6513 91.5989 40.6546 85.0973C47.6427 73.6273 56.071 63.0995 65.7339 53.7708C77.1458 42.7308 89.7882 33.8959 102.181 28.6891C106.77 26.7017 111.565 25.2301 116.479 24.301C116.533 24.2966 116.611 24.2616 116.664 24.2571C121.437 23.4255 125.78 23.3067 129.666 23.8203C139.506 25.0812 146.58 30.4406 150.336 38.8346C153.553 45.7389 154.47 54.7784 152.828 65.2456Z" fill="url(#paint0_linear_224:139)"/>
<path style="mix-blend-mode:multiply" d="M170.605 62.661C170.573 62.4551 170.553 62.2369 170.514 62.0348C170.511 62.0152 170.51 61.9922 170.504 61.9712C170.493 61.9015 170.471 61.8424 170.459 61.7744C170.226 60.5123 169.927 59.2632 169.565 58.032C169.469 57.7038 169.373 57.3803 169.267 57.0608C168.881 55.8357 168.42 54.6356 167.886 53.4674C167.491 52.5836 167.05 51.7209 166.565 50.8827C166.558 50.8707 166.551 50.8592 166.543 50.8483C165.879 49.7228 165.131 48.6497 164.305 47.6382C164.106 47.3909 163.903 47.1518 163.697 46.9131C162.864 45.9337 161.954 45.0229 160.975 44.1891L143.41 29.5672C144.39 30.4018 145.302 31.3136 146.136 32.2938C146.34 32.5313 146.544 32.7717 146.741 33.0176C147.568 34.0233 148.317 35.0907 148.982 36.2104C149.475 37.06 149.925 37.9347 150.327 38.8309C150.861 39.9987 151.321 41.1983 151.707 42.423C151.816 42.7486 151.915 43.0729 152.003 43.3959C152.366 44.6269 152.665 45.8761 152.897 47.1383C152.915 47.2272 152.938 47.3094 152.961 47.4054C152.997 47.611 153.016 47.826 153.052 48.0316C153.177 48.8265 153.291 49.6319 153.375 50.4607C153.413 50.8341 153.432 51.2233 153.461 51.6037C153.514 52.2882 153.562 52.9747 153.586 53.6778C153.601 54.1107 153.6 54.553 153.605 54.9948C153.617 55.6745 153.609 56.352 153.59 57.046C153.577 57.5145 153.555 57.987 153.529 58.4599C153.5 59.0071 153.457 59.5653 153.414 60.1234C153.28 61.792 153.104 63.4932 152.827 65.2503C152.576 66.8336 152.264 68.4515 151.903 70.0965C151.782 70.6372 151.624 71.1959 151.492 71.744C151.222 72.8609 150.954 73.9792 150.632 75.1236C150.338 76.1661 149.999 77.2307 149.66 78.2953C149.488 78.8341 149.339 79.3609 149.156 79.9071C148.606 81.5349 148.006 83.1869 147.354 84.863C144.55 91.957 141.132 98.7925 137.138 105.292C135.826 107.452 134.435 109.579 133.003 111.688C132.745 112.067 132.489 112.451 132.229 112.83C130.837 114.839 129.398 116.818 127.91 118.765C127.615 119.136 127.329 119.515 127.039 119.89C125.487 121.885 123.9 123.855 122.258 125.772L122.123 125.942C120.505 127.825 118.84 129.65 117.15 131.44C116.82 131.792 116.493 132.146 116.159 132.495C114.802 133.906 113.427 135.302 112.023 136.642C110.434 138.184 108.816 139.669 107.184 141.121C106.667 141.579 106.143 142.017 105.624 142.467C104.488 143.448 103.349 144.411 102.199 145.342C101.321 146.055 100.442 146.758 99.5561 147.442C99.2031 147.715 98.8552 147.991 98.5006 148.263C97.1536 149.272 95.7975 150.25 94.4323 151.198C94.1722 151.379 93.9107 151.547 93.6503 151.724C92.5349 152.501 91.4136 153.248 90.2866 153.967C89.8654 154.235 89.4434 154.497 89.0214 154.759C88.2967 155.206 87.572 155.625 86.8466 156.052C85.5379 156.818 84.2277 157.548 82.916 158.242C82.3649 158.534 81.8135 158.836 81.2623 159.114C79.4413 160.033 77.6128 160.913 75.798 161.682C74.8327 162.096 73.8701 162.483 72.91 162.842L72.7443 162.904L72.089 163.146C68.5712 164.446 64.9485 165.443 61.2606 166.126L60.6892 166.225L60.278 166.296L59.9301 166.34C59.7455 166.37 59.5605 166.397 59.3786 166.424L59.1707 166.452L58.4768 166.544C55.1004 166.993 51.6817 167.026 48.2972 166.643L48.2785 166.629C42.6849 165.895 37.9999 163.899 34.2968 160.815L51.8635 175.438C55.5598 178.517 60.2336 180.509 65.8069 181.241L65.8307 181.26C69.2224 181.645 72.6485 181.614 76.0327 181.167L76.7265 181.075L76.9328 181.045C77.1164 181.02 77.2996 180.991 77.4859 180.963L77.8403 180.907L78.2518 180.839C78.4421 180.805 78.6315 180.776 78.8232 180.741C82.5102 180.057 86.1324 179.06 89.6502 177.762L90.3052 177.517L90.4725 177.456L91.0133 177.25C91.8029 176.955 92.5771 176.633 93.3605 176.297C95.1754 175.528 96.9958 174.658 98.8151 173.738C99.3676 173.458 99.9194 173.158 100.471 172.866C101.785 172.169 103.094 171.441 104.405 170.672C104.739 170.475 105.073 170.313 105.407 170.11C105.8 169.87 106.184 169.622 106.574 169.379C106.999 169.117 107.422 168.853 107.845 168.584C108.972 167.865 110.097 167.121 111.221 166.353C111.481 166.176 111.743 166.008 112.001 165.826C113.362 164.88 114.716 163.896 116.063 162.874C116.419 162.604 116.772 162.332 117.12 162.055C117.734 161.581 118.353 161.116 118.964 160.628C119.232 160.413 119.494 160.175 119.762 159.957C120.912 159.024 122.052 158.06 123.185 157.08C123.707 156.63 124.23 156.193 124.746 155.733C126.379 154.282 128.002 152.789 129.585 151.254C130.983 149.906 132.356 148.514 133.722 147.107C133.872 146.95 134.016 146.818 134.158 146.668C134.348 146.471 134.525 146.255 134.712 146.055C136.403 144.265 138.069 142.438 139.686 140.556L139.821 140.387C141.459 138.474 143.042 136.505 144.599 134.503C144.895 134.132 145.191 133.761 145.473 133.379C146.962 131.428 148.401 129.449 149.789 127.443C150.052 127.065 150.308 126.682 150.565 126.3C151.993 124.195 153.384 122.069 154.702 119.905C158.696 113.405 162.114 106.569 164.917 99.4745C165.574 97.7997 166.175 96.1471 166.72 94.5169C166.903 93.9737 167.052 93.4469 167.222 92.9098C167.521 91.9684 167.837 91.0205 168.102 90.0967C168.136 89.9742 168.156 89.8626 168.194 89.7381C168.516 88.5906 168.788 87.472 169.056 86.3538C169.188 85.8087 169.346 85.25 169.463 84.7097C169.828 83.0637 170.138 81.4482 170.391 79.8631C170.666 78.1046 170.842 76.4065 170.976 74.7348C170.992 74.5265 171.04 74.3069 171.049 74.0978C171.074 73.7498 171.074 73.417 171.092 73.0743C171.117 72.5984 171.139 72.1259 171.152 71.6575C171.173 70.9648 171.17 70.287 171.167 69.6062C171.164 69.1658 171.163 68.7251 171.148 68.2923C171.126 67.5875 171.078 66.901 171.025 66.2165C170.994 65.8348 170.977 65.4469 170.939 65.0735C170.843 64.266 170.739 63.4626 170.605 62.661Z" fill="url(#paint1_linear_224:139)"/>
<g style="mix-blend-mode:soft-light">
<path d="M129.657 23.8276C133.467 24.242 137.3 25.2533 140.656 27.2476C144.054 29.2216 146.928 31.9819 149.038 35.2965C151.138 38.6178 152.632 42.2859 153.449 46.1298C154.293 49.9657 154.546 53.8977 154.448 57.7907C154.203 65.6051 152.527 73.2916 150.107 80.6705C147.627 88.0408 144.358 95.1226 140.573 101.893C136.768 108.659 132.46 115.131 127.686 121.253C122.902 127.355 117.663 133.086 112.013 138.396C106.389 143.747 100.334 148.626 93.9095 152.983C90.694 155.167 87.3566 157.166 83.9137 158.971C80.4744 160.775 76.9225 162.356 73.2801 163.705L73.0063 163.763L72.8488 163.801L73.1412 163.73C72.0609 164.126 71.1307 164.431 70.1018 164.763C69.0728 165.095 68.082 165.369 67.051 165.655C66.0199 165.94 65.0013 166.173 63.9678 166.396L62.4078 166.706L60.889 166.971L60.8285 166.981L60.7754 166.989L60.3504 167.046L60.537 167.006L60.0018 167.098L60.1107 167.079L59.5339 167.184L59.4385 167.2L59.2244 167.215L59.3168 167.2L56.8763 167.45C56.0776 167.514 55.2751 167.559 54.4746 167.58C52.8685 167.629 51.2609 167.572 49.6625 167.408C46.4602 167.093 43.3272 166.278 40.3777 164.992C37.4349 163.701 34.7723 161.849 32.5392 159.538C30.3558 157.223 28.6191 154.524 27.4166 151.578C28.7717 154.423 30.625 157.004 32.889 159.197C35.1465 161.352 37.8033 163.046 40.7101 164.182C43.6073 165.303 46.6625 165.963 49.7641 166.137C51.3141 166.228 52.8678 166.233 54.4183 166.153C55.1911 166.11 55.9645 166.049 56.7384 165.97L58.9996 165.687L59.0949 165.671L59.3083 165.65L59.2008 165.667L59.7603 165.559L59.8692 165.541C59.9207 165.527 59.9738 165.52 60.0271 165.52L60.2154 165.482L60.6425 165.415L60.5332 165.43L62.0881 165.116L63.5953 164.775C64.5946 164.536 65.5889 164.27 66.5783 163.979C67.5676 163.687 68.55 163.376 69.5255 163.044C70.4767 162.719 71.5174 162.341 72.3866 162.001L72.6821 161.929L72.839 161.885L72.5601 161.954C76.1018 160.543 79.5485 158.905 82.8784 157.049C86.1995 155.193 89.4506 153.209 92.5912 151.052C98.87 146.716 104.781 141.871 110.265 136.565C115.768 131.274 120.891 125.602 125.598 119.592C130.34 113.612 134.627 107.285 138.423 100.664C142.199 94.0411 145.462 87.1186 147.948 79.9248C150.434 72.7311 152.303 65.2895 152.716 57.7119C152.898 53.9327 152.759 50.1219 152.031 46.4117C151.331 42.6961 150.018 39.1227 148.146 35.8379C146.236 32.5523 143.565 29.7728 140.358 27.7327C137.155 25.6857 133.45 24.4473 129.657 23.8276Z" fill="#CCC8C8"/>
</g>
</g>
<defs>
<linearGradient id="paint0_linear_224:139" x1="-66.0004" y1="157.38" x2="144.872" y2="72.6718" gradientUnits="userSpaceOnUse">
<stop stop-color="white"/>
<stop offset="1"/>
</linearGradient>
<linearGradient id="paint1_linear_224:139" x1="126.226" y1="95.0074" x2="31.4309" y2="232.513" gradientUnits="userSpaceOnUse">
<stop stop-color="white"/>
<stop offset="0.14" stop-color="#FBFBFB"/>
<stop offset="0.3" stop-color="#EEEEED"/>
<stop offset="0.46" stop-color="#D9D9D7"/>
<stop offset="0.63" stop-color="#BBBBB9"/>
<stop offset="0.8" stop-color="#949491"/>
<stop offset="0.97" stop-color="#666661"/>
<stop offset="1" stop-color="#5C5C57"/>
</linearGradient>
<clipPath id="clip0_224:139">
<rect width="171.497" height="113.339" fill="white" transform="translate(0 134.104) rotate(-51.4406)"/>
</clipPath>
</defs>
</svg>
