<svg width="105" height="104" viewBox="0 0 105 104" fill="none" xmlns="http://www.w3.org/2000/svg">
<path d="M63.6925 33.3734C62.4728 32.8366 61.2214 32.3355 59.9632 31.8891L59.7274 31.7203L59.7167 31.6137C59.7472 31.5183 59.9321 31.4961 60.0996 31.5552C61.3973 32.018 62.677 32.5243 63.9181 33.0752C63.9959 33.1052 64.0632 33.1576 64.1113 33.2257C64.1264 33.2449 64.135 33.2685 64.1357 33.293C64.1363 33.3174 64.1291 33.3415 64.115 33.3615C64.0572 33.4468 63.8634 33.4531 63.6925 33.3734Z" fill="#F5F5F5"/>
<path d="M51.9218 29.5544L51.89 29.4894C51.8793 29.3828 52.0222 29.3275 52.199 29.3641C53.5172 29.629 54.8571 29.9449 56.1726 30.3118C56.2833 30.3373 56.3814 30.401 56.4496 30.4918C56.468 30.5188 56.4757 30.5517 56.4713 30.5841C56.4564 30.6864 56.3077 30.73 56.1217 30.6789C54.833 30.319 53.5269 30.0034 52.2346 29.7459C52.1096 29.7246 51.9976 29.656 51.9218 29.5544Z" fill="#F5F5F5"/>
<path d="M44.2227 28.6203C44.1685 28.5092 44.2555 28.422 44.437 28.4294C45.6755 28.4739 46.9701 28.5781 48.2683 28.731C48.3388 28.7367 48.4075 28.7563 48.4704 28.7887C48.5332 28.8211 48.5891 28.8657 48.6346 28.9199C48.6446 28.9334 48.6521 28.9487 48.6566 28.965C48.6911 29.0745 48.5705 29.148 48.3919 29.1257C47.1237 28.9795 45.8709 28.876 44.6522 28.8286C44.5709 28.8271 44.4909 28.808 44.4178 28.7725C44.3446 28.737 44.28 28.686 44.2286 28.623L44.2227 28.6203Z" fill="#F5F5F5"/>
<path d="M41.071 28.8623C39.9501 28.9169 38.8328 29.0317 37.7242 29.2064C37.6411 29.2157 37.5571 29.2068 37.4778 29.1802C37.3986 29.1536 37.3261 29.1101 37.2654 29.0526L37.2281 29.0082C37.1692 28.9129 37.2145 28.8247 37.3485 28.8107C38.4819 28.6305 39.624 28.5101 40.7701 28.4502C40.854 28.4473 40.9375 28.4629 41.0147 28.4959C41.092 28.5289 41.1609 28.5785 41.2168 28.6412C41.2272 28.653 41.2367 28.6655 41.2452 28.6787C41.313 28.7899 41.2221 28.8556 41.071 28.8623Z" fill="#F5F5F5"/>
<path d="M34.6858 29.8682C33.7684 30.1277 32.8712 30.4541 32.0014 30.8447C31.9212 30.8673 31.8369 30.8711 31.755 30.8559C31.6731 30.8406 31.5958 30.8067 31.5291 30.7568L31.4382 30.6625L31.4951 30.486C32.3847 30.0842 33.3037 29.7506 34.2439 29.4881C34.3253 29.473 34.4091 29.4763 34.4891 29.4977C34.569 29.5192 34.6432 29.5583 34.7061 29.6122C34.732 29.6321 34.7542 29.6565 34.7715 29.6843C34.8202 29.7634 34.788 29.8395 34.6858 29.8682Z" fill="#F5F5F5"/>
<path d="M29.7232 32.107C29.06 32.5521 28.442 33.0609 27.8778 33.6263C27.8057 33.7074 27.6143 33.7003 27.4421 33.6156L27.2635 33.4792L27.2734 33.3323C27.8461 32.7523 28.4733 32.2288 29.1466 31.7693C29.2218 31.7401 29.303 31.7295 29.3833 31.7384C29.4636 31.7472 29.5405 31.7753 29.6076 31.8202C29.6598 31.8483 29.7044 31.8887 29.7377 31.9378C29.7482 31.9497 29.7562 31.9636 29.7612 31.9787C29.7661 31.9938 29.768 32.0097 29.7666 32.0255C29.7653 32.0413 29.7607 32.0567 29.7532 32.0707C29.7458 32.0847 29.7356 32.0971 29.7232 32.107Z" fill="#F5F5F5"/>
<path d="M82.3378 55.3585L82.319 55.2559C82.4913 54.5517 82.5779 53.8293 82.577 53.1044C82.5694 53.0019 82.7253 52.9503 82.9056 52.9941C83.026 53.018 83.1339 53.0843 83.2095 53.1811C83.2248 53.2039 83.2328 53.2307 83.2326 53.2582C83.2396 54.0013 83.1532 54.7424 82.9754 55.464C82.9462 55.5599 82.7805 55.5962 82.6009 55.5352L82.3378 55.3585Z" fill="#F5F5F5"/>
<path d="M25.6488 37.3507C25.6187 37.447 25.4495 37.476 25.2707 37.4169L25.0193 37.2412L25.0004 37.1386C25.2068 36.4359 25.5013 35.7621 25.8768 35.1333C25.9325 35.0458 26.1222 35.0313 26.2991 35.1048C26.382 35.1342 26.4539 35.1886 26.5048 35.2603C26.5183 35.2789 26.5268 35.3008 26.5294 35.3236C26.5319 35.3465 26.5285 35.3696 26.5194 35.3908C26.1415 36.0015 25.8486 36.6609 25.6488 37.3507Z" fill="#F5F5F5"/>
<path d="M80.2527 59.1849L80.2557 59.0447C80.7496 58.4963 81.1785 57.8926 81.5338 57.2458C81.5894 57.1582 81.7675 57.1427 81.9408 57.209C82.0276 57.2408 82.103 57.2978 82.1573 57.3727C82.1703 57.3901 82.1785 57.4106 82.181 57.4322C82.1835 57.4538 82.1802 57.4756 82.1714 57.4955C81.8119 58.1591 81.3718 58.7758 80.8611 59.3315C80.7885 59.4117 80.5908 59.4122 80.4315 59.3312L80.2527 59.1849Z" fill="#F5F5F5"/>
<path d="M25.5056 41.7329C25.5294 41.8432 25.3891 41.9017 25.2177 41.8737C25.1496 41.867 25.0837 41.8467 25.0236 41.814C24.9636 41.7812 24.9109 41.7367 24.8684 41.6831L24.8402 41.6254C24.6896 40.864 24.6244 40.0883 24.6459 39.3125C24.6495 39.2101 24.7982 39.1665 24.9905 39.21C25.1069 39.2322 25.2109 39.2971 25.2819 39.392C25.298 39.4162 25.3068 39.4445 25.3072 39.4735C25.2869 40.2318 25.3535 40.9898 25.5056 41.7329Z" fill="#F5F5F5"/>
<path d="M76.2231 62.0845L76.28 61.908C77.0515 61.5361 77.7905 61.1001 78.4891 60.6046C78.581 60.5385 78.7929 60.5602 78.9457 60.6487C79.0002 60.6782 79.0468 60.7202 79.0817 60.7713C79.1202 60.8341 79.1161 60.8965 79.051 60.9373C78.3376 61.4441 77.5834 61.8909 76.7961 62.2731C76.717 62.2951 76.634 62.2993 76.553 62.2853C76.4721 62.2712 76.3953 62.2394 76.3282 62.192L76.2231 62.0845Z" fill="#F5F5F5"/>
<path d="M27.9445 47.2443C28.0127 47.3541 27.9498 47.4497 27.7889 47.4568C27.7064 47.461 27.624 47.446 27.5483 47.413C27.4725 47.3799 27.4055 47.3298 27.3525 47.2664C27.1682 47.0023 26.9954 46.7379 26.8339 46.4731L26.7971 46.4139C26.3329 45.651 25.929 44.853 25.5892 44.0272C25.5435 43.9176 25.648 43.8363 25.8223 43.8518C25.9007 43.8573 25.977 43.8797 26.046 43.9174C26.115 43.955 26.175 44.0072 26.222 44.0702L26.23 44.0864C26.5619 44.8931 26.9578 45.6719 27.4141 46.4154L27.4495 46.4741C27.6063 46.7263 27.7743 46.9831 27.9445 47.2443Z" fill="#F5F5F5"/>
<path d="M32.1444 52.0137C32.1975 52.0996 32.164 52.1797 32.0469 52.2034C31.9654 52.2168 31.8819 52.2125 31.8021 52.191C31.7223 52.1694 31.648 52.131 31.5843 52.0783C30.7604 51.3266 29.9763 50.5325 29.235 49.6993L29.216 49.6605C29.1571 49.5651 29.2024 49.477 29.344 49.4648C29.4264 49.4567 29.5096 49.467 29.5876 49.4948C29.6656 49.5226 29.7364 49.5673 29.7951 49.6257C30.5168 50.4401 31.2822 51.2148 32.0879 51.9463C32.1099 51.9659 32.1289 51.9886 32.1444 52.0137Z" fill="#F5F5F5"/>
<path d="M67.6826 64.455C66.8269 64.5143 65.9351 64.5408 65.0157 64.5428L64.9276 64.5434C64.6414 64.5435 64.3502 64.5359 64.0591 64.5283C63.9789 64.5293 63.8995 64.512 63.8269 64.4777C63.7543 64.4434 63.6905 64.3931 63.6403 64.3304L63.6363 64.3223C63.5781 64.2032 63.6544 64.1167 63.8345 64.1237C64.1144 64.1312 64.3984 64.1333 64.6873 64.1318L64.8904 64.3368L64.7646 64.1321C65.6589 64.1312 66.5318 64.1027 67.3776 64.0438C67.4602 64.0404 67.5426 64.0551 67.619 64.0866C67.6955 64.1182 67.7641 64.166 67.8203 64.2267C67.8299 64.2373 67.8385 64.2488 67.8461 64.261C67.9045 64.3577 67.8328 64.442 67.6826 64.455Z" fill="#F5F5F5"/>
<path d="M37.9717 56.3565C37.982 56.3687 37.9895 56.3831 37.9935 56.3986C37.9976 56.4142 37.9981 56.4304 37.9951 56.4461C37.9921 56.4619 37.9856 56.4767 37.976 56.4896C37.9665 56.5025 37.9543 56.5131 37.9401 56.5207C37.8371 56.5867 37.6324 56.5592 37.4899 56.469C36.3879 55.7863 35.3352 55.074 34.3568 54.3399L34.2691 54.2519C34.2577 54.2365 34.2502 54.2185 34.2473 54.1995C34.2445 54.1805 34.2463 54.1611 34.2527 54.1429C34.259 54.1248 34.2698 54.1085 34.2839 54.0955C34.298 54.0825 34.3151 54.0731 34.3337 54.0683C34.4134 54.047 34.497 54.0446 34.5779 54.0612C34.6588 54.0777 34.7347 54.1128 34.7997 54.1637C35.7531 54.8764 36.7871 55.5733 37.8573 56.2413C37.903 56.2714 37.9419 56.3106 37.9717 56.3565Z" fill="#F5F5F5"/>
<path d="M60.5014 64.1164C60.5364 64.2269 60.427 64.3005 60.2496 64.2876C58.9634 64.1479 57.6454 63.9567 56.3243 63.7066C56.2582 63.699 56.1942 63.6782 56.1363 63.6454C56.0784 63.6126 56.0277 63.5685 55.9872 63.5157L55.9733 63.4577C55.9496 63.3473 56.0899 63.2888 56.2613 63.3169C57.5564 63.5596 58.852 63.7506 60.1009 63.8828C60.1743 63.8871 60.2459 63.9068 60.3112 63.9406C60.3765 63.9744 60.4339 64.0215 60.4798 64.079C60.4884 64.0906 60.4956 64.1032 60.5014 64.1164Z" fill="#F5F5F5"/>
<path d="M44.9853 59.9809C45.0001 60.0001 45.0086 60.0233 45.0095 60.0475C45.0105 60.0716 45.004 60.0955 44.9908 60.1158C44.9352 60.2034 44.7522 60.2112 44.5754 60.1377C43.8883 59.8439 43.1879 59.5275 42.5207 59.2127C41.9731 58.948 41.4367 58.6835 40.9067 58.4113L40.7483 58.2796L40.7646 58.1251C40.8407 58.0521 41.0433 58.0593 41.2034 58.1399C41.7174 58.4042 42.2444 58.6678 42.7705 58.9184C43.4381 59.234 44.1112 59.5425 44.7943 59.8305C44.8713 59.8609 44.9377 59.9132 44.9853 59.9809Z" fill="#F5F5F5"/>
<path d="M52.7018 62.7137C52.6987 62.817 52.5378 62.861 52.3527 62.8094C51.0388 62.4641 49.7118 62.0603 48.4127 61.6126L48.1766 61.4429L48.1533 61.3335C48.1829 61.2385 48.3629 61.2087 48.547 61.2741C49.8148 61.708 51.1045 62.1043 52.3915 62.4426C52.5054 62.4681 52.6068 62.5324 52.6784 62.6245C52.696 62.6508 52.7043 62.6822 52.7018 62.7137Z" fill="#F5F5F5"/>
<path d="M82.3264 50.8795L82.3021 50.8299C82.108 50.0237 81.84 49.2371 81.5014 48.4801C81.4557 48.3705 81.5607 48.2901 81.7309 48.2975C81.8081 48.3006 81.8837 48.32 81.9528 48.3545C82.0219 48.3889 82.0829 48.4377 82.1317 48.4975C82.137 48.506 82.1415 48.5151 82.145 48.5246C82.4883 49.3014 82.7611 50.1076 82.9599 50.9333C82.9836 51.0436 82.8581 51.1095 82.675 51.0804C82.6063 51.0724 82.5399 51.0505 82.48 51.0159C82.42 50.9814 82.3677 50.935 82.3264 50.8795Z" fill="#F5F5F5"/>
<path d="M70.5597 63.8461C70.5017 63.7503 70.551 63.6703 70.6698 63.648C71.6781 63.4669 72.6748 63.2262 73.6547 62.9272C73.7367 62.9112 73.8212 62.9134 73.9023 62.9338C73.9833 62.9541 74.0589 62.9919 74.1237 63.0447C74.1514 63.0662 74.1752 63.0925 74.194 63.1222C74.2427 63.2013 74.2146 63.2765 74.1091 63.3101C73.1075 63.6177 72.0878 63.8629 71.0558 64.0442C70.9728 64.0546 70.8886 64.0461 70.8093 64.0194C70.73 63.9927 70.6578 63.9485 70.598 63.89L70.5597 63.8461Z" fill="#F5F5F5"/>
<path d="M70.5494 37.0299C69.4968 36.3544 68.3847 35.7081 67.2403 35.0987L67.0932 34.9671L67.1089 34.8117C67.1963 34.7388 67.3877 34.746 67.5518 34.8346C68.7168 35.4585 69.8615 36.1281 70.9329 36.81C70.9797 36.8386 71.0195 36.8772 71.0497 36.923C71.0908 36.9889 71.0826 37.0522 71.0181 37.0871C70.9127 37.1554 70.7072 37.1261 70.5494 37.0299Z" fill="#F5F5F5"/>
<path d="M76.6617 41.5018C76.579 41.5143 76.4947 41.5089 76.4143 41.4861C76.3339 41.4633 76.2593 41.4235 76.1955 41.3696C75.3539 40.5793 74.4731 39.8318 73.5564 39.1299L73.4696 39.0415C73.4249 38.9683 73.4458 38.8943 73.5441 38.8575C73.6256 38.8398 73.71 38.84 73.7915 38.8581C73.8729 38.8763 73.9495 38.9118 74.0159 38.9624C74.9722 39.6972 75.8707 40.4693 76.7192 41.2534C76.7367 41.2705 76.7521 41.2897 76.765 41.3105C76.8172 41.399 76.7819 41.4778 76.6617 41.5018Z" fill="#F5F5F5"/>
<path d="M80.6455 46.2827C80.5619 46.2845 80.479 46.2676 80.4028 46.2333C80.3266 46.1989 80.2591 46.1479 80.2051 46.0841C79.665 45.2501 79.0699 44.453 78.4238 43.6981L78.4088 43.6674C78.3499 43.572 78.4065 43.484 78.5364 43.4708C78.6204 43.4621 78.7053 43.4729 78.7844 43.5023C78.8636 43.5317 78.9349 43.5789 78.9928 43.6403C79.6504 44.4146 80.2597 45.2287 80.8172 46.078C80.8817 46.1985 80.8113 46.2833 80.6455 46.2827Z" fill="#F5F5F5"/>
<path d="M79.0111 46.4742C84.6393 55.7334 77.9316 63.2 64.101 63.1681C57.4047 63.153 50.0536 61.4046 43.3881 58.2397C36.7651 55.0887 31.6163 50.9085 28.8955 46.4675C26.1516 41.9518 26.2088 37.7669 29.034 34.6236C31.8592 31.4802 37.1023 29.7553 43.799 29.7713C57.6018 29.7967 73.3836 37.2873 79.0111 46.4742Z" fill="#F5F5F5"/>
<path d="M58.0778 71.2394L57.1939 64.6258C52.1082 63.7375 47.1601 62.1895 42.4748 60.0212L38.5625 65.1095C31.2358 61.7566 24.7417 57.4254 19.9848 52.5437L29.2481 51.0358C27.8536 49.6585 26.6247 48.1232 25.5862 46.461C24.6151 44.8745 23.9773 43.3476 23.6176 41.8794L12.5422 40.389C11.3137 35.4089 12.5426 31.0472 15.8171 27.7066L25.9337 32.8183C27.9497 30.7146 31.0526 29.1254 35.0871 28.2663L27.9229 21.6512C30.9865 20.9679 34.439 20.6158 38.2451 20.6233C42.1324 20.649 46.0102 21.0107 49.8351 21.7045L50.7138 28.3073C55.7935 29.1971 60.7358 30.7443 65.4162 32.9099L69.3442 27.8285C76.6919 31.1923 83.2297 35.5694 87.9903 40.4817L78.7304 41.9645C80.0836 43.3153 81.277 44.8173 82.2871 46.4408C83.31 48.1105 83.9414 49.6449 84.2747 51.107L95.375 52.6277C96.5866 57.5412 95.3557 61.8804 92.0703 65.2218L81.9537 60.1101C79.943 62.2246 76.8384 63.8102 72.8211 64.661L79.9852 71.2851C76.9131 71.9534 73.469 72.3204 69.6639 72.3125C65.778 72.2927 61.9012 71.9337 58.0778 71.2394ZM43.3842 58.2414C50.0498 61.4063 57.4008 63.1547 64.1007 63.168C77.935 63.1982 84.6427 55.7316 79.046 46.523C73.387 37.2855 57.6052 29.7949 43.7951 29.773C37.0984 29.757 31.8536 31.4828 29.0302 34.6253C26.2067 37.7678 26.1487 41.9531 28.8652 46.4151C31.6205 50.9084 36.7666 55.0877 43.3896 58.2388L43.3842 58.2414ZM44.584 60.1333C44.7608 60.2068 44.9438 60.199 44.9994 60.1114C45.0126 60.0911 45.0191 60.0673 45.0181 60.0431C45.0172 60.0189 45.0087 59.9957 44.9939 59.9766C44.9463 59.908 44.8796 59.855 44.802 59.8243C44.1198 59.5382 43.4467 59.2297 42.7783 58.9122C42.2512 58.6621 41.7251 58.3981 41.2112 58.1337C41.051 58.0532 40.8484 58.0459 40.7723 58.1189L40.7561 58.2734L40.9144 58.4051C41.4444 58.6773 41.9808 58.9419 42.5284 59.2065C43.1956 59.5213 43.896 59.8377 44.5831 60.1315L44.584 60.1333ZM81.9404 57.2089C81.7671 57.1426 81.5885 57.1572 81.5334 57.2457C81.178 57.8926 80.7492 58.4962 80.2553 59.0446L80.2522 59.1848L80.4347 59.3293C80.5939 59.4103 80.7917 59.4099 80.8643 59.3296C81.375 58.7739 81.8151 58.1573 82.1746 57.4937C82.1833 57.4738 82.1866 57.4519 82.1841 57.4304C82.1816 57.4088 82.1735 57.3883 82.1604 57.3709C82.1062 57.296 82.0308 57.239 81.944 57.2071L81.9404 57.2089ZM27.4444 33.621C27.6149 33.7021 27.8063 33.7092 27.8802 33.6317C28.4444 33.0663 29.0624 32.5575 29.7256 32.1124C29.7383 32.1029 29.7489 32.0909 29.7569 32.0772C29.7649 32.0634 29.7699 32.0482 29.7719 32.0324C29.7738 32.0166 29.7724 32.0006 29.768 31.9854C29.7635 31.9701 29.7561 31.9559 29.746 31.9437C29.7127 31.8946 29.668 31.8543 29.6158 31.8261C29.5487 31.7812 29.4718 31.7531 29.3915 31.7443C29.3113 31.7354 29.2301 31.746 29.1548 31.7752C28.4816 32.2347 27.8543 32.7582 27.2816 33.3382L27.2718 33.4851L27.4503 33.6215L27.4444 33.621ZM60.1026 31.5547C59.9351 31.4957 59.7493 31.5183 59.7197 31.6133L59.7304 31.7199L59.9661 31.8887C61.2216 32.3364 62.4749 32.8366 63.6955 33.373C63.8664 33.4527 64.0601 33.4463 64.1162 33.3574C64.1303 33.3374 64.1375 33.3134 64.1369 33.2889C64.1362 33.2645 64.1277 33.2409 64.1125 33.2217C64.0644 33.1535 63.9971 33.1012 63.9193 33.0712C62.675 32.5207 61.3985 32.0117 60.0977 31.5515L60.1026 31.5547ZM67.5513 34.8345C67.3872 34.7459 67.1958 34.7387 67.1084 34.8116L67.0926 34.967L67.2397 35.0986C68.3841 35.708 69.4963 36.3543 70.5489 37.0298C70.7076 37.1256 70.9122 37.1553 71.0148 37.0884C71.0834 37.0548 71.0903 36.9888 71.0464 36.9242C71.0163 36.8784 70.9764 36.8399 70.9297 36.8112C69.861 36.128 68.7135 35.4598 67.5486 34.8358L67.5513 34.8345ZM25.2739 37.4151C25.4526 37.4743 25.6237 37.4444 25.6519 37.3489C25.8518 36.6591 26.1447 35.9997 26.5226 35.389C26.5317 35.3679 26.5351 35.3447 26.5325 35.3219C26.53 35.299 26.5215 35.2772 26.508 35.2586C26.457 35.1868 26.3852 35.1325 26.3022 35.103C26.1254 35.0295 25.9375 35.0431 25.88 35.1316C25.5045 35.7603 25.21 36.4341 25.0036 37.1368L25.0225 37.2394L25.2739 37.4151ZM78.944 60.6451C78.7893 60.5574 78.5792 60.5348 78.4874 60.601C77.7887 61.0965 77.0498 61.5325 76.2782 61.9044L76.2213 62.0809L76.3283 62.183C76.3954 62.2304 76.4722 62.2622 76.5531 62.2762C76.634 62.2903 76.7171 62.2861 76.7962 62.2641C77.5835 61.8819 78.3377 61.4351 79.0511 60.9283C79.1116 60.8897 79.114 60.8282 79.0818 60.7623C79.0468 60.7112 79.0002 60.6692 78.9458 60.6397L78.944 60.6451ZM52.3527 62.8093C52.5378 62.8609 52.6986 62.817 52.7018 62.7136C52.7046 62.6821 52.6966 62.6505 52.6792 62.624C52.6076 62.5319 52.5062 62.4676 52.3924 62.4421C51.108 62.1025 49.8156 61.7075 48.5479 61.2736C48.3638 61.2082 48.1837 61.238 48.1541 61.333L48.1774 61.4424L48.4136 61.6121C49.7118 62.0602 51.0378 62.4645 52.3527 62.8093ZM37.4861 56.4706C37.6278 56.5591 37.8333 56.5884 37.9364 56.5223C37.9505 56.5148 37.9628 56.5042 37.9723 56.4913C37.9818 56.4784 37.9883 56.4635 37.9914 56.4478C37.9944 56.4321 37.9939 56.4158 37.9898 56.4003C37.9858 56.3848 37.9783 56.3704 37.968 56.3582C37.937 56.3125 37.8968 56.2739 37.8499 56.2448C36.7797 55.5768 35.7458 54.8799 34.7924 54.1671C34.7274 54.1163 34.6514 54.0812 34.5706 54.0646C34.4897 54.048 34.4061 54.0505 34.3263 54.0717C34.3078 54.0766 34.2907 54.086 34.2765 54.099C34.2624 54.112 34.2517 54.1283 34.2453 54.1464C34.239 54.1645 34.2371 54.1839 34.24 54.2029C34.2429 54.2219 34.2503 54.2399 34.2618 54.2554L34.3495 54.3433C35.3279 55.0774 36.3806 55.7898 37.4825 56.4724L37.4861 56.4706ZM82.9055 52.9941C82.7243 52.9506 82.5729 53.0001 82.5769 53.1043C82.5778 53.8293 82.4911 54.5517 82.3188 55.2558L82.3377 55.3584L82.6008 55.5352C82.7791 55.5934 82.9466 55.5563 82.9753 55.464C83.1534 54.7436 83.2404 54.0037 83.2342 53.2617C83.2345 53.2343 83.2264 53.2074 83.2111 53.1847C83.1356 53.0879 83.0277 53.0215 82.9072 52.9977L82.9055 52.9941ZM31.5285 30.7559C31.5952 30.8059 31.6726 30.8398 31.7545 30.855C31.8364 30.8702 31.9207 30.8664 32.0009 30.8438C32.8707 30.4532 33.7678 30.1268 34.6853 29.8673C34.7839 29.8403 34.8197 29.7625 34.7701 29.6816C34.7527 29.6539 34.7306 29.6295 34.7047 29.6095C34.6418 29.5557 34.5676 29.5165 34.4877 29.4951C34.4077 29.4736 34.3239 29.4703 34.2425 29.4854C33.3023 29.7479 32.3833 30.0815 31.4937 30.4833L31.4382 30.6625L31.5294 30.7577L31.5285 30.7559ZM52.2078 29.3619C52.0311 29.3253 51.8899 29.3842 51.8988 29.4872L51.9306 29.5522C52.0076 29.6539 52.121 29.7219 52.247 29.742C53.5393 29.9995 54.8455 30.3151 56.1341 30.675C56.3202 30.7261 56.4725 30.6807 56.4837 30.5802C56.4881 30.5478 56.4804 30.5149 56.4621 30.4878C56.3938 30.3971 56.2957 30.3334 56.1851 30.3078C54.8708 29.9437 53.5297 29.6251 52.2114 29.3602L52.2078 29.3619ZM74.0127 38.9614C73.9463 38.9109 73.8698 38.8753 73.7883 38.8572C73.7068 38.8391 73.6224 38.8388 73.5409 38.8565C73.4462 38.8916 73.4217 38.9673 73.4664 39.0405L73.5533 39.1289C74.4699 39.8308 75.3507 40.5783 76.1923 41.3686C76.2561 41.4226 76.3307 41.4623 76.4111 41.4851C76.4915 41.5079 76.5759 41.5133 76.6585 41.5009C76.7805 41.4759 76.8158 41.3972 76.7609 41.3077C76.748 41.2869 76.7326 41.2677 76.7151 41.2506C75.8702 40.4647 74.9681 39.6944 74.0118 38.9596L74.0127 38.9614ZM25.2197 41.8692C25.3911 41.8973 25.5318 41.8397 25.5077 41.7284C25.3564 40.9865 25.2904 40.2296 25.311 39.4727C25.3106 39.4436 25.3018 39.4153 25.2857 39.3911C25.2147 39.2963 25.1107 39.2314 24.9943 39.2092C24.8029 39.1652 24.6578 39.207 24.6497 39.3117C24.6282 40.0874 24.6934 40.8632 24.844 41.6245L24.8722 41.6823C24.9147 41.7359 24.9674 41.7804 25.0274 41.8131C25.0875 41.8458 25.1534 41.8662 25.2215 41.8728L25.2197 41.8692ZM74.124 63.0456C74.0592 62.9928 73.9836 62.955 73.9026 62.9347C73.8215 62.9144 73.737 62.9121 73.655 62.9281C72.675 63.2268 71.6781 63.4672 70.6697 63.648C70.5508 63.6703 70.5016 63.7503 70.5596 63.8461L70.5978 63.89C70.6577 63.9485 70.7299 63.9927 70.8092 64.0194C70.8884 64.0461 70.9727 64.0546 71.0557 64.0442C72.0876 63.8629 73.1074 63.6177 74.109 63.3102C74.2145 63.2765 74.2425 63.2013 74.1938 63.1222C74.1751 63.0925 74.1517 63.0671 74.124 63.0456ZM60.2531 64.2859C60.4268 64.3005 60.5362 64.2269 60.5049 64.1147C60.5001 64.1014 60.4939 64.0887 60.4864 64.0768C60.4405 64.0194 60.3831 63.9722 60.3178 63.9384C60.2525 63.9046 60.1809 63.8849 60.1075 63.8806C58.8586 63.7484 57.5635 63.5583 56.2679 63.3147C56.0965 63.2867 55.9558 63.3443 55.9799 63.4555L55.9938 63.5136C56.0343 63.5664 56.085 63.6105 56.1429 63.6433C56.2008 63.6761 56.2648 63.6969 56.3309 63.7045C57.6516 63.9537 58.97 64.1458 60.2562 64.2855L60.2531 64.2859ZM31.5849 52.0733C31.6486 52.126 31.7228 52.1644 31.8026 52.186C31.8824 52.2076 31.9659 52.2118 32.0475 52.1984C32.1645 52.1747 32.1985 52.0955 32.1449 52.0087C32.1295 51.9836 32.1104 51.9609 32.0884 51.9413C31.2828 51.2098 30.5174 50.4351 29.7956 49.6207C29.737 49.5623 29.6661 49.5176 29.5881 49.4898C29.5101 49.462 29.427 49.4517 29.3446 49.4598C29.1993 49.4738 29.154 49.5619 29.2165 49.6555L29.2355 49.6943C29.9768 50.5276 30.761 51.3216 31.5849 52.0733ZM81.7347 48.2966C81.5644 48.2893 81.4594 48.3696 81.5052 48.4792C81.8437 49.2362 82.1117 50.0228 82.3058 50.829L82.3301 50.8787C82.3722 50.9342 82.4253 50.9805 82.486 51.0147C82.5468 51.0489 82.6139 51.0702 82.6833 51.0773C82.8664 51.1064 82.991 51.0388 82.9682 50.9303C82.7693 50.1045 82.4966 49.2984 82.1532 48.5215C82.1497 48.5121 82.1453 48.503 82.14 48.4944C82.0911 48.4346 82.0301 48.3859 81.961 48.3514C81.892 48.3169 81.8163 48.2975 81.7392 48.2944L81.7347 48.2966ZM37.2711 29.0531C37.3317 29.1106 37.4042 29.1541 37.4834 29.1807C37.5627 29.2072 37.6468 29.2162 37.7298 29.2068C38.8365 29.0323 39.9518 28.9172 41.0708 28.8623C41.216 28.855 41.3069 28.7894 41.2396 28.6791C41.2311 28.6659 41.2216 28.6533 41.2112 28.6415C41.1553 28.5789 41.0863 28.5293 41.0091 28.4962C40.9319 28.4632 40.8484 28.4476 40.7645 28.4506C39.6225 28.5108 38.4844 28.631 37.355 28.8107C37.221 28.8248 37.1757 28.9129 37.2346 29.0082L37.2711 29.0531ZM27.3504 47.2628C27.4034 47.3262 27.4704 47.3764 27.5462 47.4094C27.6219 47.4425 27.7043 47.4575 27.7868 47.4533C27.9477 47.4462 28.0106 47.3506 27.9424 47.2408C27.7757 46.9867 27.606 46.7264 27.4524 46.467L27.417 46.4083C26.9607 45.6648 26.5647 44.886 26.2328 44.0793L26.2249 44.0631C26.1779 44.0001 26.1178 43.9479 26.0488 43.9102C25.9799 43.8726 25.9035 43.8502 25.8251 43.8447C25.6509 43.8292 25.5464 43.9105 25.5921 44.0201C25.9319 44.8459 26.3357 45.6439 26.8 46.4068L26.8368 46.466C26.998 46.7301 27.1708 46.9946 27.3554 47.2593L27.3504 47.2628ZM44.4377 28.4289C44.2563 28.4215 44.1674 28.5096 44.2235 28.6198L44.2274 28.6279C44.2789 28.6909 44.3435 28.7418 44.4167 28.7773C44.4898 28.8128 44.5698 28.832 44.6511 28.8335C45.8681 28.8773 47.1209 28.9807 48.3907 29.1306C48.5703 29.1547 48.69 29.0794 48.6555 28.9699C48.651 28.9536 48.6435 28.9383 48.6335 28.9248C48.5879 28.8706 48.5321 28.826 48.4692 28.7936C48.4064 28.7612 48.3377 28.7415 48.2671 28.7359C46.9734 28.5853 45.6744 28.4788 44.4359 28.4343L44.4377 28.4289ZM78.9911 43.6421C78.9332 43.5806 78.8619 43.5334 78.7827 43.504C78.7036 43.4746 78.6187 43.4639 78.5347 43.4726C78.4011 43.4875 78.3446 43.5755 78.4071 43.6691L78.4221 43.6998C79.0682 44.4547 79.6633 45.2518 80.2034 46.0859C80.2574 46.1497 80.3249 46.2006 80.4011 46.235C80.4773 46.2694 80.5602 46.2862 80.6438 46.2844C80.8096 46.285 80.8818 46.2039 80.8164 46.0793C80.2589 45.23 79.6487 44.4164 78.9911 43.6421ZM64.9273 64.5434L65.0153 64.5428C65.9302 64.543 66.8265 64.5142 67.6822 64.455C67.8324 64.442 67.9042 64.3577 67.8457 64.2633C67.8382 64.2511 67.8296 64.2396 67.82 64.2289C67.7638 64.1682 67.6951 64.1204 67.6186 64.0889C67.5422 64.0573 67.4598 64.0427 67.3772 64.046C66.5314 64.1049 65.6567 64.1343 64.7642 64.1343L64.89 64.339L64.6869 64.1341C64.4007 64.1342 64.114 64.1334 63.8341 64.1259C63.654 64.1189 63.575 64.2067 63.636 64.3245L63.6399 64.3327C63.6901 64.3953 63.7539 64.4457 63.8265 64.4799C63.8991 64.5142 63.9785 64.5316 64.0588 64.5306C64.3499 64.5382 64.641 64.5457 64.9272 64.5456" fill="#F40F3E"/>
<path d="M69.3426 27.8295L65.4164 32.91C60.7371 30.7444 55.7961 29.1966 50.7176 28.3056L49.8389 21.7028C56.5748 22.905 63.1292 24.9639 69.3426 27.8295Z" fill="#F5F5F5"/>
<path d="M92.7063 46.4581L92.7595 46.5439C94.04 48.6513 94.8889 50.6856 95.3711 52.624L84.2707 51.1033C83.9375 49.6412 83.3065 48.1077 82.3389 46.5284L82.2831 46.4371C81.273 44.8136 80.0796 43.3116 78.7264 41.9608L87.9908 40.487C89.8496 42.4001 91.4487 44.4044 92.7063 46.4581Z" fill="#F5F5F5"/>
<path d="M35.0869 28.2744C31.0502 29.129 27.9478 30.7191 25.9336 32.8264L15.817 27.7147C18.5106 24.9175 22.6413 22.8136 27.9233 21.6512L35.0869 28.2744Z" fill="#F5F5F5"/>
<path d="M92.0706 65.2219C89.3819 68.0268 85.2693 70.1264 79.9868 71.2856L72.8227 64.6616C76.8401 63.8108 79.9447 62.2252 81.9554 60.1107L92.0706 65.2219Z" fill="#F5F5F5"/>
<path d="M29.2478 51.0438L19.9845 52.5518C19.61 52.17 19.25 51.7834 18.8998 51.3943L18.8402 51.3272L18.604 51.0613C17.3361 49.6307 16.1927 48.0943 15.1863 46.469C15.1332 46.3831 15.0827 46.2959 15.034 46.2168L14.926 46.0348L14.8335 45.8753L14.692 45.6291L14.6407 45.5356L14.4683 45.224C13.629 43.7001 12.9798 42.079 12.5351 40.397L23.6164 41.8879C23.9761 43.3561 24.6139 44.883 25.585 46.4695C26.6238 48.1316 27.853 49.6668 29.2478 51.0438Z" fill="#F5F5F5"/>
<path d="M57.1916 64.6303L58.0755 71.2439C51.3362 70.0389 44.7781 67.9789 38.5602 65.114L42.4725 60.0257C47.1578 62.194 52.1059 63.742 57.1916 64.6303Z" fill="#F5F5F5"/>
<path d="M93.0649 64.0984C92.7532 64.4899 92.4213 64.8649 92.0706 65.2219L88.3764 76.2639C88.7226 75.9123 89.0506 75.5433 89.3593 75.1584C89.3656 75.1553 89.367 75.1468 89.3711 75.1414C89.7823 74.6169 90.1529 74.0619 90.4799 73.4812C90.5607 73.3421 90.6361 73.2013 90.711 73.0595C91.0216 72.483 91.2853 71.8825 91.4997 71.2638L95.1975 60.2267C94.9826 60.8448 94.7181 61.4446 94.4066 62.0201C94.3321 62.1628 94.2553 62.3032 94.175 62.4431C93.8473 63.0222 93.4762 63.5755 93.0649 64.0984Z" fill="#800505"/>
<path d="M71.0111 83.1319C71.0754 83.1262 71.1348 83.1151 71.1987 83.1085C71.8023 83.0506 72.3831 82.9713 72.9644 82.893C73.2474 82.8542 73.5424 82.8263 73.8196 82.7825C74.6677 82.6506 75.4919 82.4987 76.2921 82.3268L79.9863 71.2847C79.188 71.459 78.3625 71.6097 77.5143 71.7414C77.2358 71.7847 76.9407 71.8126 76.6577 71.8514C76.0769 71.9306 75.4956 72.0089 74.8934 72.0673C74.3438 72.1212 73.7763 72.157 73.2089 72.1927C72.9212 72.2103 72.6428 72.2379 72.3506 72.251C71.4757 72.2916 70.5818 72.3137 69.6651 72.3121C65.7789 72.2925 61.9018 71.9336 58.078 71.2395L54.3843 82.2802C58.2076 82.9752 62.0844 83.3342 65.9704 83.3533C66.8862 83.353 67.7815 83.3337 68.6572 83.2927C68.9481 83.2791 69.226 83.2529 69.5133 83.2343C70.0147 83.2029 70.5254 83.177 71.0111 83.1319Z" fill="#8E0606"/>
<path d="M12.5419 40.3971C11.8517 37.612 11.9372 35.0181 12.7158 32.6894L9.02115 43.7306C8.24248 46.0593 8.16108 48.6523 8.84815 51.4378L12.5419 40.3971Z" fill="#7B0505"/>
<path d="M79.6437 81.4044C79.874 81.3287 80.1025 81.2517 80.327 81.171C80.6602 81.0518 80.984 80.9271 81.3064 80.8042C81.5147 80.7203 81.7244 80.639 81.927 80.5523C82.2567 80.4102 82.574 80.2607 82.889 80.109C83.0641 80.0234 83.2459 79.9446 83.4135 79.8526C83.7913 79.6601 84.1527 79.4567 84.5077 79.2496C84.5999 79.1956 84.6988 79.1462 84.7896 79.0917C84.7995 79.0869 84.8094 79.082 84.8194 79.0772C84.851 79.0617 84.8745 79.0368 84.9026 79.0186C85.458 78.6746 85.9952 78.3019 86.5119 77.9021C86.6492 77.797 86.7836 77.6906 86.9152 77.5831C87.4266 77.174 87.9126 76.734 88.3705 76.2657L92.0706 65.2219C91.6128 65.6904 91.127 66.1306 90.6157 66.5402C90.4827 66.6477 90.3481 66.7538 90.212 66.8583C89.6927 67.2589 89.1528 67.6322 88.5946 67.9765C88.553 67.9968 88.5199 68.0275 88.4802 68.0514C88.3894 68.1059 88.2896 68.1557 88.1975 68.2097C87.8433 68.4164 87.482 68.6198 87.1041 68.8123C86.9326 68.8962 86.7548 68.9831 86.5796 69.0687C86.2655 69.2222 85.9446 69.3712 85.6171 69.5111C85.4146 69.5978 85.2053 69.68 84.9965 69.763C84.6768 69.8913 84.3521 70.0165 84.019 70.1357C83.7949 70.215 83.5664 70.292 83.3374 70.3681C83.0715 70.4556 82.7998 70.5381 82.5267 70.6201C81.7085 70.8657 80.8688 71.0949 79.9845 71.29L76.2925 82.3276C77.1773 82.1334 78.0165 81.9033 78.8357 81.6573C78.9335 81.6285 79.0505 81.6048 79.1506 81.5738C79.3196 81.5192 79.4783 81.4595 79.6437 81.4044Z" fill="#949494"/>
<path d="M19.9828 52.5482C19.6083 52.1665 19.2483 51.7799 18.8982 51.3907L18.8386 51.3237L18.6024 51.0578C17.3344 49.6271 16.191 48.0907 15.1847 46.4654C15.1315 46.3795 15.0811 46.2924 15.0324 46.2133L14.9244 46.0312L14.8319 45.8717L14.6903 45.6256L14.639 45.5321L14.4666 45.2205C13.6274 43.6965 12.9781 42.0754 12.5335 40.3935L8.84011 51.4373C9.28527 53.1191 9.93446 54.7402 10.7732 56.2643L10.9461 56.5769L10.9902 56.6671L11.1323 56.9142L11.2243 57.0728L11.3336 57.2553L11.485 57.5079C12.4913 59.1332 13.6347 60.6696 14.9027 62.1002L15.1439 62.3648L15.2044 62.4314L15.4019 62.6503C15.6897 62.9659 15.9852 63.2785 16.2886 63.588L19.9828 52.5482Z" fill="#858585"/>
<path d="M24.3079 70.2302C24.4405 70.3208 24.5687 70.4136 24.7022 70.5038C25.4038 70.9736 26.1213 71.4341 26.8548 71.8853C27.0456 72.0034 27.2414 72.1179 27.4344 72.2338C27.7737 72.4382 28.1075 72.6452 28.4526 72.8456C28.6068 72.9324 28.766 73.0134 28.9194 73.1006C29.5752 73.4745 30.2433 73.8369 30.9177 74.194C31.2227 74.3603 31.5281 74.5275 31.8461 74.6863C32.836 75.1922 33.8408 75.6853 34.8656 76.1552L38.5603 65.114C37.5346 64.6446 36.5307 64.1511 35.5395 63.6447C35.2264 63.4846 34.9214 63.316 34.6119 63.1519C33.9375 62.7948 33.2695 62.4325 32.6141 62.0594C32.1134 61.774 31.6172 61.4864 31.1291 61.1926C30.9356 61.0759 30.7398 60.9613 30.5481 60.8436C29.8166 60.3926 29.0968 59.9336 28.3964 59.4617C28.2629 59.3715 28.1348 59.2787 28.0021 59.1881C27.4299 58.7968 26.8688 58.4 26.3188 57.9978C26.113 57.8467 25.9104 57.6953 25.7086 57.5434C25.3627 57.2819 25.029 57.0155 24.693 56.7491C24.0865 56.2709 23.4976 55.7845 22.9263 55.2898C22.6855 55.0809 22.4407 54.8752 22.2058 54.6645C21.4329 53.9709 20.6829 53.2672 19.9826 52.5482L16.2888 63.5889C16.9896 64.3088 17.7382 65.0121 18.5124 65.7062C18.7465 65.9172 18.9909 66.1221 19.2316 66.331C19.8041 66.8251 20.3938 67.3123 21.0006 67.7926C21.1554 67.9149 21.2945 68.0437 21.4511 68.1651C21.6327 68.3079 21.8265 68.4435 22.0126 68.5841C22.2157 68.7364 22.4188 68.8888 22.6255 69.0394C23.1748 69.4434 23.7356 69.8403 24.3079 70.2302Z" fill="#800505"/>
<path d="M49.8995 81.3441C50.1286 81.3987 50.3578 81.4489 50.5869 81.5013C51.847 81.7913 53.1145 82.0553 54.3833 82.2807L58.0771 71.2399C56.8092 71.0164 55.5422 70.7488 54.2789 70.4592C54.0511 70.4073 53.822 70.3571 53.5942 70.3029C52.3826 70.0146 51.1782 69.6981 49.9809 69.3536C49.7478 69.2863 49.5175 69.2155 49.2858 69.1464C48.0516 68.7789 46.8229 68.3908 45.6121 67.966L45.5087 67.9282C44.3145 67.5054 43.1421 67.0562 41.9789 66.5846C41.7515 66.4923 41.5222 66.403 41.297 66.3084C40.3748 65.9249 39.4617 65.5279 38.5618 65.1167L34.8671 76.1579C35.7652 76.5722 36.6806 76.9669 37.6028 77.3505C37.7 77.3914 37.7935 77.4362 37.8888 77.478C38.016 77.5277 38.1522 77.5729 38.282 77.628C39.4447 78.0987 40.6189 78.5515 41.8117 78.9716L41.9152 79.0094C43.1287 79.4329 44.3542 79.8214 45.5888 80.1898C45.8205 80.2589 46.0509 80.3297 46.2835 80.3961C47.4811 80.7367 48.6865 81.0527 49.8995 81.3441Z" fill="#949494"/>
<path style="mix-blend-mode:screen" d="M79.994 71.2871C76.9121 71.9535 73.4707 72.3214 69.6642 72.3176C65.7774 72.2936 61.8999 71.934 58.075 71.2427C51.3368 70.037 44.7796 67.9783 38.5615 65.1163C31.2375 61.7622 24.7402 57.4314 19.9788 52.5451C19.6102 52.1661 19.2484 51.7714 18.8973 51.3962C18.8854 51.3718 18.8608 51.3536 18.8485 51.3284C18.7572 51.2354 18.6847 51.1489 18.6077 51.0646C17.341 49.6328 16.1968 48.0971 15.1873 46.4736C15.1306 46.3895 15.09 46.3065 15.0354 46.2269C14.9809 46.1473 14.9571 46.0963 14.9271 46.0349C14.8907 45.9872 14.8601 45.9353 14.8359 45.8804C14.7813 45.8008 14.739 45.7142 14.6849 45.6332L14.6368 45.5348C14.574 45.4336 14.5175 45.3287 14.4675 45.2206C13.6253 43.7016 12.9779 42.0826 12.5406 40.4017C11.9259 37.9152 11.9286 35.5754 12.4885 33.4375C13.0484 31.2995 14.1765 29.3882 15.8188 27.7144C18.5156 24.9145 22.6364 22.8087 27.9202 21.6454C30.9837 20.9734 34.4439 20.612 38.2387 20.6215C42.1281 20.6462 46.008 21.0101 49.8341 21.7091C56.5708 22.9053 63.1263 24.9601 69.3405 27.8232C76.6931 31.197 83.2269 35.5681 87.9848 40.4862C89.7738 42.2967 91.3572 44.2994 92.7062 46.4578C92.7181 46.4822 92.7488 46.513 92.763 46.5419C94.0389 48.6537 94.9031 50.6918 95.3727 52.6319C96.5911 57.532 95.3565 61.8841 92.0675 65.2228C89.3878 68.0256 85.267 70.1313 79.994 71.2871Z" fill="url(#paint0_linear_377:14553)"/>
<path style="mix-blend-mode:multiply" d="M84.5077 79.2497C84.5999 79.1957 84.6987 79.1463 84.7896 79.0918C84.7995 79.087 84.8094 79.0821 84.8193 79.0772C84.8509 79.0618 84.8745 79.0369 84.9026 79.0187C85.458 78.6747 85.9952 78.302 86.5119 77.9022C86.6492 77.7971 86.7836 77.6907 86.9152 77.5832C87.4266 77.1741 87.9126 76.7341 88.3705 76.2658C88.7186 75.9137 89.0486 75.5442 89.3592 75.1585C89.3655 75.1554 89.3669 75.1469 89.371 75.1415C89.7824 74.6183 90.1538 74.0648 90.482 73.4858C90.5623 73.3458 90.6377 73.205 90.7127 73.0632C91.0233 72.4867 91.287 71.8862 91.5014 71.2675L95.1974 60.2268C94.9825 60.8449 94.718 61.4447 94.4065 62.0202C94.332 62.1629 94.2552 62.3033 94.1749 62.4432C93.8476 63.0225 93.4765 63.5759 93.0648 64.0985C92.7531 64.49 92.4212 64.865 92.0705 65.222C91.6129 65.6906 91.127 66.1308 90.6157 66.5403C90.4826 66.6478 90.3482 66.7541 90.2125 66.8593C89.6927 67.2592 89.1527 67.6322 88.5945 67.9766C88.553 67.9969 88.5199 68.0276 88.4802 68.0515C88.3894 68.1059 88.2905 68.1554 88.1974 68.2098C87.8433 68.4165 87.4819 68.6199 87.1041 68.8124C86.9326 68.8962 86.7547 68.9832 86.5796 69.0688C86.2655 69.2223 85.9446 69.3713 85.6171 69.5112C85.4146 69.5979 85.2053 69.6801 84.9965 69.7631C84.6768 69.8914 84.3521 70.0166 84.0189 70.1358C83.7949 70.2151 83.5664 70.2921 83.3374 70.3682C83.0715 70.4557 82.7998 70.5382 82.5267 70.6202C81.7085 70.8658 80.8688 71.095 79.9845 71.2901C79.1862 71.4645 78.3607 71.6152 77.5124 71.7468C77.2339 71.7901 76.9389 71.818 76.6559 71.8568C76.075 71.936 75.4937 72.0144 74.8915 72.0727C74.3419 72.1266 73.7745 72.1624 73.207 72.1982C72.9193 72.2158 72.6409 72.2434 72.3487 72.2565C71.4739 72.2971 70.5799 72.3191 69.6632 72.3176C65.777 72.298 61.8999 71.9391 58.0762 71.2449C56.8083 71.0214 55.5413 70.7538 54.2785 70.4651C54.0502 70.4123 53.821 70.3621 53.5933 70.308C52.3829 70.016 51.1788 69.6979 49.9809 69.3537C49.7478 69.2864 49.5175 69.2156 49.2858 69.1465C48.0516 68.779 46.8229 68.3909 45.6122 67.9661C45.5777 67.955 45.5436 67.9403 45.5091 67.9292C44.315 67.5064 43.1421 67.0563 41.979 66.5847C41.7515 66.4924 41.5231 66.4027 41.2971 66.3085C40.3749 65.925 39.4617 65.528 38.5618 65.1168C37.537 64.6469 36.5322 64.1539 35.541 63.6475C35.2279 63.4874 34.9229 63.3188 34.6134 63.1547C33.939 62.7976 33.2709 62.4353 32.6156 62.0622C32.1148 61.7768 31.6187 61.4893 31.1306 61.1955C30.9371 61.0787 30.7413 60.9641 30.5496 60.8464C29.8181 60.3954 29.0983 59.9364 28.3979 59.4645C28.2644 59.3743 28.1363 59.2815 28.0036 59.1909C27.4314 58.7996 26.8703 58.4028 26.3203 58.0006C26.1145 57.8496 25.9118 57.6981 25.7101 57.5462C25.3642 57.2847 25.0305 57.0183 24.695 56.7529C24.0879 56.2735 23.4988 55.7867 22.9278 55.2926C22.687 55.0838 22.4422 54.878 22.2073 54.6674C21.4343 53.9737 20.6844 53.27 19.9841 52.551C19.6096 52.1692 19.2496 51.7827 18.8994 51.3935L18.8398 51.3265L18.6036 51.0606C17.3357 49.6299 16.1923 48.0935 15.1859 46.4682L15.0336 46.2161L14.9256 46.034L14.8331 45.8745L14.6916 45.6284L14.6403 45.5349L14.4678 45.2233C13.6309 43.7028 12.9828 42.0857 12.5382 40.408L12.5419 40.3972C11.8517 37.6121 11.9371 35.0183 12.7158 32.6895L9.02113 43.7307C8.24384 46.0554 8.16205 48.643 8.84468 51.4217L8.83916 51.4356C9.28435 53.1174 9.93355 54.7384 10.7723 56.2626L10.9452 56.5751C10.9606 56.6067 10.9761 56.6383 10.9947 56.6628L11.1358 56.9103L11.2279 57.0689L11.3372 57.2514L11.4886 57.5039C12.4949 59.1293 13.6383 60.6657 14.9063 62.0963L15.1475 62.3609L15.208 62.4275L15.4055 62.6464C15.6929 62.9622 15.9876 63.2744 16.2926 63.585C16.993 64.304 17.7393 65.0028 18.5158 65.7014C18.7498 65.9124 18.9942 66.1173 19.235 66.3262C19.8075 66.8203 20.3972 67.3075 21.0039 67.7878C21.1588 67.9101 21.2978 68.0389 21.4544 68.1603C21.636 68.3031 21.8298 68.4387 22.0159 68.5793C22.219 68.7316 22.4221 68.884 22.6288 69.0346C23.1776 69.4374 23.7384 69.8343 24.3113 70.2253C24.4439 70.316 24.572 70.4088 24.7056 70.499C25.4071 70.9688 26.1246 71.4293 26.8581 71.8805C27.0489 71.9986 27.2447 72.1131 27.4378 72.229C27.777 72.4334 28.1113 72.6413 28.4559 72.8408C28.6102 72.9276 28.7694 73.0085 28.9227 73.0958C29.5786 73.4697 30.2467 73.8321 30.9211 74.1891C31.226 74.3555 31.5314 74.5227 31.8495 74.6815C32.8394 75.1874 33.8442 75.6805 34.8699 76.1499C35.7671 76.5647 36.6825 76.9594 37.6047 77.3429C37.7018 77.3838 37.7954 77.4287 37.8907 77.4705C38.0179 77.5201 38.1541 77.5654 38.2839 77.6205C39.4466 78.0912 40.6208 78.5439 41.8136 78.9641L41.9171 79.0019C43.1306 79.4254 44.3561 79.8139 45.5907 80.1823C45.8224 80.2513 46.0528 80.3222 46.2854 80.3885C47.4836 80.7349 48.6884 81.0522 49.9 81.3406C50.1291 81.3952 50.3583 81.4454 50.5875 81.4978C51.8475 81.7878 53.1151 82.0518 54.3838 82.2771C58.2072 82.9721 62.084 83.3312 65.9699 83.3502C66.8857 83.35 67.7811 83.3306 68.6568 83.2896C68.9476 83.276 69.2256 83.2498 69.5129 83.2312C70.0142 83.1998 70.5231 83.1748 71.0107 83.1289C71.075 83.1231 71.1344 83.112 71.1982 83.1054C71.8018 83.0475 72.3849 82.9728 72.9639 82.8899C73.2469 82.8511 73.542 82.8232 73.8196 82.7804C74.6674 82.6478 75.4938 82.4967 76.2917 82.3237C77.1764 82.1295 78.0156 81.8993 78.8348 81.6533C78.9326 81.6245 79.0496 81.6009 79.1497 81.5699C79.3196 81.517 79.4778 81.4564 79.6432 81.4013C79.8736 81.3257 80.1021 81.2486 80.3266 81.168C80.6602 81.0497 80.9835 80.9241 81.3059 80.8012C81.5143 80.7172 81.724 80.636 81.9265 80.5493C82.2563 80.4071 82.5744 80.2572 82.8886 80.1059C83.0637 80.0203 83.2455 79.9415 83.413 79.8496C83.7922 79.6598 84.1527 79.4568 84.5077 79.2497Z" fill="url(#paint1_linear_377:14553)"/>
<g style="mix-blend-mode:soft-light">
<g style="mix-blend-mode:soft-light">
<path d="M95.3716 52.6318C95.8785 54.5179 96.1067 56.5223 95.7816 58.4862C95.4736 60.4651 94.6954 62.3412 93.5123 63.957C92.3241 65.5684 90.8588 66.9556 89.1847 68.0538C87.5233 69.1644 85.7021 70.0054 83.8338 70.6837C80.0799 72.0117 76.1212 72.637 72.1712 72.852C68.2137 73.0383 64.2481 72.7957 60.3345 72.2503C56.4205 71.6943 52.5535 70.846 48.7662 69.7125C44.9818 68.5696 41.2897 67.141 37.7217 65.439C34.1416 63.759 30.7062 61.7866 27.4504 59.5418C25.8206 58.4195 24.2563 57.2051 22.765 55.9045C21.2702 54.6039 19.8608 53.2083 18.5454 51.7264L18.4607 51.6057L18.4141 51.5378L18.5024 51.6636C18.115 51.2233 17.7972 50.8385 17.4515 50.408C17.1058 49.9775 16.7869 49.5608 16.4695 49.1265C16.1522 48.6923 15.8438 48.2491 15.5477 47.7989L15.1108 47.1177L14.7035 46.4445L14.6903 46.4174L14.6783 46.393L14.5722 46.2011L14.6272 46.2861L14.486 46.0498L14.5102 46.0994L14.3619 45.8509L14.3403 45.8067L14.3372 45.8004L14.2891 45.702L14.3103 45.7453L13.7398 44.6329C13.5607 44.2664 13.3928 43.8933 13.2345 43.5166C12.9143 42.764 12.6447 41.9909 12.4277 41.2023C11.9827 39.624 11.7876 37.9858 11.8496 36.3471C11.9208 34.7135 12.3099 33.1095 12.995 31.6248C13.6884 30.1603 14.6463 28.8364 15.8204 27.7197C14.7235 28.8887 13.8441 30.2441 13.2238 31.7221C12.6171 33.1923 12.3039 34.767 12.302 36.3575C12.3049 37.9398 12.5562 39.5118 13.0468 41.016C13.2891 41.768 13.5725 42.5061 13.8958 43.2269C14.0586 43.5873 14.2321 43.9424 14.4165 44.2921L14.9694 45.3136L14.9906 45.3569L15.0387 45.4553L15.0148 45.4066L15.1686 45.6502L15.1933 45.7007C15.2087 45.7232 15.2207 45.7479 15.229 45.7738L15.284 45.8588L15.3946 46.0486L15.3699 45.998L15.8068 46.6791L16.2476 47.3316C16.5462 47.7626 16.8564 48.1859 17.178 48.6013C17.4996 49.0167 17.829 49.4253 18.1663 49.8271C18.4962 50.2184 18.868 50.6428 19.1915 50.9935L19.2811 51.1197L19.3304 51.1862L19.247 51.0659C20.571 52.4865 21.9855 53.8198 23.4817 55.0577C24.9786 56.2899 26.5205 57.4676 28.1248 58.5602C31.3439 60.7389 34.7368 62.649 38.2692 64.2711C41.7899 65.9211 45.4404 67.2739 49.1581 68.4115C52.8733 69.5567 56.669 70.4223 60.5134 71.0009C64.3562 71.5686 68.2444 71.8378 72.1197 71.6873C75.995 71.5367 79.8711 71.0491 83.5448 69.8452C85.3707 69.2335 87.1562 68.4615 88.7814 67.4323C90.417 66.4129 91.8712 65.128 93.0843 63.6304C94.291 62.1164 95.1166 60.3349 95.4917 58.4355C95.8769 56.5328 95.779 54.5476 95.3716 52.6318Z" fill="#F6F6F6"/>
</g>
</g>
<defs>
<linearGradient id="paint0_linear_377:14553" x1="-3.97337" y1="-15.4052" x2="74.7807" y2="68.7343" gradientUnits="userSpaceOnUse">
<stop stop-color="white"/>
<stop offset="1"/>
</linearGradient>
<linearGradient id="paint1_linear_377:14553" x1="60.7985" y1="64.0218" x2="-21.6094" y2="44.447" gradientUnits="userSpaceOnUse">
<stop stop-color="white"/>
<stop offset="0.15" stop-color="#FBFBFB"/>
<stop offset="0.32" stop-color="#EDEDEE"/>
<stop offset="0.49" stop-color="#D7D8D8"/>
<stop offset="0.67" stop-color="#B9B9BB"/>
<stop offset="0.86" stop-color="#929295"/>
<stop offset="1" stop-color="#6D6E71"/>
</linearGradient>
</defs>
</svg>
