<svg width="28" height="27" viewBox="0 0 28 27" fill="none" xmlns="http://www.w3.org/2000/svg">
<path d="M20.9515 4.77087C20.0942 4.77087 19.3984 5.46314 19.3984 6.31616C19.3984 7.16918 20.0942 7.86145 20.9515 7.86145C21.8089 7.86145 22.5046 7.16918 22.5046 6.31616C22.502 5.46314 21.8089 4.77087 20.9515 4.77087Z" fill="white"/>
<path d="M14.0488 6.75183C10.4527 6.75183 7.52637 9.66337 7.52637 13.2386C7.52637 16.8165 10.4527 19.728 14.0488 19.728C17.6449 19.728 20.5686 16.8165 20.5686 13.2386C20.5712 9.66337 17.6449 6.75183 14.0488 6.75183ZM14.0488 17.3972C11.7452 17.3972 9.87162 15.5331 9.87162 13.2412C9.87162 10.9493 11.7452 9.08521 14.0488 9.08521C16.3524 9.08521 18.226 10.9493 18.226 13.2412C18.226 15.5305 16.3524 17.3972 14.0488 17.3972Z" fill="white"/>
<path d="M19.2263 26.4119H8.65443C4.26881 26.4119 0.701416 22.8625 0.701416 18.4991V7.98066C0.701416 3.61722 4.26881 0.0678711 8.65443 0.0678711H19.2263C23.6119 0.0678711 27.1793 3.61722 27.1793 7.98066V18.4991C27.1793 22.8625 23.6119 26.4119 19.2263 26.4119ZM8.65443 2.54645C5.64209 2.54645 3.19259 4.98355 3.19259 7.98066V18.4991C3.19259 21.4962 5.64209 23.9333 8.65443 23.9333H19.2263C22.2387 23.9333 24.6881 21.4962 24.6881 18.4991V7.98066C24.6881 4.98355 22.2387 2.54645 19.2263 2.54645H8.65443Z" fill="white"/>
</svg>
