<svg width="35" height="27" viewBox="0 0 35 27" fill="none" xmlns="http://www.w3.org/2000/svg">
<g clip-path="url(#clip0_270:57)">
<path d="M6.21678 26.3884V24.6688C6.28292 24.0736 5.81996 23.6106 5.22474 23.5445C5.1586 23.5445 5.1586 23.5445 5.09246 23.5445C4.69564 23.5445 4.29883 23.6768 4.10042 24.0736C3.90201 23.7429 3.57133 23.5445 3.17451 23.5445C2.84383 23.5445 2.51314 23.6768 2.38087 23.9413V23.6106H1.78564V26.3884H2.38087V24.8011C2.31474 24.4704 2.57928 24.1397 2.9761 24.0736H3.04224C3.43905 24.0736 3.63746 24.3381 3.63746 24.8011V26.3884H4.23269V24.8011C4.16655 24.4704 4.4311 24.1397 4.82792 24.0736H4.89405C5.29087 24.0736 5.48928 24.3381 5.48928 24.8011V26.3884H6.21678ZM15.3436 23.6106H14.3516V22.7509H13.6902V23.6106H13.095V24.1397H13.6902V25.3963C13.6902 26.0577 13.9547 26.4545 14.6822 26.4545C14.9468 26.4545 15.2113 26.3884 15.4759 26.2561L15.2775 25.727C15.1452 25.7931 14.9468 25.8593 14.7484 25.8593C14.4177 25.8593 14.3516 25.6609 14.3516 25.3963V24.1397H15.3436V23.6106ZM20.5022 23.5445C20.1716 23.5445 19.907 23.6768 19.7747 23.9413V23.6106H19.1795V26.3884H19.7747V24.8011C19.7747 24.3381 19.9731 24.0736 20.37 24.0736C20.5022 24.0736 20.6345 24.0736 20.7668 24.1397L20.9652 23.5445C20.8329 23.5445 20.6345 23.5445 20.5022 23.5445ZM12.6981 23.8091C12.3675 23.6106 11.9706 23.4784 11.5738 23.5445C10.8463 23.5445 10.3834 23.8752 10.3834 24.4043C10.3834 24.8672 10.7141 25.1318 11.3754 25.1979L11.64 25.2641C11.9706 25.3302 12.1029 25.3963 12.1029 25.5286C12.1029 25.6609 11.9045 25.8593 11.4416 25.8593C11.1109 25.8593 10.7802 25.7931 10.5156 25.5947L10.2511 26.0577C10.5818 26.3222 11.0447 26.4545 11.4416 26.3884C12.2352 26.3884 12.6981 25.9916 12.6981 25.4625C12.6981 24.9334 12.3013 24.735 11.7061 24.6027L11.4416 24.5366C11.177 24.5366 10.9786 24.4704 10.9786 24.272C10.9786 24.0736 11.177 23.9413 11.5077 23.9413C11.8384 23.9413 12.1029 24.0075 12.3675 24.2059L12.6981 23.8091ZM28.9677 23.5445C28.637 23.5445 28.3725 23.6768 28.2402 23.9413V23.6106H27.645V26.3884H28.2402V24.8011C28.2402 24.3381 28.4386 24.0736 28.8354 24.0736C28.9677 24.0736 29.1 24.0736 29.2322 24.1397L29.4306 23.5445C29.2984 23.5445 29.1 23.5445 28.9677 23.5445ZM21.1636 24.9995C21.1636 25.7931 21.7588 26.4545 22.5525 26.4545C22.6186 26.4545 22.6186 26.4545 22.6847 26.4545C23.0816 26.4545 23.4122 26.3222 23.6768 26.1238L23.4122 25.6609C23.2138 25.7931 22.9493 25.9254 22.6847 25.9254C22.2218 25.8593 21.825 25.4625 21.8911 24.9334C21.9572 24.4704 22.2879 24.1397 22.6847 24.1397C22.9493 24.1397 23.2138 24.2059 23.4122 24.4043L23.6768 23.9413C23.4122 23.7429 23.0154 23.6106 22.6847 23.6106C21.8911 23.5445 21.2297 24.1397 21.1636 24.9995C21.1636 24.9334 21.1636 24.9334 21.1636 24.9995ZM26.8513 24.9995V23.6106H26.2561V23.9413C26.0577 23.6768 25.727 23.5445 25.3963 23.5445C24.6027 23.6106 24.0075 24.3381 24.0736 25.1318C24.1397 25.8593 24.6688 26.3884 25.3963 26.4545C25.727 26.4545 26.0577 26.3222 26.2561 26.0577V26.3884H26.8513V24.9995ZM24.6027 24.9995C24.6027 24.5366 24.9995 24.2059 25.4625 24.2059C25.9254 24.2059 26.2561 24.6027 26.2561 25.0656C26.2561 25.5286 25.8593 25.8593 25.3963 25.8593C24.9334 25.8593 24.6027 25.5286 24.6027 24.9995ZM17.1954 23.5445C16.4018 23.5445 15.7404 24.2059 15.7404 24.9995C15.7404 25.7931 16.4018 26.4545 17.1954 26.4545C17.5922 26.4545 18.0552 26.3222 18.3197 26.0577L18.0552 25.5947C17.8568 25.7931 17.5261 25.8593 17.2616 25.8593C16.8647 25.9254 16.4679 25.5947 16.4018 25.1979H18.5181C18.5181 25.1318 18.5181 25.0656 18.5181 24.9995C18.5843 24.272 18.0552 23.6106 17.3277 23.5445C17.3277 23.5445 17.2616 23.5445 17.1954 23.5445ZM17.1954 24.0736C17.5922 24.0736 17.8568 24.3381 17.9229 24.735H16.4679C16.5341 24.3381 16.8647 24.0736 17.1954 24.0736ZM32.4729 24.9995V22.4863H31.8777V23.9413C31.6793 23.6768 31.3486 23.5445 31.0179 23.5445C30.2243 23.6106 29.6291 24.3381 29.6952 25.1318C29.7613 25.8593 30.2904 26.3884 31.0179 26.4545C31.3486 26.4545 31.6793 26.3222 31.8777 26.0577V26.3884H32.4729V24.9995ZM30.2243 24.9995C30.2243 24.5366 30.6211 24.2059 31.0841 24.2059C31.547 24.2059 31.8777 24.6027 31.8777 25.0656C31.8777 25.5286 31.4809 25.8593 31.0179 25.8593C30.555 25.8593 30.1581 25.5286 30.2243 24.9995ZM9.65587 24.9995V23.6106H9.06064V23.9413C8.86224 23.6768 8.53155 23.5445 8.20087 23.5445C7.40724 23.6106 6.81201 24.3381 6.87814 25.1318C6.94428 25.8593 7.47337 26.3884 8.20087 26.4545C8.53155 26.4545 8.86224 26.3222 9.06064 26.0577V26.3884H9.65587V24.9995ZM7.40724 24.9995C7.40724 24.5366 7.80405 24.2059 8.26701 24.2059C8.72996 24.2059 9.06064 24.6027 9.06064 25.0656C9.06064 25.5286 8.66383 25.8593 8.20087 25.8593C7.80405 25.8593 7.40724 25.5286 7.40724 24.9995Z" fill="white"/>
<path d="M21.693 2.24854H12.5V18.8488H21.693V2.24854Z" fill="#FF5F00"/>
<path d="M13.0291 10.5158C13.0291 7.27509 14.4841 4.23282 17.0634 2.24873C12.5 -1.32264 5.88635 -0.529002 2.24885 4.03441C-1.32252 8.59782 -0.52888 15.2115 4.03453 18.849C7.87044 21.8251 13.2275 21.8251 17.0634 18.849C14.4841 16.8649 13.0291 13.7565 13.0291 10.5158Z" fill="#EB001B"/>
<path d="M34.1265 10.5158C34.1265 16.3358 29.4309 21.0315 23.6109 21.0315C21.2299 21.0315 18.9813 20.2378 17.1295 18.7828C21.6268 15.2115 22.4204 8.59782 18.849 4.03441C18.3199 3.37304 17.7247 2.77782 17.0634 2.24873C21.6268 -1.32264 28.3065 -0.529002 31.8779 4.03441C33.3329 5.88623 34.1265 8.201 34.1265 10.5158Z" fill="#F79E1B"/>
</g>
<defs>
<clipPath id="clip0_270:57">
<rect width="34.1264" height="26.4545" fill="white"/>
</clipPath>
</defs>
</svg>
