<svg width="55" height="19" viewBox="0 0 55 19" fill="none" xmlns="http://www.w3.org/2000/svg">
<g clip-path="url(#clip0_288:229)">
<path fill-rule="evenodd" clip-rule="evenodd" d="M39.467 4.64062C40.7126 4.64062 41.7222 3.63148 41.7222 2.38708C41.7222 1.14195 40.7126 0.131836 39.467 0.131836C38.2228 0.131836 37.2137 1.14195 37.2137 2.38708C37.2137 3.63148 38.2228 4.64062 39.467 4.64062ZM22.1948 5.85765C22.093 6.11327 21.3606 8.18219 19.5892 10.3265V1.15794L14.8694 2.09076V18.7097H19.5892V13.5727C20.9562 15.6229 21.6312 18.7097 21.6312 18.7097H27.2846C26.7254 16.3849 24.2792 12.0983 24.2792 12.0983C26.4746 9.3149 27.4389 6.34902 27.5923 5.85765H22.1948ZM34.603 5.68417C30.3755 5.81985 28.2295 7.71651 28.2295 11.4868V18.7097H32.8415V12.8196C32.8415 10.562 33.1371 9.59426 35.8161 9.50195V5.75032C35.3652 5.65461 34.603 5.68417 34.603 5.68417ZM6.95374 7.68767C6.37564 7.64963 5.03722 7.56314 5.03722 6.35822C5.03722 4.90424 6.96416 4.90424 7.68692 4.90424C8.95773 4.90424 10.6036 5.27979 11.779 5.63135C11.779 5.63135 12.4346 5.8625 12.9926 6.09921L13.0444 6.11327V2.13122L12.9732 2.11014C11.5861 1.62483 9.97317 1.15794 6.98282 1.15794C1.82687 1.15794 0 4.16162 0 6.73474C0 8.21805 0.635771 11.709 6.54064 12.1117C7.04121 12.1424 8.36969 12.219 8.36969 13.4641C8.36969 14.4922 7.28205 15.0984 5.45275 15.0984C3.44804 15.0984 1.50341 14.5871 0.322247 14.1023V18.2036C2.09048 18.6671 4.08381 18.8987 6.41998 18.8987C11.4613 18.8987 13.7192 16.0569 13.7192 13.2403C13.7192 10.0466 11.1926 7.97164 6.95374 7.68767ZM37.1807 18.7097H41.7554V5.87219H37.1807V18.7097ZM50.3693 1.9764V18.7097H54.9448V1.15794L50.3693 1.9764ZM43.6933 1.9764L48.2643 1.15794V18.7097H43.6933V1.9764Z" fill="url(#paint0_linear_288:229)"/>
</g>
<defs>
<linearGradient id="paint0_linear_288:229" x1="14.8592" y1="0.131836" x2="18.9879" y2="23.2797" gradientUnits="userSpaceOnUse">
<stop stop-color="#6B195F"/>
<stop offset="1" stop-color="#4C255B"/>
</linearGradient>
<clipPath id="clip0_288:229">
<rect width="55" height="18.8987" fill="white"/>
</clipPath>
</defs>
</svg>
