<svg width="54" height="27" viewBox="0 0 54 27" fill="none" xmlns="http://www.w3.org/2000/svg">
<g clip-path="url(#clip0_270:72)">
<path d="M23.3402 21.5604H19.0414L21.6868 4.96021H25.9857L23.3402 21.5604Z" fill="white"/>
<path d="M38.8823 5.35714C37.6257 4.89418 36.3691 4.62964 35.0464 4.62964C30.8137 4.62964 27.8375 6.87828 27.8375 10.119C27.8375 12.4999 29.9539 13.8226 31.6073 14.6162C33.2607 15.4099 33.8559 15.939 33.8559 16.6665C33.8559 17.7908 32.5332 18.3199 31.2766 18.3199C29.8878 18.386 28.4989 18.0553 27.2423 17.4601L26.5809 17.1955L25.9857 20.8992C27.5069 21.4944 29.1603 21.759 30.7475 21.759C35.2448 21.759 38.1548 19.5103 38.2209 16.0712C38.2209 14.1533 37.0966 12.7644 34.6496 11.574C33.1284 10.8465 32.2025 10.3174 32.2025 9.52373C32.2025 8.73009 32.9962 8.06873 34.6496 8.06873C35.7739 8.06873 36.8321 8.26714 37.8241 8.73009L38.2209 8.9285L38.8823 5.35714Z" fill="white"/>
<path d="M44.5702 15.6743L46.2897 11.0448C46.2897 11.0448 46.6204 10.0527 46.8188 9.45751L47.0834 10.9125C47.0834 10.9125 47.877 14.8807 48.0754 15.6743H44.5702ZM49.8611 4.96024H46.5543C45.5622 4.82797 44.6363 5.4232 44.3056 6.34911L37.9565 21.5605H42.4538L43.3797 19.0473H48.869C49.0013 19.6425 49.3981 21.5605 49.3981 21.5605H53.3663L49.8611 4.96024Z" fill="white"/>
<path d="M15.4702 4.96021L11.3037 16.2695L10.8407 13.9548C9.78252 10.9786 7.66616 8.53157 4.88843 7.01043L8.72434 21.4943H13.2877L20.0337 4.96021H15.4702Z" fill="white"/>
<path d="M7.33543 4.96021H0.45725L0.391113 5.29089C5.74816 6.67975 9.31952 9.98657 10.7745 13.9548L9.31952 6.34907C9.05498 5.29089 8.32748 5.02634 7.33543 4.96021Z" fill="white"/>
</g>
<defs>
<clipPath id="clip0_270:72">
<rect width="52.9091" height="26.4545" fill="white" transform="translate(0.390869)"/>
</clipPath>
</defs>
</svg>
