<svg width="53" height="27" viewBox="0 0 53 27" fill="none" xmlns="http://www.w3.org/2000/svg">
<g clip-path="url(#clip0_270:64)">
<path d="M22.9494 21.5604H18.6505L21.296 4.96021H25.5948L22.9494 21.5604Z" fill="#00579F"/>
<path d="M38.4914 5.35714C37.2348 4.89418 35.9783 4.62964 34.6555 4.62964C30.4228 4.62964 27.4467 6.87828 27.4467 10.119C27.4467 12.4999 29.563 13.8226 31.2164 14.6162C32.8698 15.4099 33.4651 15.939 33.4651 16.6665C33.4651 17.7908 32.1423 18.3199 30.8858 18.3199C29.4969 18.386 28.108 18.0553 26.8514 17.4601L26.1901 17.1955L25.5948 20.8992C27.116 21.4944 28.7694 21.759 30.3567 21.759C34.8539 21.759 37.7639 19.5103 37.8301 16.0712C37.8301 14.1533 36.7058 12.7644 34.2587 11.574C32.7376 10.8465 31.8117 10.3174 31.8117 9.52373C31.8117 8.73009 32.6053 8.06873 34.2587 8.06873C35.383 8.06873 36.4412 8.26714 37.4333 8.73009L37.8301 8.9285L38.4914 5.35714Z" fill="#00579F"/>
<path d="M44.1793 15.6743L45.8989 11.0448C45.8989 11.0448 46.2295 10.0527 46.4279 9.45751L46.6925 10.9125C46.6925 10.9125 47.4861 14.8807 47.6845 15.6743H44.1793ZM49.4702 4.96024H46.1634C45.1714 4.82797 44.2454 5.4232 43.9148 6.34911L37.5657 21.5605H42.0629L42.9889 19.0473H48.4782C48.6104 19.6425 49.0073 21.5605 49.0073 21.5605H52.9754L49.4702 4.96024Z" fill="#00579F"/>
<path d="M15.0794 4.96021L10.9128 16.2695L10.4498 13.9548C9.39165 10.9786 7.27529 8.53157 4.49756 7.01043L8.33347 21.4943H12.8969L19.6428 4.96021H15.0794Z" fill="#00579F"/>
<path d="M6.94456 4.96021H0.0663805L0.000244141 5.29089C5.35729 6.67975 8.92865 9.98657 10.3837 13.9548L8.92865 6.34907C8.66411 5.29089 7.93661 5.02634 6.94456 4.96021Z" fill="#FAA61A"/>
</g>
<defs>
<clipPath id="clip0_270:64">
<rect width="52.9091" height="26.4545" fill="white"/>
</clipPath>
</defs>
</svg>
